<svg xmlns="http://www.w3.org/2000/svg" xmlns:xlink="http://www.w3.org/1999/xlink" xmlns:lucid="lucid" width="1870.4" height="1323.2"><g transform="translate(0 0)" lucid:page-tab-id="0_0"><path d="M276 80c24.3 0 44 24.35 44 54.38 0 30.04-19.7 54.38-44 54.38H144c-24.3 0-44-24.34-44-54.38C100 104.35 119.7 80 144 80z" stroke="#818121" stroke-width="2" fill-opacity="0"/><use xlink:href="#a" transform="matrix(1,0,0,1,105,85) translate(46.023003472222236 42.75151909722222)"/><use xlink:href="#b" transform="matrix(1,0,0,1,105,85) translate(8.144856770833357 78.59461805555554)"/><use xlink:href="#c" transform="matrix(1,0,0,1,105,85) translate(103.9365234375 78.59461805555554)"/><path d="M362.83 371.5c1.14-4.27 5.64-7.73 10.06-7.73H492c4.42 0 7.08 3.46 5.94 7.73l-20.77 77.88c-1.14 4.26-5.64 7.73-10.06 7.73H348c-4.42 0-7.08-3.46-5.94-7.72z" stroke="#818121" fill="#818121"/><use xlink:href="#d" transform="matrix(1,0,0,1,345,368.7721254175273) translate(30.126000000000012 48.795)"/><path d="M420.5 1027.63l-.42 3.2-1.24 3-2 2.6-2.6 2-3 1.25-3.2.42H311v-1h96.97l3-.4 2.77-1.14 2.4-1.83 1.82-2.4 1.14-2.75.4-3V765.9h1zm0-282.88h-1V474h1zM311 1040.1h-.5v-1h.5z" fill="#818121"/><path d="M424.64 473.5h-9.28L420 459.2z" fill="#fff"/><path d="M425.32 474h-10.64l5.32-16.4zm-9.27-1h7.9L420 460.83z" fill="#818121"/><use xlink:href="#e" transform="matrix(1,0,0,1,388.968,744.7452055791275) translate(0.004999999999999005 17.37)"/><path d="M210 190.26v692.86" stroke="#818121" fill="none"/><path d="M210.5 190.28h-1v-.52h1z" fill="#818121"/><path d="M210 897.88l-4.64-14.26h9.28z" stroke="#818121" fill="#fff"/><path d="M816.6 687.73c1.14-4.27 5.65-7.73 10.07-7.73H912c4.42 0 7.08 3.46 5.94 7.73l-14.55 54.54c-1.14 4.27-5.65 7.73-10.07 7.73H808c-4.42 0-7.08-3.46-5.94-7.73z" stroke="#818121" fill="#818121"/><use xlink:href="#f" transform="matrix(1,0,0,1,805,685) translate(27.945999999999998 36.795)"/><path d="M624.62 367.26c1.87-4 6.96-7.25 11.38-7.25h68c4.42 0 9.5 3.25 11.38 7.26l21.24 45.5c1.87 4 1.87 10.5 0 14.5l-21.24 45.5c-1.87 4-6.96 7.24-11.38 7.24h-68c-4.42 0-9.5-3.25-11.38-7.25l-21.24-45.5c-1.87-4-1.87-10.5 0-14.5z" stroke="#818121" stroke-opacity=".1" fill="#818121" fill-opacity=".1"/><use xlink:href="#g" transform="matrix(1,0,0,1,605,365.007626239513) translate(30.229 40.644999999999996)"/><use xlink:href="#h" transform="matrix(1,0,0,1,605,365.007626239513) translate(7.63900000000001 61.795)"/><use xlink:href="#i" transform="matrix(1,0,0,1,605,365.007626239513) translate(55.969 61.795)"/><use xlink:href="#j" transform="matrix(1,0,0,1,605,365.007626239513) translate(84.33699999999999 61.795)"/><use xlink:href="#k" transform="matrix(1,0,0,1,605,365.007626239513) translate(36.682 82.94500000000001)"/><use xlink:href="#l" transform="matrix(1,0,0,1,605,365.007626239513) translate(69.226 82.94500000000001)"/><path d="M420 362.77V101.5c0-6.63 5.37-12 12-12h226c6.63 0 12 5.37 12 12v11.62" stroke="#818121" fill="none"/><path d="M420.5 363.27h-1v-.5h1z" fill="#818121"/><path d="M670 127.88l-4.64-14.26h9.28z" stroke="#818121" fill="#fff"/><path d="M1119.45 286.63c3.06-3.17 8.04-3.17 11.1 0l113.9 118.05c3.06 3.18 3.06 8.34 0 11.52l-113.9 118.04c-3.06 3.18-8.04 3.18-11.1 0l-113.9-118.04c-3.06-3.18-3.06-8.34 0-11.52z" stroke="#333" fill="#333"/><use xlink:href="#m" transform="matrix(1,0,0,1,1005,285.877584168388) translate(81.327 89.495)"/><use xlink:href="#n" transform="matrix(1,0,0,1,1005,285.877584168388) translate(100.119 89.495)"/><use xlink:href="#o" transform="matrix(1,0,0,1,1005,285.877584168388) translate(148.377 89.495)"/><use xlink:href="#p" transform="matrix(1,0,0,1,1005,285.877584168388) translate(29.271 110.64500000000001)"/><use xlink:href="#q" transform="matrix(1,0,0,1,1005,285.877584168388) translate(114.501 110.64500000000001)"/><use xlink:href="#r" transform="matrix(1,0,0,1,1005,285.877584168388) translate(127.479 110.64500000000001)"/><use xlink:href="#s" transform="matrix(1,0,0,1,1005,285.877584168388) translate(202.719 110.64500000000001)"/><use xlink:href="#t" transform="matrix(1,0,0,1,1005,285.877584168388) translate(45.63300000000001 131.79500000000002)"/><use xlink:href="#u" transform="matrix(1,0,0,1,1005,285.877584168388) translate(59.06100000000001 131.79500000000002)"/><use xlink:href="#v" transform="matrix(1,0,0,1,1005,285.877584168388) translate(82.35300000000001 131.79500000000002)"/><use xlink:href="#w" transform="matrix(1,0,0,1,1005,285.877584168388) translate(98.26500000000001 131.79500000000002)"/><use xlink:href="#x" transform="matrix(1,0,0,1,1005,285.877584168388) translate(151.077 131.79500000000002)"/><use xlink:href="#q" transform="matrix(1,0,0,1,1005,285.877584168388) translate(73.83 152.945)"/><use xlink:href="#y" transform="matrix(1,0,0,1,1005,285.877584168388) translate(86.80799999999999 152.945)"/><use xlink:href="#z" transform="matrix(1,0,0,1,1005,285.877584168388) translate(121.74600000000001 152.945)"/><use xlink:href="#A" transform="matrix(1,0,0,1,1005,285.877584168388) translate(71.868 174.09500000000003)"/><path d="M1870 1318c0 12.15-44.36 22-99.08 22-54.73 0-99.1-9.85-99.1-22v-176c0-12.15 44.37-22 99.1-22 54.72 0 99.08 9.85 99.08 22z" stroke="#333" fill="#dfbda4" fill-opacity=".6"/><path d="M1870 1142c0 12.15-44.36 22-99.08 22-54.73 0-99.1-9.85-99.1-22" stroke="#333" fill="none"/><use xlink:href="#B" transform="matrix(1,0,0,1,1676.8307842301645,1168.9999999999995) translate(49.977000000000004 79.72)"/><use xlink:href="#C" transform="matrix(1,0,0,1,1676.8307842301645,1168.9999999999995) translate(53.262 100.87)"/><use xlink:href="#D" transform="matrix(1,0,0,1,1676.8307842301645,1168.9999999999995) translate(104.49 100.87)"/><path d="M110 900h192c4.42 0 8 3.58 8 8v263.2c0 4.42-3.58 8-8 8H118c-4.42 0-8-3.58-8-8zm20 0v279.2M110 920h200" stroke="#333" fill="#dfbda4" fill-opacity=".2"/><path d="M150 994.44c0-4.42 3.58-8 8-8h110c4.42 0 8 3.58 8 8v91.9c-21.04-16.7-34.15-16.7-42.08-16.7-12.6 0-29.36 16.7-41.96 16.7-7.8 0-21.04 0-41.96-16.7z" stroke="#818121" fill="#fff"/><path d="M157 1003.25c0-4.4 3.58-8 8-8h110c4.42 0 8 3.6 8 8v91.9c-21.04-16.7-34.15-16.7-42.08-16.7-12.6 0-29.36 16.7-41.96 16.7-7.8 0-21.04 0-41.96-16.7z" stroke="#818121" fill="#fff"/><path d="M164 1012.07c0-4.42 3.58-8 8-8h110c4.42 0 8 3.58 8 8v91.9c-21.04-16.7-34.15-16.7-42.08-16.7-12.6 0-29.36 16.7-41.96 16.7-7.8 0-21.04 0-41.96-16.7z" stroke="#818121" fill="#fff"/><use xlink:href="#E" transform="matrix(1,0,0,1,169,1009.067583113627) translate(14.539000000000001 43.795)"/><path d="M560 138c0-4.42 3.58-8 8-8h204c4.42 0 8 3.58 8 8v104c0 4.42-3.58 8-8 8H568c-4.42 0-8-3.58-8-8z" stroke="#818121" stroke-opacity=".65" fill="#818121" fill-opacity=".65"/><use xlink:href="#F" transform="matrix(1,0,0,1,565,135) translate(9.402000000000001 30.069999999999997)"/><use xlink:href="#G" transform="matrix(1,0,0,1,565,135) translate(72.6 30.069999999999997)"/><use xlink:href="#H" transform="matrix(1,0,0,1,565,135) translate(146.50799999999998 30.069999999999997)"/><use xlink:href="#I" transform="matrix(1,0,0,1,565,135) translate(26.223000000000013 51.22)"/><use xlink:href="#J" transform="matrix(1,0,0,1,565,135) translate(49.24500000000001 51.22)"/><use xlink:href="#K" transform="matrix(1,0,0,1,565,135) translate(88.37700000000001 51.22)"/><use xlink:href="#L" transform="matrix(1,0,0,1,565,135) translate(145.311 51.22)"/><use xlink:href="#M" transform="matrix(1,0,0,1,565,135) translate(22.992000000000004 72.37)"/><use xlink:href="#N" transform="matrix(1,0,0,1,565,135) translate(71.016 72.37)"/><use xlink:href="#O" transform="matrix(1,0,0,1,565,135) translate(22.461000000000013 93.52000000000001)"/><path d="M670 251v92.12" stroke="#818121" fill="none"/><path d="M670.5 251h-1v-.5h1z" fill="#818121"/><path d="M670 357.9l-4.64-14.28h9.28z" stroke="#818121" fill="#fff"/><path d="M704.44 701.1c-2.45-3.67-.86-6.65 3.56-6.65h50.67c4.4 0 6 2.98 3.56 6.65l-24.46 36.7c-2.45 3.66-6.42 3.66-8.87 0z" stroke="#333" fill="#333"/><path d="M796.6 827.73c1.14-4.27 5.65-7.73 10.07-7.73H892c4.42 0 7.08 3.46 5.94 7.73l-14.55 54.54c-1.14 4.27-5.65 7.73-10.07 7.73H788c-4.42 0-7.08-3.46-5.94-7.73z" stroke="#818121" fill="#818121"/><use xlink:href="#P" transform="matrix(1,0,0,1,785,825) translate(30.412 36.795)"/><path d="M776.6 967.73c1.14-4.27 5.65-7.73 10.07-7.73H872c4.42 0 7.08 3.46 5.94 7.73l-14.55 54.54c-1.14 4.27-5.65 7.73-10.07 7.73H768c-4.42 0-7.08-3.46-5.94-7.73z" stroke="#818121" fill="#818121"/><use xlink:href="#Q" transform="matrix(1,0,0,1,765,965) translate(19.432000000000002 36.795)"/><path d="M756.6 1107.73c1.14-4.27 5.65-7.73 10.07-7.73H852c4.42 0 7.08 3.46 5.94 7.73l-14.55 54.54c-1.14 4.27-5.65 7.73-10.07 7.73H748c-4.42 0-7.08-3.46-5.94-7.73z" stroke="#818121" fill="#818121"/><use xlink:href="#R" transform="matrix(1,0,0,1,745,1105) translate(10.089999999999996 36.795)"/><path d="M684.44 836.66c-2.45-3.68-.86-6.66 3.56-6.66h50.67c4.4 0 6 2.98 3.56 6.66l-24.46 36.68c-2.45 3.68-6.42 3.68-8.87 0zM664.44 976.66c-2.45-3.68-.86-6.66 3.56-6.66h50.67c4.4 0 6 2.98 3.56 6.66l-24.46 36.68c-2.45 3.68-6.42 3.68-8.87 0zM644.44 1116.66c-2.45-3.68-.86-6.66 3.56-6.66h50.67c4.4 0 6 2.98 3.56 6.66l-24.46 36.68c-2.45 3.68-6.42 3.68-8.87 0z" stroke="#333" fill="#333"/><path d="M670 481v34c0 2.76 2.24 5 5 5s5 2.24 5 5v182.45c0 6.62 5.37 12 12 12h7.68" stroke="#818121" fill="none"/><path d="M670.5 481h-1v-.5h1z" fill="#818121"/><path d="M714.45 719.45l-14.27 4.63v-9.27z" stroke="#818121" fill="#fff"/><path d="M670 481v364.32c0 5.35 4.33 9.68 9.68 9.68" stroke="#818121" fill="none"/><path d="M670.5 481h-1v-.5h1z" fill="#818121"/><path d="M694.45 855l-14.27 4.64v-9.28z" stroke="#818121" fill="#fff"/><path d="M670 481v179c0 5.52-4.48 10-10 10s-10 4.48-10 10v305.32c0 5.35 4.33 9.68 9.68 9.68" stroke="#818121" fill="none"/><path d="M670.5 481h-1v-.5h1z" fill="#818121"/><path d="M674.45 995l-14.27 4.64v-9.28z" stroke="#818121" fill="#fff"/><path d="M670 481v337c0 6.63-5.37 12-12 12h-16c-6.63 0-12 5.37-12 12v283.32c0 5.35 4.33 9.68 9.68 9.68" stroke="#818121" fill="none"/><path d="M670.5 481h-1v-.5h1z" fill="#818121"/><path d="M654.45 1135l-14.27 4.64v-9.28z" stroke="#818121" fill="#fff"/><path d="M752.18 717.82h27.68v.02h11.82" stroke="#818121" fill="none"/><path d="M752.2 718.32h-.85l.67-1h.18z" fill="#818121"/><path d="M806.44 717.85l-14.27 4.63v-9.27z" stroke="#818121" fill="#fff"/><path d="M732.18 853.38h28.28c0-.02 0-.02.02-.02h12.4" stroke="#818121" fill="none"/><path d="M732.2 853.88h-.85l.67-1h.18z" fill="#818121"/><path d="M787.64 853.36L773.37 858v-9.28z" stroke="#818121" fill="#fff"/><path d="M712.18 993.38h28.28c0-.02 0-.02.02-.02h12.4" stroke="#818121" fill="none"/><path d="M712.2 993.88h-.85l.67-1h.18z" fill="#818121"/><path d="M767.64 993.36L753.37 998v-9.28z" stroke="#818121" fill="#fff"/><path d="M692.18 1133.38h28.28c0-.02 0-.02.02-.02h12.4" stroke="#818121" fill="none"/><path d="M692.2 1133.88h-.85l.67-1h.18z" fill="#818121"/><path d="M747.64 1133.36l-14.27 4.63v-9.28z" stroke="#818121" fill="#fff"/><path d="M851.68 1135h27.5c6.63 0 12 5.37 12 12v41c0 6.63 5.38 12 12 12H1113c6.63 0 12-5.37 12-12V936.88" stroke="#818121" fill="none"/><path d="M851.7 1135.5h-.65l.27-1h.38z" fill="#818121"/><path d="M1125 922.12l4.64 14.26h-9.28z" stroke="#818121" fill="#fff"/><path d="M871.68 995h27.5c6.63 0 12 5.37 12 12v181c0 6.63 5.38 12 12 12H1113c6.63 0 12-5.37 12-12V936.88" stroke="#818121" fill="none"/><path d="M871.7 995.5h-.65l.27-1h.38z" fill="#818121"/><path d="M1125 922.12l4.64 14.26h-9.28z" stroke="#818121" fill="#fff"/><path d="M891.68 855h27.5c6.63 0 12 5.37 12 12v321c0 6.63 5.38 12 12 12H1113c6.63 0 12-5.37 12-12V936.88" stroke="#818121" fill="none"/><path d="M891.7 855.5h-.65l.27-1h.38z" fill="#818121"/><path d="M1125 922.12l4.64 14.26h-9.28z" stroke="#818121" fill="#fff"/><path d="M911.68 715h27.5c6.63 0 12 5.37 12 12v461c0 6.63 5.38 12 12 12H1113c6.63 0 12-5.37 12-12V936.88" stroke="#818121" fill="none"/><path d="M911.7 715.5h-.65l.27-1h.38z" fill="#818121"/><path d="M1125 922.12l4.64 14.26h-9.28z" stroke="#818121" fill="#fff"/><path d="M995 808c0-4.42 3.58-8 8-8h244c4.42 0 8 3.58 8 8v104c0 4.42-3.58 8-8 8h-244c-4.42 0-8-3.58-8-8z" stroke="#333" fill="#818121" fill-opacity=".3"/><path d="M1021 800v120m208-120v120" stroke="#333" fill="none"/><path d="M1015 810.5h220v99h-220z" fill="#fff" fill-opacity="0"/><use xlink:href="#S" transform="matrix(1,0,0,1,1020,815.4875) translate(49.2 17.37)"/><use xlink:href="#T" transform="matrix(1,0,0,1,1020,815.4875) translate(41.775000000000006 38.52)"/><use xlink:href="#U" transform="matrix(1,0,0,1,1020,815.4875) translate(65.319 38.52)"/><use xlink:href="#V" transform="matrix(1,0,0,1,1020,815.4875) translate(113.86500000000001 38.52)"/><use xlink:href="#W" transform="matrix(1,0,0,1,1020,815.4875) translate(5.388000000000005 59.67)"/><use xlink:href="#i" transform="matrix(1,0,0,1,1020,815.4875) translate(91.482 59.67)"/><use xlink:href="#X" transform="matrix(1,0,0,1,1020,815.4875) translate(119.85 59.67)"/><use xlink:href="#Y" transform="matrix(1,0,0,1,1020,815.4875) translate(164.094 59.67)"/><use xlink:href="#Z" transform="matrix(1,0,0,1,1020,815.4875) translate(18.726 80.82000000000001)"/><use xlink:href="#aa" transform="matrix(1,0,0,1,1020,815.4875) translate(38.507999999999996 80.82000000000001)"/><use xlink:href="#ab" transform="matrix(1,0,0,1,1020,815.4875) translate(70.458 80.82000000000001)"/><use xlink:href="#ac" transform="matrix(1,0,0,1,1020,815.4875) translate(131.45999999999998 80.82000000000001)"/><path d="M1125 799V553.5" stroke="#818121" fill="none"/><path d="M1125.5 799.5h-1v-.5h1z" fill="#818121"/><path d="M1125 538.73l4.64 14.27h-9.28z" stroke="#818121" fill="#fff"/><path d="M869 122h-27.5c-6.63 0-12 5.37-12 12v264.44c0 6.63 5.37 12 12 12h144.9" stroke="#818121" fill="none"/><path d="M869.5 122.5h-.5v-1h.5z" fill="#818121"/><path d="M1001.15 410.44l-14.26 4.63v-9.27z" stroke="#818121" fill="#fff"/><path d="M870 57h172c4.42 0 8 3.58 8 8v114c0 4.42-3.58 8-8 8H878c-4.42 0-8-3.58-8-8zm18 0v130M870 75h180" stroke="#333" fill="#dfbda4" fill-opacity=".2"/><path d="M910 95c0-4.42 3.58-8 8-8h104c4.42 0 8 3.58 8 8v82c-20.04-15.03-32.52-15.03-40.08-15.03-12 0-27.96 15.03-39.96 15.03-7.44 0-20.04 0-39.96-15.03z" stroke="#818121" fill="#fff"/><use xlink:href="#ad" transform="matrix(1,0,0,1,915,92.00022122570448) translate(1.1890000000000072 28.72)"/><use xlink:href="#ae" transform="matrix(1,0,0,1,915,92.00022122570448) translate(46.549 28.72)"/><use xlink:href="#af" transform="matrix(1,0,0,1,915,92.00022122570448) translate(3.1240000000000023 49.870000000000005)"/><use xlink:href="#ag" transform="matrix(1,0,0,1,915,92.00022122570448) translate(83.638 49.870000000000005)"/><path d="M1162.74 216.57h-25.7l-3.02.4-2.76 1.14-2.4 1.84-1.82 2.4-1.14 2.75-.4 3v55.16h-1v-55.22l.42-3.2 1.24-3 2-2.6 2.6-2 3-1.25 3.2-.43h25.78zM1228 204.1l-.42 3.2-1.24 3-2 2.6-2.6 2-3 1.25-3.2.42h-25.78v-1h25.7l3.02-.4 2.76-1.14 2.4-1.83 1.82-2.4 1.14-2.75.4-3v-39.3h1z" fill="#818121"/><path d="M1125.5 283.82l-.65-.07-.35.05v-.55h1z" fill="#818121"/><path d="M1232.14 164.26h-9.28l4.64-14.26z" fill="#fff"/><path d="M1232.82 164.76h-10.64l5.32-16.38zm-9.27-1h7.9l-3.95-12.15z" fill="#818121"/><use xlink:href="#ah" transform="matrix(1,0,0,1,1162.7409999998176,205.49571722636205) translate(0.005000000000000782 17.37)"/><path d="M1367.75 398.47l-.42 3.2-1.24 3-2 2.6-2.6 2-3 1.25-3.22.42h-107.55v-1h107.5l3-.4 2.76-1.14 2.38-1.83 1.83-2.4 1.15-2.75.4-3V274.5h1zm103.14-280.53h-91.62l-3 .4-2.77 1.14-2.38 1.83-1.83 2.4-1.15 2.76-.4 3v123.9h-1V129.4l.42-3.2 1.24-3 2-2.6 2.6-2 3-1.24 3.22-.42h91.67z" fill="#818121"/><path d="M1247.74 410.94h-.54l.05-.34-.08-.66h.57z" fill="#818121"/><path d="M1485.65 117.44l-14.26 4.63v-9.27z" fill="#fff"/><path d="M1487.27 117.44l-16.38 5.32v-10.64zm-15.38 3.95l12.13-3.96-12.14-3.95z" fill="#818121"/><use xlink:href="#ai" transform="matrix(1,0,0,1,1355.631,253.36390271524505) translate(0.005000000000000782 17.37)"/><path d="M1467.77 224.04h172c4.42 0 8 3.58 8 8v114c0 4.42-3.58 8-8 8h-164c-4.42 0-8-3.58-8-8zm18 0v130m-18-112h180" stroke="#333" fill="#dfbda4" fill-opacity=".2"/><path d="M1507.77 262.04c0-4.42 3.58-8 8-8h104c4.42 0 8 3.58 8 8v82C1607.73 329 1595.25 329 1587.7 329c-12 0-27.97 15.04-39.97 15.04-7.44 0-20.04 0-39.96-15.03z" stroke="#818121" fill="#fff"/><use xlink:href="#aj" transform="matrix(1,0,0,1,1512.7692157698357,259.0390133098985) translate(10.612000000000002 28.72)"/><use xlink:href="#ak" transform="matrix(1,0,0,1,1512.7692157698357,259.0390133098985) translate(20.512 49.870000000000005)"/><use xlink:href="#al" transform="matrix(1,0,0,1,1512.7692157698357,259.0390133098985) translate(66.25 49.870000000000005)"/><path d="M1160 95c0-4.42 3.58-8 8-8h119c4.42 0 8 3.58 8 8v44.88c0 4.42-3.58 8-8 8h-119c-4.42 0-8-3.58-8-8z" stroke="#818121" stroke-opacity=".65" fill="#818121" fill-opacity=".65"/><use xlink:href="#am" transform="matrix(1,0,0,1,1165,92.00022122570448) translate(3.2890000000000086 21.72)"/><use xlink:href="#an" transform="matrix(1,0,0,1,1165,92.00022122570448) translate(78.42099999999999 21.72)"/><use xlink:href="#ao" transform="matrix(1,0,0,1,1165,92.00022122570448) translate(26.067999999999998 42.870000000000005)"/><use xlink:href="#ap" transform="matrix(1,0,0,1,1165,92.00022122570448) translate(72.634 42.870000000000005)"/><path d="M1487.77 95c0-4.42 3.58-8 8-8h119c4.42 0 8 3.58 8 8v44.88c0 4.42-3.58 8-8 8h-119c-4.42 0-8-3.58-8-8z" stroke="#818121" stroke-opacity=".65" fill="#818121" fill-opacity=".65"/><use xlink:href="#aq" transform="matrix(1,0,0,1,1492.7692157698357,92.00022122570448) translate(21.424 21.72)"/><use xlink:href="#ar" transform="matrix(1,0,0,1,1492.7692157698357,92.00022122570448) translate(78.46600000000001 21.72)"/><use xlink:href="#as" transform="matrix(1,0,0,1,1492.7692157698357,92.00022122570448) translate(0.7150000000000034 42.870000000000005)"/><use xlink:href="#at" transform="matrix(1,0,0,1,1492.7692157698357,92.00022122570448) translate(48.973 42.870000000000005)"/><use xlink:href="#au" transform="matrix(1,0,0,1,1492.7692157698357,92.00022122570448) translate(70.051 42.870000000000005)"/><path d="M1555.27 148.88v58.28" stroke="#818121" fill="none"/><path d="M1555.77 148.9h-1v-.52h1z" fill="#818121"/><path d="M1555.27 221.92l-4.64-14.26h9.27z" stroke="#818121" fill="#fff"/><path d="M1655.26 412.58c3.16-3.08 8.3-3.08 11.46 0l55.32 53.84c3.16 3.08 3.16 8.08 0 11.16l-55.32 53.84c-3.16 3.08-8.3 3.08-11.46 0l-55.32-53.84c-3.17-3.08-3.17-8.08 0-11.16z" stroke="#333" fill="#333"/><g><use xlink:href="#m" transform="matrix(1,0,0,1,1599.2075719342192,412.0002212257045) translate(20.42 56.22)"/><use xlink:href="#n" transform="matrix(1,0,0,1,1599.2075719342192,412.0002212257045) translate(39.212 56.22)"/><use xlink:href="#av" transform="matrix(1,0,0,1,1599.2075719342192,412.0002212257045) translate(87.47 56.22)"/><use xlink:href="#aw" transform="matrix(1,0,0,1,1599.2075719342192,412.0002212257045) translate(30.266000000000002 77.37)"/></g><path d="M1557.77 355.04v15.12c0 6.63 5.37 12 12 12h79.98c6.2 0 11.24 5.03 11.24 11.24" stroke="#818121" fill="none"/><path d="M1558.27 355.05h-1v-.5h1z" fill="#818121"/><path d="M1661 408.16l-4.65-14.26h9.27z" stroke="#818121" fill="#fff"/><path d="M1462.35 472.5h-55.77l-3 .4-2.77 1.14-2.38 1.83-1.83 2.4-1.15 2.75-.4 3v11.5h-1v-11.55l.42-3.2 1.24-3 2-2.6 2.6-2 3-1.25 3.22-.42h55.83zm134.23 0h-107.2v-1h107.2z" fill="#818121"/><path d="M1597.06 472.1l.06.4h-.56v-1h.57z" fill="#818121"/><path d="M1394.55 510.28l-4.64-14.26h9.3z" fill="#fff"/><path d="M1394.55 511.9l-5.32-16.38h10.64zm-3.95-15.38l3.95 12.14 3.95-12.14z" fill="#818121"/><g><use xlink:href="#ah" transform="matrix(1,0,0,1,1462.3536654799764,461.4252212257045) translate(0.005000000000000782 17.37)"/></g><path d="M1693.47 645.52h-1v-40.25h1zM1661.5 543.2l.38 3 1.15 2.76 1.83 2.4 2.4 1.82 2.75 1.15 3.02.4h7.98l3.2.4 3 1.25 2.6 2 2 2.6 1.25 3 .42 3.2v16.94h-1v-16.87l-.4-3-1.14-2.77-1.83-2.4-2.4-1.82-2.75-1.14-3-.4h-8l-3.2-.42-3-1.24-2.6-2-2-2.6-1.24-3-.4-3.2v-8.54h1z" fill="#818121"/><path d="M1661.5 534.73h-1v-.55l.37.06.62-.08z" fill="#818121"/><path d="M1692.97 660.28l-4.64-14.26h9.27z" fill="#fff"/><path d="M1692.97 661.9l-5.32-16.38h10.64zm-3.95-15.38l3.95 12.14 3.95-12.14z" fill="#818121"/><g><use xlink:href="#ai" transform="matrix(1,0,0,1,1681.3502157698356,584.1227822668661) translate(0.005000000000000782 17.37)"/></g><path d="M1607.77 670.4c0-4.42 3.58-8 8-8h154.4c4.42 0 8 3.58 8 8V749c0 4.42-3.58 8-8 8h-154.4c-4.42 0-8-3.58-8-8z" stroke="#818121" stroke-opacity=".65" fill="#818121" fill-opacity=".65"/><g><use xlink:href="#aq" transform="matrix(1,0,0,1,1612.7692157698357,667.4002212257044) translate(11.100999999999999 28.145)"/><use xlink:href="#ax" transform="matrix(1,0,0,1,1612.7692157698357,667.4002212257044) translate(68.143 28.145)"/><use xlink:href="#ay" transform="matrix(1,0,0,1,1612.7692157698357,667.4002212257044) translate(5.494 49.295)"/><use xlink:href="#az" transform="matrix(1,0,0,1,1612.7692157698357,667.4002212257044) translate(48.928 49.295)"/><use xlink:href="#aA" transform="matrix(1,0,0,1,1612.7692157698357,667.4002212257044) translate(108.13 49.295)"/><use xlink:href="#aB" transform="matrix(1,0,0,1,1612.7692157698357,667.4002212257044) translate(54.517 70.44500000000001)"/></g><path d="M1327.77 520.4c0-4.42 3.58-8 8-8h117.56c4.42 0 8 3.58 8 8V599c0 4.42-3.58 8-8 8h-117.56c-4.42 0-8-3.58-8-8z" stroke="#818121" stroke-opacity=".65" fill="#818121" fill-opacity=".65"/><g><use xlink:href="#aq" transform="matrix(1,0,0,1,1332.7692157698357,517.4002212257044) translate(0.6379999999999981 38.72)"/><use xlink:href="#aC" transform="matrix(1,0,0,1,1332.7692157698357,517.4002212257044) translate(57.68 38.72)"/><use xlink:href="#aD" transform="matrix(1,0,0,1,1332.7692157698357,517.4002212257044) translate(87.75800000000001 38.72)"/><use xlink:href="#aE" transform="matrix(1,0,0,1,1332.7692157698357,517.4002212257044) translate(29.015 59.870000000000005)"/><use xlink:href="#aF" transform="matrix(1,0,0,1,1332.7692157698357,517.4002212257044) translate(51.695 59.870000000000005)"/></g><path d="M1388.77 709.53c3.2-3.05 8.37-3.05 11.56 0l68.44 65.44c3.2 3.05 3.2 8 0 11.06l-68.44 65.44c-3.2 3.05-8.37 3.05-11.56 0l-68.44-65.44c-3.2-3.05-3.2-8 0-11.06z" stroke="#333" fill="#333"/><g><use xlink:href="#m" transform="matrix(1,0,0,1,1319.550037687644,709.000096784901) translate(36.827 57.144999999999996)"/><use xlink:href="#n" transform="matrix(1,0,0,1,1319.550037687644,709.000096784901) translate(55.619 57.144999999999996)"/><use xlink:href="#aG" transform="matrix(1,0,0,1,1319.550037687644,709.000096784901) translate(103.877 57.144999999999996)"/><use xlink:href="#aH" transform="matrix(1,0,0,1,1319.550037687644,709.000096784901) translate(17.60300000000001 78.295)"/><use xlink:href="#aI" transform="matrix(1,0,0,1,1319.550037687644,709.000096784901) translate(31.283 99.44500000000001)"/></g><path d="M1394.55 608v82.37" stroke="#818121" fill="none"/><path d="M1395.05 608h-1v-.5h1z" fill="#818121"/><path d="M1394.55 705.14l-4.64-14.27h9.3z" stroke="#818121" fill="#fff"/><path d="M1692.97 758v24.2c0 .1.06.15.14.15.1 0 .16.06.16.14v8.32" stroke="#818121" fill="none"/><path d="M1693.47 758h-1v-.5h1z" fill="#818121"/><path d="M1693.26 805.58l-4.64-14.26h9.27z" stroke="#818121" fill="#fff"/><path d="M1596.12 815.7c0-4.42 3.58-8 8-8h178.28c4.42 0 8 3.58 8 8v78.6c0 4.42-3.58 8-8 8h-178.28c-4.42 0-8-3.58-8-8z" stroke="#818121" stroke-opacity=".65" fill="#818121" fill-opacity=".65"/><g><use xlink:href="#aJ" transform="matrix(1,0,0,1,1601.1153921150822,812.7) translate(16.090000000000003 17.569999999999997)"/><use xlink:href="#aK" transform="matrix(1,0,0,1,1601.1153921150822,812.7) translate(33.622 17.569999999999997)"/><use xlink:href="#aL" transform="matrix(1,0,0,1,1601.1153921150822,812.7) translate(107.764 17.569999999999997)"/><use xlink:href="#aM" transform="matrix(1,0,0,1,1601.1153921150822,812.7) translate(124.55799999999999 17.569999999999997)"/><use xlink:href="#aN" transform="matrix(1,0,0,1,1601.1153921150822,812.7) translate(24.820000000000007 38.72)"/><use xlink:href="#as" transform="matrix(1,0,0,1,1601.1153921150822,812.7) translate(66.346 38.72)"/><use xlink:href="#aO" transform="matrix(1,0,0,1,1601.1153921150822,812.7) translate(114.604 38.72)"/><use xlink:href="#aP" transform="matrix(1,0,0,1,1601.1153921150822,812.7) translate(7.260999999999996 59.870000000000005)"/><use xlink:href="#aQ" transform="matrix(1,0,0,1,1601.1153921150822,812.7) translate(99.565 59.870000000000005)"/><use xlink:href="#aR" transform="matrix(1,0,0,1,1601.1153921150822,812.7) translate(123.505 59.870000000000005)"/><use xlink:href="#aF" transform="matrix(1,0,0,1,1601.1153921150822,812.7) translate(70.855 81.02)"/></g><path d="M1363.77 980.88l-1.73 2.25-1.14 2.76-.4 3v94.22h-1v-94.28l.42-3.2 1.24-3 2-2.6.6-.48zm31.28-15.98l-.42 3.2-1.24 3-2 2.6-.62.48v-1.32l1.73-2.25 1.15-2.75.4-3v-110.1h1zM1395.05 854.75h-1v-.53l.3.04.7-.07z" fill="#818121"/><path d="M1360 1097.88l-4.64-14.26h9.28z" fill="#fff"/><path d="M1360 1099.5l-5.32-16.38h10.64zm-3.95-15.38l3.95 12.14 3.95-12.14z" fill="#818121"/><g><use xlink:href="#ah" transform="matrix(1,0,0,1,1363.7660188440968,966.2954811223104) translate(0.005000000000000782 17.37)"/></g><path d="M1280 1108c0-4.42 3.58-8 8-8h144c4.42 0 8 3.58 8 8v78.6c0 4.42-3.58 8-8 8h-144c-4.42 0-8-3.58-8-8z" stroke="#818121" stroke-opacity=".65" fill="#818121" fill-opacity=".65"/><g><use xlink:href="#aS" transform="matrix(1,0,0,1,1285,1105) translate(17.814 28.145)"/><use xlink:href="#an" transform="matrix(1,0,0,1,1285,1105) translate(88.89600000000002 28.145)"/><use xlink:href="#ay" transform="matrix(1,0,0,1,1285,1105) translate(9.615000000000009 49.295)"/><use xlink:href="#aT" transform="matrix(1,0,0,1,1285,1105) translate(53.04900000000001 49.295)"/><use xlink:href="#aU" transform="matrix(1,0,0,1,1285,1105) translate(21.747 70.44500000000001)"/><use xlink:href="#I" transform="matrix(1,0,0,1,1285,1105) translate(78.93299999999999 70.44500000000001)"/><use xlink:href="#ap" transform="matrix(1,0,0,1,1285,1105) translate(101.955 70.44500000000001)"/></g><path d="M1360 1195.6v22.4c0 6.63 5.37 12 12 12h282.95" stroke="#818121" fill="none"/><path d="M1360.5 1195.6h-1v-.5h1z" fill="#818121"/><path d="M1669.7 1230l-14.25 4.64v-9.28z" stroke="#818121" fill="#fff"/><path d="M1552.5 943.12h-1V840.4h1zm-9.24-162.7l3 1.24 2.6 2 2 2.6 1.23 3 .4 3.2v26.78h-1v-26.7l-.38-3.02-1.15-2.76-1.83-2.4-2.4-1.82-2.74-1.14-3.02-.4h-67.83v-1h67.9z" fill="#818121"/><path d="M1472.16 781h-.57l.07-.68-.05-.32h.54z" fill="#818121"/><path d="M1552 957.88l-4.62-14.26h9.27z" fill="#fff"/><path d="M1552 959.5l-5.3-16.38h10.64zm-3.94-15.38l3.95 12.14 3.96-12.14z" fill="#818121"/><g><use xlink:href="#ai" transform="matrix(1,0,0,1,1540.3925197122946,819.2421448218776) translate(0.005000000000000782 17.37)"/></g><path d="M1456.25 968c0-4.42 3.6-8 8-8h175.52c4.42 0 8 3.58 8 8v104c0 4.42-3.58 8-8 8h-175.52c-4.4 0-8-3.58-8-8z" stroke="#818121" stroke-opacity=".65" fill="#818121" fill-opacity=".65"/><g><use xlink:href="#aV" transform="matrix(1,0,0,1,1461.2538236547534,965) translate(60.715 30.569999999999997)"/><use xlink:href="#aW" transform="matrix(1,0,0,1,1461.2538236547534,965) translate(77.923 30.569999999999997)"/><use xlink:href="#aX" transform="matrix(1,0,0,1,1461.2538236547534,965) translate(8.847999999999999 51.72)"/><use xlink:href="#aL" transform="matrix(1,0,0,1,1461.2538236547534,965) translate(95.572 51.72)"/><use xlink:href="#aY" transform="matrix(1,0,0,1,1461.2538236547534,965) translate(112.366 51.72)"/><use xlink:href="#aZ" transform="matrix(1,0,0,1,1461.2538236547534,965) translate(155.098 51.72)"/><use xlink:href="#ba" transform="matrix(1,0,0,1,1461.2538236547534,965) translate(5.203000000000003 72.87)"/><use xlink:href="#bb" transform="matrix(1,0,0,1,1461.2538236547534,965) translate(41.113 72.87)"/><use xlink:href="#bc" transform="matrix(1,0,0,1,1461.2538236547534,965) translate(118.441 72.87)"/><use xlink:href="#bd" transform="matrix(1,0,0,1,1461.2538236547534,965) translate(31.870000000000005 94.02000000000001)"/><use xlink:href="#I" transform="matrix(1,0,0,1,1461.2538236547534,965) translate(100.81 94.02000000000001)"/><use xlink:href="#ap" transform="matrix(1,0,0,1,1461.2538236547534,965) translate(123.832 94.02000000000001)"/></g><path d="M1552 1081v7c0 6.63 5.38 12 12 12h203.8c1.72 0 3.12 1.4 3.12 3.12" stroke="#818121" fill="none"/><path d="M1552.5 1081h-1v-.5h1z" fill="#818121"/><path d="M1770.92 1117.88l-4.64-14.26h9.27z" stroke="#818121" fill="#fff"/><defs><path fill="#333" d="M811 29C351 29 92-249 88-713c-3-315 144-550 349-670 155-91 398-130 585-61 58 22 113 57 168 98 62 46 80 2 92-104h47c-5 93-8 258-8 496h-47c-21-174-51-283-154-371-63-54-150-100-260-100-214 0-315 170-365 353-56 206-57 498 2 702C549-187 654-20 868-20c105 0 194-49 254-101 106-92 133-211 152-395h47c0 247 3 419 8 516h-47c-3-43-8-73-16-92-17-38-42-34-76-12C1084-30 987 29 811 29" id="be"/><path fill="#333" d="M578-1087c336 0 501 196 501 559 0 362-166 557-501 557S76-166 76-528s167-559 502-559zM438-919c-66 143-62 635 0 780 70 166 210 166 280 1 61-144 65-640 0-782-38-83-81-127-140-127s-101 44-140 128" id="bf"/><path fill="#333" d="M1696-190c-1 101 30 150 131 147V0c-298-10-230-11-524 0v-43c87 1 97-57 98-147v-637c-3-106-19-170-123-170-130 0-199 114-199 256v551c-1 97 23 150 119 147V0C908-11 976-11 686 0v-43c87 1 97-58 98-147v-637c-3-104-11-170-110-170-126 0-199 106-199 237v570c1 89 11 148 98 147V0C289-12 355-10 49 0v-43c101 3 131-45 131-147v-646c-2-116-22-177-131-180v-43c142 13 323 4 426-22v184c61-127 167-190 318-190 166 0 254 60 277 203 60-134 164-201 339-203 222-3 287 116 287 346v551" id="bg"/><path fill="#333" d="M467-891c51-117 158-196 317-196 264 0 367 226 367 509 0 353-138 607-475 607-88 0-158-22-209-65v204c0 123 61 158 184 160v43c-177-8-425-14-602 0v-43c95 3 124-45 123-140V-836c-2-115-24-177-131-180v-43c142 13 320 4 426-22v190zm197-108c-105 0-197 78-197 177v741c31 36 74 54 129 54 87 0 144-47 188-131 68-131 74-599 12-734-32-70-75-107-132-107" id="bh"/><path fill="#333" d="M616-864c0-112-52-184-167-183-58 0-116 19-146 50 70 23 121 73 121 161 0 94-69 146-166 148-88 2-145-71-145-158 0-71 39-126 114-172 145-89 505-98 611 23 62 71 73 144 73 286v557c2 54 1 91 43 91 22 0 47-12 76-35l21 35c-62 50-125 74-234 75-126 2-193-55-196-166C565-54 458 12 317 14 167 16 57-71 59-219c0-71 23-130 70-177 72-72 186-115 321-164 59-22 99-47 127-68 62-47 39-143 39-236zM350-276c-1 96 42 159 127 159 54 0 100-28 139-84v-420c-31 45-71 64-127 103-79 55-137 116-139 242" id="bi"/><path fill="#333" d="M180-836c-2-116-22-177-131-180v-43c142 13 323 4 426-22v184c62-127 174-190 336-190 222 0 289 117 289 346v551c-1 101 30 150 131 147V0C930-11 996-11 694 0v-43c93 2 111-52 111-147v-637c-2-105-24-170-127-170-128 0-203 105-203 237v570c0 94 19 149 111 147V0C294-11 359-10 49 0v-43c101 3 131-45 131-147v-646" id="bj"/><path fill="#333" d="M846-854c1-104-56-157-152-164v-41c101 7 266 9 357 0v41c-79 27-109 84-142 176L543 188c-55 138-98 197-269 197-115 0-220-48-223-164-2-87 72-139 164-139 86 0 155 45 154 129-1 66-49 114-103 133 125 15 185-36 234-160l33-98L98-901c-35-72-54-105-127-115v-43c195 16 356 16 566 0v43c-67 2-129-4-129 57 0 16 5 35 14 58l251 605 140-394c22-65 33-120 33-164" id="bk"/><g id="a"><use transform="matrix(0.013129340277777775,0,0,0.013129340277777775,0,0)" xlink:href="#be"/><use transform="matrix(0.013129340277777775,0,0,0.013129340277777775,18.958767361111107,0)" xlink:href="#bf"/><use transform="matrix(0.013129340277777775,0,0,0.013129340277777775,34.14941406249999,0)" xlink:href="#bg"/><use transform="matrix(0.013129340277777775,0,0,0.013129340277777775,58.47808159722222,0)" xlink:href="#bh"/><use transform="matrix(0.013129340277777775,0,0,0.013129340277777775,74.6140407986111,0)" xlink:href="#bi"/><use transform="matrix(0.013129340277777775,0,0,0.013129340277777775,88.54427083333331,0)" xlink:href="#bj"/><use transform="matrix(0.013129340277777775,0,0,0.013129340277777775,104.74587673611109,0)" xlink:href="#bk"/></g><path fill="#333" d="M198-180c3 111 69 133 181 139V0C236-6 94-10-31 0v-41c68-11 125-84 176-215l467-1198c42 4 101 4 142 0l497 1282c28 70 61 119 129 131V0c-137-8-497-8-622 0v-41c83-7 144-5 144-75 0-21-8-53-25-97L754-549H308c-36 95-113 278-110 369zm338-963L324-590h415" id="bl"/><path fill="#333" d="M1069-223c2 116 23 177 131 180V0c-142-13-322-4-426 23v-185C712-35 602 29 444 29 226 29 158-88 158-317v-519c-2-115-24-177-131-180v-43c142 13 320 4 426-22v848c3 106 19 172 122 172 126 0 199-107 199-238v-537c-2-115-24-177-131-180v-43c142 13 320 4 426-22v858" id="bm"/><path fill="#333" d="M467-190C465-88 497-40 598-43V0C284-11 354-10 41 0v-43c101 3 131-46 131-147v-1168c-2-116-23-177-131-180v-43c142 13 322 4 426-23v1414" id="bn"/><g id="b"><use transform="matrix(0.013129340277777775,0,0,0.013129340277777775,0,0)" xlink:href="#bl"/><use transform="matrix(0.013129340277777775,0,0,0.013129340277777775,17.93467881944444,0)" xlink:href="#bj"/><use transform="matrix(0.013129340277777775,0,0,0.013129340277777775,34.4382595486111,0)" xlink:href="#bj"/><use transform="matrix(0.013129340277777775,0,0,0.013129340277777775,50.941840277777764,0)" xlink:href="#bm"/><use transform="matrix(0.013129340277777775,0,0,0.013129340277777775,67.23535156249999,0)" xlink:href="#bi"/><use transform="matrix(0.013129340277777775,0,0,0.013129340277777775,81.1655815972222,0)" xlink:href="#bn"/></g><path fill="#333" d="M1458-90c-70 77-137 119-272 119-170 0-246-68-277-222-32-160-42-362-131-459-45-50-141-32-229-36v471C545-83 572-41 702-41V0C577-8 186-8 70 0v-41c129 0 153-42 153-176v-1016c4-134-24-175-153-176v-41c143 9 458 2 632 2 188 0 330 30 425 92s143 150 143 264c0 261-202 363-461 396 216 18 350 82 393 270 23 100 44 250 86 326 13 22 34 32 60 32 42 0 56-21 82-47zM637-729c217 1 295-125 293-340-2-207-58-336-254-340-117-3-128 58-127 176v504h88" id="bo"/><path fill="#333" d="M76-518c0-347 167-569 502-569 257 0 385 151 385 454H388c-17 252 36 494 263 494 113 0 203-55 271-164l36 12C899-119 775 29 549 29 228 29 76-184 76-518zm596-420c-42-142-168-135-228-16-31 61-53 155-60 282h321c2-107-12-195-33-266" id="bp"/><path fill="#333" d="M475-891c45-102 141-196 279-196 118 0 183 74 186 188 3 97-64 172-160 172-87 0-151-48-151-131 0-65 30-119 90-160-9-2-17-3-25-3-136 11-219 129-219 267v543c1 132 60 166 193 168V0C301-10 400-11 49 0v-43c101 3 131-45 131-147v-646c-2-116-22-177-131-180v-43c142 13 323 4 426-22v190" id="bq"/><path fill="#333" d="M465-190c0 75 21 112 90 112 58 0 104-41 139-123l35 19C678-41 584 29 449 29c-143 1-234-62-263-177-10-43-16-102-16-178v-690H-2v-41h172v-272c113 0 211-22 295-66v338h242v41H465v826" id="br"/><path fill="#333" d="M481 29c-117 5-216-64-296-88-22 0-38 24-48 73H92c5-78 8-214 8-409h45c13 118 43 210 87 277S339-18 420-18c84-1 147-55 145-146-2-84-44-139-90-182-106-100-275-198-341-322-22-41-34-86-34-137 2-237 260-323 496-263 44 11 77 27 102 44 47 32 75 9 84-61h45c-5 69-8 189-8 360h-45c-24-158-88-317-262-317-80 0-141 51-139 131 3 111 87 161 157 215 128 99 237 155 309 286 49 90 40 218-21 295C751-30 628 23 481 29" id="bs"/><g id="c"><use transform="matrix(0.013129340277777775,0,0,0.013129340277777775,0,0)" xlink:href="#bo"/><use transform="matrix(0.013129340277777775,0,0,0.013129340277777775,18.604275173611107,0)" xlink:href="#bp"/><use transform="matrix(0.013129340277777775,0,0,0.013129340277777775,32.15375434027777,0)" xlink:href="#bh"/><use transform="matrix(0.013129340277777775,0,0,0.013129340277777775,48.28971354166666,0)" xlink:href="#bf"/><use transform="matrix(0.013129340277777775,0,0,0.013129340277777775,63.48036024305554,0)" xlink:href="#bq"/><use transform="matrix(0.013129340277777775,0,0,0.013129340277777775,76.0320095486111,0)" xlink:href="#br"/><use transform="matrix(0.013129340277777775,0,0,0.013129340277777775,85.49826388888887,0)" xlink:href="#bs"/></g><path fill="#fff" d="M396-667c146 0 245 66 241 212-3 107-62 182-159 199l-10-55L671 0H465L298-291l72 61H233V0H71v-667h325zm66 219c1-59-29-94-86-94H233v193h136c61-1 94-32 93-99" id="bt"/><path fill="#fff" d="M479-19C427 2 370 16 295 15 134 11 40-83 37-246c-1-170 87-278 253-277 180 0 234 127 234 309H139l-16-95h278l-22 47c-3-93-14-147-95-147-78 0-98 63-98 150 1 97 45 151 145 150 58 0 107-22 148-38v128" id="bu"/><path fill="#fff" d="M563-248C563-57 430 59 235-2c-21-7-38-17-53-32l30-47v262H66v-580c12-106 126-124 241-124 174 0 256 92 256 275zM212-126c20 13 54 20 83 21 91 1 119-54 119-148 0-88-24-146-113-145-48 1-81 3-89 34v238" id="bv"/><path fill="#fff" d="M553-255c1 173-89 270-259 270C121 15 37-81 37-255c-1-184 81-265 257-268 176 0 260 90 259 268zm-368 0c0 91 25 151 109 151s110-64 111-151c1-92-24-149-111-150-87 0-109 59-109 150" id="bw"/><path fill="#fff" d="M66-453c68-50 244-99 341-43v109c-53-10-135-12-192-4V0H66v-453" id="bx"/><path fill="#fff" d="M366 0c-24 13-58 20-93 20-112 1-173-53-174-159v-253H25v-114h74v-139h156v139h111v114H255v234c-9 68 81 56 111 30V0" id="by"/><path fill="#fff" d="M59 0v-141h145V0H59" id="bz"/><path fill="#fff" d="M316-202L178 0H21l227-297zM564 0H387L26-506h176zM272-299l142-207h158L340-202" id="bA"/><g id="d"><use transform="matrix(0.018,0,0,0.018,0,0)" xlink:href="#bt"/><use transform="matrix(0.018,0,0,0.018,12.761999999999999,0)" xlink:href="#bu"/><use transform="matrix(0.018,0,0,0.018,22.877999999999997,0)" xlink:href="#bv"/><use transform="matrix(0.018,0,0,0.018,33.696,0)" xlink:href="#bw"/><use transform="matrix(0.018,0,0,0.018,44.315999999999995,0)" xlink:href="#bx"/><use transform="matrix(0.018,0,0,0.018,52.019999999999996,0)" xlink:href="#by"/><use transform="matrix(0.018,0,0,0.018,59.45399999999999,0)" xlink:href="#bz"/><use transform="matrix(0.018,0,0,0.018,64.18799999999999,0)" xlink:href="#by"/><use transform="matrix(0.018,0,0,0.018,71.62199999999999,0)" xlink:href="#bA"/><use transform="matrix(0.018,0,0,0.018,82.31399999999998,0)" xlink:href="#by"/></g><path fill="#333" d="M437-19C394-3 345 8 289 8 131 5 54-83 55-250c-1-167 76-255 234-258 56 0 106 11 148 28v69c-40-17-86-28-140-28-124 1-169 61-170 189 1 129 45 187 170 189 54 0 100-11 140-28v70" id="bB"/><path fill="#333" d="M514-248c1 156-77 264-229 263C125 16 55-88 55-248c-2-163 74-259 228-260 162 0 229 100 231 260zm-387 0c2 115 39 199 157 197 119 1 156-82 158-197-1-117-40-195-158-194-117 0-155 80-157 194" id="bC"/><path fill="#333" d="M283-443c-48 0-91 8-131 20V0H80v-459c58-29 125-49 211-49 132-2 197 56 198 183V0h-72v-325c-1-81-47-120-134-118" id="bD"/><path fill="#333" d="M246 0L35-499h77L296-62l-16 4 179-441h72L319 0h-73" id="bE"/><path fill="#333" d="M461-20C413 2 356 15 286 15 128 12 55-87 55-250c-2-159 72-256 219-258 160 1 218 112 218 271H91l5-66h349l-28 10c-4-97-45-149-143-149-120 0-146 78-146 205-1 114 54 185 162 186 71 0 127-17 171-43v74" id="bF"/><path fill="#333" d="M80-459c64-24 171-62 262-43v64c-69-9-132 3-190 14V0H80v-459" id="bG"/><path fill="#333" d="M313-4c-98 35-201-6-201-117v-312H25v-66h87v-141h72v141h129v66H184v289c2 55 10 84 66 84 22 0 48-5 63-12v68" id="bH"/><g id="e"><use transform="matrix(0.018,0,0,0.018,0,0)" xlink:href="#bB"/><use transform="matrix(0.018,0,0,0.018,8.856,0)" xlink:href="#bC"/><use transform="matrix(0.018,0,0,0.018,19.098,0)" xlink:href="#bD"/><use transform="matrix(0.018,0,0,0.018,29.339999999999996,0)" xlink:href="#bE"/><use transform="matrix(0.018,0,0,0.018,38.897999999999996,0)" xlink:href="#bF"/><use transform="matrix(0.018,0,0,0.018,48.744,0)" xlink:href="#bG"/><use transform="matrix(0.018,0,0,0.018,55.53,0)" xlink:href="#bH"/></g><path fill="#fff" d="M71 0v-667h138l343 462-48 100v-562h149V0H531L182-456l38-73V0H71" id="bI"/><path fill="#fff" d="M535-193c2 144-90 207-231 208C161 12 66-47 66-193v-313h149v301c0 64 26 95 90 95 65 0 89-31 90-95v-301h140v313" id="bJ"/><path fill="#fff" d="M296-397c-27-1-64 9-81 17V0H66v-463c68-33 164-54 262-57 133 1 215 46 215 180V0H394v-310c-1-60-35-87-98-87" id="bK"/><path fill="#fff" d="M441-150C438-27 339 13 216 15 146 16 100-3 51-22v-131c45 29 97 61 171 61 53 0 87-43 50-70-49-36-141-29-181-75-25-25-42-59-42-109 3-120 89-170 206-170 77 0 118 16 165 43v117c-44-22-81-52-144-52-78 0-98 73-31 92 93 26 201 40 196 166" id="bL"/><g id="f"><use transform="matrix(0.018,0,0,0.018,0,0)" xlink:href="#bI"/><use transform="matrix(0.018,0,0,0.018,13.031999999999998,0)" xlink:href="#bw"/><use transform="matrix(0.018,0,0,0.018,23.651999999999997,0)" xlink:href="#bJ"/><use transform="matrix(0.018,0,0,0.018,34.47,0)" xlink:href="#bK"/><use transform="matrix(0.018,0,0,0.018,45.432,0)" xlink:href="#bL"/></g><path fill="#333" d="M85 0v-667h409v68H157v230h296v70H157V0H85" id="bM"/><path fill="#333" d="M498-183c1 128-79 199-209 198C157 14 81-51 80-183v-316h72v300c0 99 40 146 137 147 96-1 137-48 137-147v-300h72v316" id="bN"/><path fill="#333" d="M84 0v-499h72V0H84zm-4-588v-79h80v79H80" id="bO"/><g id="g"><use transform="matrix(0.018,0,0,0.018,0,0)" xlink:href="#bM"/><use transform="matrix(0.018,0,0,0.018,9.702,0)" xlink:href="#bN"/><use transform="matrix(0.018,0,0,0.018,20.106,0)" xlink:href="#bD"/><use transform="matrix(0.018,0,0,0.018,30.348,0)" xlink:href="#bB"/><use transform="matrix(0.018,0,0,0.018,39.20399999999999,0)" xlink:href="#bH"/><use transform="matrix(0.018,0,0,0.018,45.738,0)" xlink:href="#bO"/><use transform="matrix(0.018,0,0,0.018,50.05799999999999,0)" xlink:href="#bC"/><use transform="matrix(0.018,0,0,0.018,60.3,0)" xlink:href="#bD"/></g><path fill="#333" d="M152 0H80v-689h72V0" id="bP"/><path fill="#333" d="M514-237C514-19 312 71 127-26l25-25v268H80v-626c8-88 111-99 202-99 156 0 232 100 232 271zM152-87c36 21 74 34 124 35 112-1 160-75 162-185-1-118-33-208-157-205-51 0-129 7-129 46v309" id="bQ"/><path fill="#333" d="M401-139C400-35 321 11 221 15 145 15 108-1 55-27v-76c51 27 86 52 161 52 76 0 151-65 98-122-71-77-257-42-257-192 0-99 76-139 174-143 63-1 97 21 143 39v72c-48-23-75-44-139-45-48 0-107 19-106 67 7 84 107 79 170 107 54 24 102 52 102 129" id="bR"/><g id="h"><use transform="matrix(0.018,0,0,0.018,0,0)" xlink:href="#bP"/><use transform="matrix(0.018,0,0,0.018,4.175999999999999,0)" xlink:href="#bC"/><use transform="matrix(0.018,0,0,0.018,14.418,0)" xlink:href="#bC"/><use transform="matrix(0.018,0,0,0.018,24.659999999999997,0)" xlink:href="#bQ"/><use transform="matrix(0.018,0,0,0.018,34.901999999999994,0)" xlink:href="#bR"/></g><path fill="#333" d="M335-639c-90-19-145 18-137 112v28h137v66H198V0h-72v-433H40v-66h86c-12-150 62-234 209-204v64" id="bS"/><g id="i"><use transform="matrix(0.018,0,0,0.018,0,0)" xlink:href="#bS"/><use transform="matrix(0.018,0,0,0.018,6.119999999999999,0)" xlink:href="#bC"/><use transform="matrix(0.018,0,0,0.018,16.362,0)" xlink:href="#bG"/></g><path fill="#333" d="M474-106C473 6 363 15 252 15 144 15 68-26 60-137 46-324 284-341 411-266l14 66c-67-50-296-79-293 52 1 74 64 99 137 99 69 0 132 4 132-53v-229c11-150-219-125-292-64v-72c38-26 120-41 184-41 111 2 181 50 181 160v242" id="bT"/><path fill="#333" d="M295-442c-58 1-101 17-143 40V0H80v-720h72v277l-8-19c43-24 100-45 159-46 132 1 192 76 192 212V0h-72v-296c0-90-40-146-128-146" id="bU"/><g id="j"><use transform="matrix(0.018,0,0,0.018,0,0)" xlink:href="#bF"/><use transform="matrix(0.018,0,0,0.018,9.846,0)" xlink:href="#bT"/><use transform="matrix(0.018,0,0,0.018,19.817999999999998,0)" xlink:href="#bB"/><use transform="matrix(0.018,0,0,0.018,28.674,0)" xlink:href="#bU"/></g><path fill="#333" d="M80 0v-100h100V0H80" id="bV"/><path fill="#333" d="M280-218L116 0H35l202-272zM497 0h-92L40-499h91zM247-279l165-220h83L287-218" id="bW"/><g id="k"><use transform="matrix(0.018,0,0,0.018,0,0)" xlink:href="#bV"/><use transform="matrix(0.018,0,0,0.018,4.68,0)" xlink:href="#bH"/><use transform="matrix(0.018,0,0,0.018,11.213999999999999,0)" xlink:href="#bW"/><use transform="matrix(0.018,0,0,0.018,20.79,0)" xlink:href="#bH"/></g><g id="l"><use transform="matrix(0.018,0,0,0.018,0,0)" xlink:href="#bS"/><use transform="matrix(0.018,0,0,0.018,6.749999999999999,0)" xlink:href="#bO"/><use transform="matrix(0.018,0,0,0.018,11.069999999999999,0)" xlink:href="#bP"/><use transform="matrix(0.018,0,0,0.018,15.245999999999999,0)" xlink:href="#bF"/></g><path fill="#fff" d="M69 0v-499h149l1 499H69zm-3-575v-115h154v115H66" id="bX"/><g id="m"><use transform="matrix(0.018,0,0,0.018,0,0)" xlink:href="#bX"/><use transform="matrix(0.018,0,0,0.018,5.148,0)" xlink:href="#bL"/></g><path fill="#fff" d="M194 0L24-506h161L298-97l-47 2 107-411h110l105 399h-37l108-399h158L634 0H499L399-327l25 3L329 0H194" id="bY"/><path fill="#fff" d="M543-132C533-19 425 12 308 15 127 19 37-72 37-257c0-196 139-308 338-250 19 7 35 18 50 34l-30 46v-287h148v582zM188-252c0 90 35 143 126 142 38 0 81-7 81-38v-233c-21-12-48-21-78-21-95-1-130 52-129 150" id="bZ"/><g id="n"><use transform="matrix(0.018,0,0,0.018,0,0)" xlink:href="#bY"/><use transform="matrix(0.018,0,0,0.018,14.309999999999999,0)" xlink:href="#bw"/><use transform="matrix(0.018,0,0,0.018,24.93,0)" xlink:href="#bx"/><use transform="matrix(0.018,0,0,0.018,32.327999999999996,0)" xlink:href="#bZ"/></g><path fill="#fff" d="M358-311c0-134-218-87-274-34v-132c43-25 127-46 203-44 125 4 220 48 219 177l-1 239C496 4 381 15 261 15 132 15 39-27 39-158c0-176 238-190 344-103l6 72c-47-30-204-52-202 34 2 42 36 63 79 65 53-3 92 4 92-35v-186" id="ca"/><use transform="matrix(0.018,0,0,0.018,0,0)" xlink:href="#ca" id="o"/><g id="p"><use transform="matrix(0.018,0,0,0.018,0,0)" xlink:href="#bL"/><use transform="matrix(0.018,0,0,0.018,8.676,0)" xlink:href="#by"/><use transform="matrix(0.018,0,0,0.018,16.11,0)" xlink:href="#bw"/><use transform="matrix(0.018,0,0,0.018,26.729999999999997,0)" xlink:href="#bv"/><use transform="matrix(0.018,0,0,0.018,36.971999999999994,0)" xlink:href="#bY"/><use transform="matrix(0.018,0,0,0.018,51.282,0)" xlink:href="#bw"/><use transform="matrix(0.018,0,0,0.018,61.901999999999994,0)" xlink:href="#bx"/><use transform="matrix(0.018,0,0,0.018,69.3,0)" xlink:href="#bZ"/></g><path fill="#fff" d="M-14 98l367-854h107L92 98H-14" id="cb"/><use transform="matrix(0.018,0,0,0.018,0,0)" xlink:href="#cb" id="q"/><path fill="#fff" d="M328-520c132 0 208 46 208 180V0H387v-310c-1-60-35-87-98-87-28-1-56 9-74 17V0H66v-463c68-33 164-54 262-57zm275 123c-30 0-58 10-74 23l-146-55c60-51 154-88 259-91 132 0 208 46 208 180V0H701v-310c-1-60-35-87-98-87" id="cc"/><path fill="#fff" d="M464-25c-47 23-92 38-161 38C139 7 37-78 37-246c0-175 93-269 265-274 57 0 121 13 161 32v128c-42-18-82-37-137-37-86 1-142 42-140 134 1 102 42 151 147 151 50 1 99-23 131-40v127" id="cd"/><g id="r"><use transform="matrix(0.018,0,0,0.018,0,0)" xlink:href="#bK"/><use transform="matrix(0.018,0,0,0.018,10.962,0)" xlink:href="#bJ"/><use transform="matrix(0.018,0,0,0.018,21.78,0)" xlink:href="#cc"/><use transform="matrix(0.018,0,0,0.018,38.267999999999994,0)" xlink:href="#bu"/><use transform="matrix(0.018,0,0,0.018,48.38399999999999,0)" xlink:href="#bx"/><use transform="matrix(0.018,0,0,0.018,56.088,0)" xlink:href="#bX"/><use transform="matrix(0.018,0,0,0.018,61.236000000000004,0)" xlink:href="#cd"/></g><use transform="matrix(0.018,0,0,0.018,0,0)" xlink:href="#cb" id="s"/><path fill="#fff" d="M188 0v-511L59-438v-144l148-85h143V0H188" id="ce"/><use transform="matrix(0.018,0,0,0.018,0,0)" xlink:href="#ce" id="t"/><g id="u"><use transform="matrix(0.018,0,0,0.018,0,0)" xlink:href="#bw"/><use transform="matrix(0.018,0,0,0.018,10.62,0)" xlink:href="#bx"/></g><path fill="#fff" d="M296-680c141 1 228 66 228 205 0 192-170 258-285 352l-31-25h329V0H70v-114c106-67 212-154 273-266 13-26 19-50 19-72-1-71-45-101-115-102-76 1-122 40-171 75v-139c56-33 126-64 220-62" id="cf"/><use transform="matrix(0.018,0,0,0.018,0,0)" xlink:href="#cf" id="v"/><path fill="#fff" d="M214 0H66v-697h148V0" id="cg"/><g id="w"><use transform="matrix(0.018,0,0,0.018,0,0)" xlink:href="#cg"/><use transform="matrix(0.018,0,0,0.018,5.04,0)" xlink:href="#bu"/><use transform="matrix(0.018,0,0,0.018,15.155999999999999,0)" xlink:href="#by"/><use transform="matrix(0.018,0,0,0.018,22.59,0)" xlink:href="#by"/><use transform="matrix(0.018,0,0,0.018,30.023999999999994,0)" xlink:href="#bu"/><use transform="matrix(0.018,0,0,0.018,40.13999999999999,0)" xlink:href="#bx"/></g><g id="x"><use transform="matrix(0.018,0,0,0.018,0,0)" xlink:href="#bY"/><use transform="matrix(0.018,0,0,0.018,14.309999999999999,0)" xlink:href="#bw"/><use transform="matrix(0.018,0,0,0.018,24.93,0)" xlink:href="#bx"/><use transform="matrix(0.018,0,0,0.018,32.327999999999996,0)" xlink:href="#bZ"/></g><path fill="#fff" d="M396-301c13-102-112-114-180-72L214 0H66v-706h150v300l-63-34c47-41 122-80 206-80 122 2 186 59 186 188V0H396v-301" id="ch"/><g id="y"><use transform="matrix(0.018,0,0,0.018,0,0)" xlink:href="#ch"/><use transform="matrix(0.018,0,0,0.018,10.998,0)" xlink:href="#ca"/><use transform="matrix(0.018,0,0,0.018,21.293999999999997,0)" xlink:href="#bL"/></g><path fill="#fff" d="M538-39L120-226v-84l418-187v119L268-268l270 110v119" id="ci"/><path fill="#fff" d="M624-333c-1 220-78 345-291 346C122 12 43-114 42-333c1-219 80-344 291-346 213 1 290 127 291 346zm-416 0c2 118 16 215 125 215s124-97 126-215c-2-118-18-214-126-214s-124 96-125 214" id="cj"/><g id="z"><use transform="matrix(0.018,0,0,0.018,0,0)" xlink:href="#ci"/><use transform="matrix(0.018,0,0,0.018,11.988,0)" xlink:href="#ce"/><use transform="matrix(0.018,0,0,0.018,20.447999999999997,0)" xlink:href="#cj"/><use transform="matrix(0.018,0,0,0.018,32.436,0)" xlink:href="#cj"/></g><path fill="#fff" d="M314-602c-54-3-64 39-60 96h110v114H253V0H104v-392H29v-114h76C91-673 205-749 364-711v132c-12-14-24-23-50-23" id="ck"/><path fill="#fff" d="M37-243c-2-186 90-276 271-277 118 3 227 24 227 142v573H389V-88l28 47c-29 39-86 55-148 56C116 15 35-85 37-243zm352-107c-3-37-43-44-83-46-88 0-120 56-120 144 0 90 35 145 120 147 31 0 63-8 83-21v-224" id="cl"/><path fill="#fff" d="M145 68c70-3 81-58 93-125l3 85L24-506h171l115 355h-15l114-355h160L370 8c-41 97-79 176-194 188-33 0-68-8-90-18V57c19 7 35 11 59 11" id="cm"/><path fill="#fff" d="M446-484c2 151-161 135-148 299H180c-7-112 38-168 96-215 24-23 51-41 52-84 2-125-195-83-248-34v-113c39-24 97-44 162-44 127 3 200 66 204 191zM173 0v-114h132V0H173" id="cn"/><g id="A"><use transform="matrix(0.018,0,0,0.018,0,0)" xlink:href="#ck"/><use transform="matrix(0.018,0,0,0.018,7.092,0)" xlink:href="#bx"/><use transform="matrix(0.018,0,0,0.018,14.489999999999998,0)" xlink:href="#bu"/><use transform="matrix(0.018,0,0,0.018,24.605999999999998,0)" xlink:href="#cl"/><use transform="matrix(0.018,0,0,0.018,35.424,0)" xlink:href="#bJ"/><use transform="matrix(0.018,0,0,0.018,46.242,0)" xlink:href="#bu"/><use transform="matrix(0.018,0,0,0.018,56.358,0)" xlink:href="#bK"/><use transform="matrix(0.018,0,0,0.018,67.32,0)" xlink:href="#cd"/><use transform="matrix(0.018,0,0,0.018,76.356,0)" xlink:href="#cm"/><use transform="matrix(0.018,0,0,0.018,87.02999999999999,0)" xlink:href="#cn"/></g><path fill="#333" d="M534-202C528-64 440 13 295 14 198 14 124 0 59-32v-154c50 42 131 73 214 75 56 0 94-18 95-71-3-45-43-57-82-72-109-38-242-63-238-216 8-144 105-209 257-212 82 0 137 17 192 44v156c-54-43-133-87-231-69-46 8-75 76-36 106 103 78 311 55 304 243" id="co"/><path fill="#333" d="M479-19C427 2 370 16 295 15 134 11 40-83 37-246c-1-170 87-278 253-277 180 0 234 127 234 309H139l-16-95h278l-22 47c-3-93-14-147-95-147-78 0-98 63-98 150 1 97 45 151 145 150 58 0 107-22 148-38v128" id="cp"/><path fill="#333" d="M296-397c-27-1-64 9-81 17V0H66v-463c68-33 164-54 262-57 133 1 215 46 215 180V0H394v-310c-1-60-35-87-98-87" id="cq"/><path fill="#333" d="M366 0c-24 13-58 20-93 20-112 1-173-53-174-159v-253H25v-114h74v-139h156v139h111v114H255v234c-9 68 81 56 111 30V0" id="cr"/><path fill="#333" d="M69 0v-499h149l1 499H69zm-3-575v-115h154v115H66" id="cs"/><path fill="#333" d="M328-520c132 0 208 46 208 180V0H387v-310c-1-60-35-87-98-87-28-1-56 9-74 17V0H66v-463c68-33 164-54 262-57zm275 123c-30 0-58 10-74 23l-146-55c60-51 154-88 259-91 132 0 208 46 208 180V0H701v-310c-1-60-35-87-98-87" id="ct"/><g id="B"><use transform="matrix(0.018,0,0,0.018,0,0)" xlink:href="#co"/><use transform="matrix(0.018,0,0,0.018,10.386,0)" xlink:href="#cp"/><use transform="matrix(0.018,0,0,0.018,20.502,0)" xlink:href="#cq"/><use transform="matrix(0.018,0,0,0.018,31.464,0)" xlink:href="#cr"/><use transform="matrix(0.018,0,0,0.018,38.897999999999996,0)" xlink:href="#cs"/><use transform="matrix(0.018,0,0,0.018,44.045999999999985,0)" xlink:href="#ct"/><use transform="matrix(0.018,0,0,0.018,60.534,0)" xlink:href="#cp"/><use transform="matrix(0.018,0,0,0.018,70.64999999999999,0)" xlink:href="#cq"/><use transform="matrix(0.018,0,0,0.018,81.612,0)" xlink:href="#cr"/></g><path fill="#333" d="M212 0L25-667h177l117 518h-27l150-518h125l153 525h-30l118-525h177L798 0H638L491-480h29L372 0H212" id="cu"/><path fill="#333" d="M553-255c1 173-89 270-259 270C121 15 37-81 37-255c-1-184 81-265 257-268 176 0 260 90 259 268zm-368 0c0 91 25 151 109 151s110-64 111-151c1-92-24-149-111-150-87 0-109 59-109 150" id="cv"/><path fill="#333" d="M66-453c68-50 244-99 341-43v109c-53-10-135-12-192-4V0H66v-453" id="cw"/><path fill="#333" d="M543-132C533-19 425 12 308 15 127 19 37-72 37-257c0-196 139-308 338-250 19 7 35 18 50 34l-30 46v-287h148v582zM188-252c0 90 35 143 126 142 38 0 81-7 81-38v-233c-21-12-48-21-78-21-95-1-130 52-129 150" id="cx"/><g id="C"><use transform="matrix(0.018,0,0,0.018,0,0)" xlink:href="#cu"/><use transform="matrix(0.018,0,0,0.018,17.28,0)" xlink:href="#cv"/><use transform="matrix(0.018,0,0,0.018,27.9,0)" xlink:href="#cw"/><use transform="matrix(0.018,0,0,0.018,35.297999999999995,0)" xlink:href="#cx"/></g><path fill="#333" d="M71 0v-667h162v540h290V0H71" id="cy"/><path fill="#333" d="M441-150C438-27 339 13 216 15 146 16 100-3 51-22v-131c45 29 97 61 171 61 53 0 87-43 50-70-49-36-141-29-181-75-25-25-42-59-42-109 3-120 89-170 206-170 77 0 118 16 165 43v117c-44-22-81-52-144-52-78 0-98 73-31 92 93 26 201 40 196 166" id="cz"/><g id="D"><use transform="matrix(0.018,0,0,0.018,0,0)" xlink:href="#cy"/><use transform="matrix(0.018,0,0,0.018,9.989999999999998,0)" xlink:href="#cs"/><use transform="matrix(0.018,0,0,0.018,15.137999999999998,0)" xlink:href="#cz"/><use transform="matrix(0.018,0,0,0.018,23.813999999999997,0)" xlink:href="#cr"/></g><path fill="#333" d="M359-667c130 0 197 65 197 194-4 120-72 196-192 200l30-20L586 0h-85L303-306l36 37H157V0H85v-667h274zm125 199c0-87-36-131-133-131H157v262h169c102 0 158-37 158-131" id="cA"/><path fill="#333" d="M461-20C413 2 356 15 286 15 128 12 55-87 55-250c-2-159 72-256 219-258 160 1 218 112 218 271H91l5-66h349l-28 10c-4-97-45-149-143-149-120 0-146 78-146 205-1 114 54 185 162 186 71 0 127-17 171-43v74" id="cB"/><path fill="#333" d="M514-237C514-19 312 71 127-26l25-25v268H80v-626c8-88 111-99 202-99 156 0 232 100 232 271zM152-87c36 21 74 34 124 35 112-1 160-75 162-185-1-118-33-208-157-205-51 0-129 7-129 46v309" id="cC"/><path fill="#333" d="M514-248c1 156-77 264-229 263C125 16 55-88 55-248c-2-163 74-259 228-260 162 0 229 100 231 260zm-387 0c2 115 39 199 157 197 119 1 156-82 158-197-1-117-40-195-158-194-117 0-155 80-157 194" id="cD"/><path fill="#333" d="M80-459c64-24 171-62 262-43v64c-69-9-132 3-190 14V0H80v-459" id="cE"/><path fill="#333" d="M313-4c-98 35-201-6-201-117v-312H25v-66h87v-141h72v141h129v66H184v289c2 55 10 84 66 84 22 0 48-5 63-12v68" id="cF"/><path fill="#333" d="M80 0v-100h100V0H80" id="cG"/><path fill="#333" d="M55-256c0-221 198-309 387-211l-25 25v-268h72v624C478-1 377 15 287 15 129 15 55-85 55-256zm76 0c1 118 34 207 157 205 49 0 120-9 129-42v-313c-35-21-83-34-134-35-110 1-151 75-152 185" id="cH"/><path fill="#333" d="M335-639c-90-19-145 18-137 112v28h137v66H198V0h-72v-433H40v-66h86c-12-150 62-234 209-204v64" id="cI"/><g id="E"><use transform="matrix(0.018,0,0,0.018,0,0)" xlink:href="#cA"/><use transform="matrix(0.018,0,0,0.018,11.357999999999999,0)" xlink:href="#cB"/><use transform="matrix(0.018,0,0,0.018,21.204000000000004,0)" xlink:href="#cC"/><use transform="matrix(0.018,0,0,0.018,31.445999999999998,0)" xlink:href="#cD"/><use transform="matrix(0.018,0,0,0.018,41.687999999999995,0)" xlink:href="#cE"/><use transform="matrix(0.018,0,0,0.018,48.474,0)" xlink:href="#cF"/><use transform="matrix(0.018,0,0,0.018,55.007999999999996,0)" xlink:href="#cG"/><use transform="matrix(0.018,0,0,0.018,59.687999999999995,0)" xlink:href="#cC"/><use transform="matrix(0.018,0,0,0.018,69.92999999999999,0)" xlink:href="#cH"/><use transform="matrix(0.018,0,0,0.018,80.172,0)" xlink:href="#cI"/></g><path fill="#fff" d="M534-202C528-64 440 13 295 14 198 14 124 0 59-32v-154c50 42 131 73 214 75 56 0 94-18 95-71-3-45-43-57-82-72-109-38-242-63-238-216 8-144 105-209 257-212 82 0 137 17 192 44v156c-54-43-133-87-231-69-46 8-75 76-36 106 103 78 311 55 304 243" id="cJ"/><g id="F"><use transform="matrix(0.018,0,0,0.018,0,0)" xlink:href="#cJ"/><use transform="matrix(0.018,0,0,0.018,10.386,0)" xlink:href="#bu"/><use transform="matrix(0.018,0,0,0.018,20.502,0)" xlink:href="#ca"/><use transform="matrix(0.018,0,0,0.018,30.798,0)" xlink:href="#bx"/><use transform="matrix(0.018,0,0,0.018,38.196,0)" xlink:href="#cd"/><use transform="matrix(0.018,0,0,0.018,47.232,0)" xlink:href="#ch"/></g><path fill="#fff" d="M417-61c-32 45-80 76-157 76C113 15 37-79 37-237c-3-197 94-286 288-283 110 3 209 32 209 136V6c-3 154-102 215-258 217-75 1-143-10-187-33V59c78 36 307 88 299-59v-82zM186-246c-2 82 38 148 112 149 37 0 65-8 90-22v-232c0-42-39-50-80-51-93-1-121 65-122 156" id="cK"/><g id="G"><use transform="matrix(0.018,0,0,0.018,0,0)" xlink:href="#by"/><use transform="matrix(0.018,0,0,0.018,7.433999999999999,0)" xlink:href="#ch"/><use transform="matrix(0.018,0,0,0.018,18.432,0)" xlink:href="#bx"/><use transform="matrix(0.018,0,0,0.018,25.83,0)" xlink:href="#bw"/><use transform="matrix(0.018,0,0,0.018,36.449999999999996,0)" xlink:href="#bJ"/><use transform="matrix(0.018,0,0,0.018,47.267999999999994,0)" xlink:href="#cK"/><use transform="matrix(0.018,0,0,0.018,57.94199999999999,0)" xlink:href="#ch"/></g><g id="H"><use transform="matrix(0.018,0,0,0.018,0,0)" xlink:href="#bx"/><use transform="matrix(0.018,0,0,0.018,7.398,0)" xlink:href="#bu"/><use transform="matrix(0.018,0,0,0.018,17.514,0)" xlink:href="#bv"/><use transform="matrix(0.018,0,0,0.018,28.332,0)" xlink:href="#bw"/><use transform="matrix(0.018,0,0,0.018,38.952,0)" xlink:href="#bx"/><use transform="matrix(0.018,0,0,0.018,46.656,0)" xlink:href="#by"/></g><g id="I"><use transform="matrix(0.018,0,0,0.018,0,0)" xlink:href="#by"/><use transform="matrix(0.018,0,0,0.018,7.433999999999999,0)" xlink:href="#bw"/></g><g id="J"><use transform="matrix(0.018,0,0,0.018,0,0)" xlink:href="#ck"/><use transform="matrix(0.018,0,0,0.018,7.092,0)" xlink:href="#bX"/><use transform="matrix(0.018,0,0,0.018,12.239999999999998,0)" xlink:href="#bK"/><use transform="matrix(0.018,0,0,0.018,23.201999999999998,0)" xlink:href="#bZ"/></g><g id="K"><use transform="matrix(0.018,0,0,0.018,0,0)" xlink:href="#bY"/><use transform="matrix(0.018,0,0,0.018,14.309999999999999,0)" xlink:href="#bw"/><use transform="matrix(0.018,0,0,0.018,24.93,0)" xlink:href="#bx"/><use transform="matrix(0.018,0,0,0.018,32.327999999999996,0)" xlink:href="#bZ"/><use transform="matrix(0.018,0,0,0.018,43.28999999999999,0)" xlink:href="#bL"/></g><g id="L"><use transform="matrix(0.018,0,0,0.018,0,0)" xlink:href="#bY"/><use transform="matrix(0.018,0,0,0.018,14.886,0)" xlink:href="#bX"/><use transform="matrix(0.018,0,0,0.018,20.034,0)" xlink:href="#by"/><use transform="matrix(0.018,0,0,0.018,27.467999999999996,0)" xlink:href="#ch"/></g><path fill="#fff" d="M622-450c1 150-100 232-251 231H233V0H71v-667h300c151 0 252 66 251 217zm-175 11c-1-65-29-103-96-102H233v197h118c64 0 95-34 96-95" id="cL"/><path fill="#fff" d="M694-334c2 221-113 347-326 348C152 11 43-111 42-333c-3-219 115-347 326-347 216 0 326 123 326 346zm-484 2c0 130 36 211 158 213 123-1 159-86 159-215 0-130-36-213-159-214-123 2-158 85-158 216" id="cM"/><path fill="#fff" d="M143-339v-121h125v121H143zm0 300v-121h125v121H143" id="cN"/><g id="M"><use transform="matrix(0.018,0,0,0.018,0,0)" xlink:href="#cL"/><use transform="matrix(0.018,0,0,0.018,11.952,0)" xlink:href="#cM"/><use transform="matrix(0.018,0,0,0.018,25.217999999999996,0)" xlink:href="#cJ"/><use transform="matrix(0.018,0,0,0.018,35.604,0)" xlink:href="#cN"/></g><path fill="#fff" d="M235 0L24-506h162l153 390-36 1 136-391h157L385 0H235" id="cO"/><path fill="#fff" d="M564-255c1 181-90 270-266 270C183 15 66-3 66-117v-576h146v276l-28-47c30-36 90-54 151-56 157 1 230 101 229 265zm-352 99c1 41 43 45 84 47 86 1 118-54 119-137 0-93-30-152-116-155-31 0-66 8-87 21v224" id="cP"/><g id="N"><use transform="matrix(0.018,0,0,0.018,0,0)" xlink:href="#bK"/><use transform="matrix(0.018,0,0,0.018,10.962,0)" xlink:href="#bw"/><use transform="matrix(0.018,0,0,0.018,21.582,0)" xlink:href="#bJ"/><use transform="matrix(0.018,0,0,0.018,32.4,0)" xlink:href="#bK"/><use transform="matrix(0.018,0,0,0.018,43.361999999999995,0)" xlink:href="#bL"/><use transform="matrix(0.018,0,0,0.018,52.038,0)" xlink:href="#cb"/><use transform="matrix(0.018,0,0,0.018,60.047999999999995,0)" xlink:href="#cO"/><use transform="matrix(0.018,0,0,0.018,70.66799999999999,0)" xlink:href="#bu"/><use transform="matrix(0.018,0,0,0.018,80.78399999999999,0)" xlink:href="#bx"/><use transform="matrix(0.018,0,0,0.018,88.488,0)" xlink:href="#cP"/><use transform="matrix(0.018,0,0,0.018,99.30599999999998,0)" xlink:href="#bL"/><use transform="matrix(0.018,0,0,0.018,107.98199999999999,0)" xlink:href="#cb"/></g><path fill="#fff" d="M6 193V72c53 6 80-17 80-68v-510h149l2 510c1 141-92 188-231 189zm77-775v-115h155v115H83" id="cQ"/><g id="O"><use transform="matrix(0.018,0,0,0.018,0,0)" xlink:href="#ca"/><use transform="matrix(0.018,0,0,0.018,10.296,0)" xlink:href="#bZ"/><use transform="matrix(0.018,0,0,0.018,21.258,0)" xlink:href="#cO"/><use transform="matrix(0.018,0,0,0.018,31.878,0)" xlink:href="#bu"/><use transform="matrix(0.018,0,0,0.018,41.994,0)" xlink:href="#bx"/><use transform="matrix(0.018,0,0,0.018,49.69800000000001,0)" xlink:href="#cP"/><use transform="matrix(0.018,0,0,0.018,60.516,0)" xlink:href="#bL"/><use transform="matrix(0.018,0,0,0.018,69.192,0)" xlink:href="#cb"/><use transform="matrix(0.018,0,0,0.018,77.202,0)" xlink:href="#ca"/><use transform="matrix(0.018,0,0,0.018,87.49799999999999,0)" xlink:href="#bZ"/><use transform="matrix(0.018,0,0,0.018,98.46,0)" xlink:href="#cQ"/><use transform="matrix(0.018,0,0,0.018,103.93199999999999,0)" xlink:href="#bu"/><use transform="matrix(0.018,0,0,0.018,114.04799999999999,0)" xlink:href="#cd"/><use transform="matrix(0.018,0,0,0.018,123.08399999999999,0)" xlink:href="#by"/><use transform="matrix(0.018,0,0,0.018,130.518,0)" xlink:href="#bX"/><use transform="matrix(0.018,0,0,0.018,135.666,0)" xlink:href="#cO"/><use transform="matrix(0.018,0,0,0.018,146.286,0)" xlink:href="#bu"/><use transform="matrix(0.018,0,0,0.018,156.402,0)" xlink:href="#bL"/></g><path fill="#fff" d="M262 0L13-667h187l189 567h-53l188-566 172-1L435 0H262" id="cR"/><g id="P"><use transform="matrix(0.018,0,0,0.018,0,0)" xlink:href="#cR"/><use transform="matrix(0.018,0,0,0.018,11.861999999999998,0)" xlink:href="#bu"/><use transform="matrix(0.018,0,0,0.018,21.977999999999998,0)" xlink:href="#bx"/><use transform="matrix(0.018,0,0,0.018,29.682,0)" xlink:href="#cP"/><use transform="matrix(0.018,0,0,0.018,40.5,0)" xlink:href="#bL"/></g><path fill="#fff" d="M13 0l252-667h177L678 0H512L299-629l79-7L166 0H13zm142-144l33-119h303l15 119H155" id="cS"/><g id="Q"><use transform="matrix(0.018,0,0,0.018,0,0)" xlink:href="#cS"/><use transform="matrix(0.018,0,0,0.018,12.239999999999998,0)" xlink:href="#bZ"/><use transform="matrix(0.018,0,0,0.018,23.201999999999998,0)" xlink:href="#cO"/><use transform="matrix(0.018,0,0,0.018,33.821999999999996,0)" xlink:href="#bu"/><use transform="matrix(0.018,0,0,0.018,43.937999999999995,0)" xlink:href="#bx"/><use transform="matrix(0.018,0,0,0.018,51.641999999999996,0)" xlink:href="#cP"/><use transform="matrix(0.018,0,0,0.018,62.459999999999994,0)" xlink:href="#bL"/></g><g id="R"><use transform="matrix(0.018,0,0,0.018,0,0)" xlink:href="#cS"/><use transform="matrix(0.018,0,0,0.018,12.239999999999998,0)" xlink:href="#bZ"/><use transform="matrix(0.018,0,0,0.018,23.201999999999998,0)" xlink:href="#cQ"/><use transform="matrix(0.018,0,0,0.018,28.674,0)" xlink:href="#bu"/><use transform="matrix(0.018,0,0,0.018,38.79,0)" xlink:href="#cd"/><use transform="matrix(0.018,0,0,0.018,47.82600000000001,0)" xlink:href="#by"/><use transform="matrix(0.018,0,0,0.018,55.26,0)" xlink:href="#bX"/><use transform="matrix(0.018,0,0,0.018,60.408,0)" xlink:href="#cO"/><use transform="matrix(0.018,0,0,0.018,71.028,0)" xlink:href="#bu"/><use transform="matrix(0.018,0,0,0.018,81.144,0)" xlink:href="#bL"/></g><path fill="#333" d="M358-311c0-134-218-87-274-34v-132c43-25 127-46 203-44 125 4 220 48 219 177l-1 239C496 4 381 15 261 15 132 15 39-27 39-158c0-176 238-190 344-103l6 72c-47-30-204-52-202 34 2 42 36 63 79 65 53-3 92 4 92-35v-186" id="cT"/><path fill="#333" d="M45 0v-118l271-307 15 31H51v-112h396v116L195-81l-5-38h257V0H45" id="cU"/><path fill="#333" d="M417-61c-32 45-80 76-157 76C113 15 37-79 37-237c-3-197 94-286 288-283 110 3 209 32 209 136V6c-3 154-102 215-258 217-75 1-143-10-187-33V59c78 36 307 88 299-59v-82zM186-246c-2 82 38 148 112 149 37 0 65-8 90-22v-232c0-42-39-50-80-51-93-1-121 65-122 156" id="cV"/><g id="S"><use transform="matrix(0.018,0,0,0.018,0,0)" xlink:href="#cy"/><use transform="matrix(0.018,0,0,0.018,9.989999999999998,0)" xlink:href="#cp"/><use transform="matrix(0.018,0,0,0.018,20.105999999999998,0)" xlink:href="#ct"/><use transform="matrix(0.018,0,0,0.018,36.593999999999994,0)" xlink:href="#ct"/><use transform="matrix(0.018,0,0,0.018,53.081999999999994,0)" xlink:href="#cT"/><use transform="matrix(0.018,0,0,0.018,63.37799999999999,0)" xlink:href="#cr"/><use transform="matrix(0.018,0,0,0.018,70.812,0)" xlink:href="#cs"/><use transform="matrix(0.018,0,0,0.018,75.96,0)" xlink:href="#cU"/><use transform="matrix(0.018,0,0,0.018,84.81599999999999,0)" xlink:href="#cs"/><use transform="matrix(0.018,0,0,0.018,89.96399999999997,0)" xlink:href="#cq"/><use transform="matrix(0.018,0,0,0.018,100.92599999999999,0)" xlink:href="#cV"/></g><g id="T"><use transform="matrix(0.018,0,0,0.018,0,0)" xlink:href="#bT"/><use transform="matrix(0.018,0,0,0.018,9.972,0)" xlink:href="#bP"/><use transform="matrix(0.018,0,0,0.018,14.148,0)" xlink:href="#bP"/></g><path fill="#333" d="M55-256c0-221 198-309 387-211l-25 25v-268h72v624C478-1 377 15 287 15 129 15 55-85 55-256zm76 0c1 118 34 207 157 205 49 0 120-9 129-42v-313c-35-21-83-34-134-35-110 1-151 75-152 185" id="cW"/><g id="U"><use transform="matrix(0.018,0,0,0.018,0,0)" xlink:href="#bP"/><use transform="matrix(0.018,0,0,0.018,4.175999999999999,0)" xlink:href="#bO"/><use transform="matrix(0.018,0,0,0.018,8.495999999999999,0)" xlink:href="#bR"/><use transform="matrix(0.018,0,0,0.018,16.704,0)" xlink:href="#bH"/><use transform="matrix(0.018,0,0,0.018,23.238,0)" xlink:href="#bF"/><use transform="matrix(0.018,0,0,0.018,33.084,0)" xlink:href="#cW"/></g><path fill="#333" d="M201 0L35-499h76L250-54l-19 8 132-453h69L565-58h-14l139-441h71L595 0h-73L389-442l13 12L274 0h-73" id="cX"/><path fill="#333" d="M74 112l74-196h82l-84 196H74" id="cY"/><g id="V"><use transform="matrix(0.018,0,0,0.018,0,0)" xlink:href="#cX"/><use transform="matrix(0.018,0,0,0.018,13.878,0)" xlink:href="#bC"/><use transform="matrix(0.018,0,0,0.018,24.119999999999997,0)" xlink:href="#bG"/><use transform="matrix(0.018,0,0,0.018,30.275999999999996,0)" xlink:href="#cW"/><use transform="matrix(0.018,0,0,0.018,40.517999999999994,0)" xlink:href="#bR"/><use transform="matrix(0.018,0,0,0.018,48.725999999999985,0)" xlink:href="#cY"/></g><g id="W"><use transform="matrix(0.018,0,0,0.018,0,0)" xlink:href="#bT"/><use transform="matrix(0.018,0,0,0.018,9.972,0)" xlink:href="#bQ"/><use transform="matrix(0.018,0,0,0.018,20.214,0)" xlink:href="#bQ"/><use transform="matrix(0.018,0,0,0.018,30.455999999999996,0)" xlink:href="#bF"/><use transform="matrix(0.018,0,0,0.018,40.301999999999985,0)" xlink:href="#bD"/><use transform="matrix(0.018,0,0,0.018,50.54399999999999,0)" xlink:href="#cW"/><use transform="matrix(0.018,0,0,0.018,60.78599999999999,0)" xlink:href="#bF"/><use transform="matrix(0.018,0,0,0.018,70.63199999999999,0)" xlink:href="#cW"/></g><g id="X"><use transform="matrix(0.018,0,0,0.018,0,0)" xlink:href="#bF"/><use transform="matrix(0.018,0,0,0.018,9.846,0)" xlink:href="#bT"/><use transform="matrix(0.018,0,0,0.018,19.817999999999998,0)" xlink:href="#bB"/><use transform="matrix(0.018,0,0,0.018,28.674,0)" xlink:href="#bU"/></g><g id="Y"><use transform="matrix(0.018,0,0,0.018,0,0)" xlink:href="#cX"/><use transform="matrix(0.018,0,0,0.018,13.878,0)" xlink:href="#bC"/><use transform="matrix(0.018,0,0,0.018,24.119999999999997,0)" xlink:href="#bG"/><use transform="matrix(0.018,0,0,0.018,30.275999999999996,0)" xlink:href="#cW"/></g><g id="Z"><use transform="matrix(0.018,0,0,0.018,0,0)" xlink:href="#bO"/><use transform="matrix(0.018,0,0,0.018,4.319999999999999,0)" xlink:href="#bD"/></g><g id="aa"><use transform="matrix(0.018,0,0,0.018,0,0)" xlink:href="#bH"/><use transform="matrix(0.018,0,0,0.018,6.534,0)" xlink:href="#bU"/><use transform="matrix(0.018,0,0,0.018,16.884,0)" xlink:href="#bF"/></g><path fill="#333" d="M291-508c132-2 197 56 198 183V0h-72v-325c-1-81-47-120-134-118-48 0-91 8-131 20V0H80v-459c58-29 125-49 211-49zm306 65c-54 1-93 15-131 40l-72-36c55-42 120-68 211-69 132-2 197 56 198 183V0h-72v-325c-1-81-47-120-134-118" id="cZ"/><g id="ab"><use transform="matrix(0.018,0,0,0.018,0,0)" xlink:href="#bP"/><use transform="matrix(0.018,0,0,0.018,4.175999999999999,0)" xlink:href="#bF"/><use transform="matrix(0.018,0,0,0.018,14.021999999999998,0)" xlink:href="#cZ"/><use transform="matrix(0.018,0,0,0.018,29.915999999999997,0)" xlink:href="#cZ"/><use transform="matrix(0.018,0,0,0.018,45.809999999999995,0)" xlink:href="#bT"/></g><g id="ac"><use transform="matrix(0.018,0,0,0.018,0,0)" xlink:href="#bB"/><use transform="matrix(0.018,0,0,0.018,8.856,0)" xlink:href="#bC"/><use transform="matrix(0.018,0,0,0.018,19.098,0)" xlink:href="#bP"/><use transform="matrix(0.018,0,0,0.018,23.273999999999997,0)" xlink:href="#bN"/><use transform="matrix(0.018,0,0,0.018,33.678,0)" xlink:href="#cZ"/><use transform="matrix(0.018,0,0,0.018,49.571999999999996,0)" xlink:href="#bD"/></g><path fill="#333" d="M85 0v-667h72v597h341V0H85" id="da"/><path fill="#333" d="M442-25C402-5 340 13 283 15 127 14 57-81 55-236c-1-177 80-271 247-271 95 0 187 29 187 124V21c-4 125-83 178-217 177-53 1-102-13-142-23v-68c40 10 82 24 134 23 95 1 150-24 153-107v-73zM131-236c1 107 41 187 152 185 51-1 99-14 134-35v-287c0-59-55-66-113-68-132-4-172 81-173 205" id="db"/><g id="ad"><use transform="matrix(0.018,0,0,0.018,0,0)" xlink:href="#da"/><use transform="matrix(0.018,0,0,0.018,9.414,0)" xlink:href="#bC"/><use transform="matrix(0.018,0,0,0.018,19.656,0)" xlink:href="#bD"/><use transform="matrix(0.018,0,0,0.018,29.897999999999996,0)" xlink:href="#db"/></g><path fill="#333" d="M602-42C535-10 461 9 369 10 154 9 60-116 60-334s94-341 309-342c82 1 151 17 210 45v75c-57-24-124-52-202-52-175-1-246 96-245 274-1 178 70 276 245 275 58 0 107-9 153-24v-190H369v-70h233v301" id="dc"/><g id="ae"><use transform="matrix(0.018,0,0,0.018,0,0)" xlink:href="#dc"/><use transform="matrix(0.018,0,0,0.018,12.366,0)" xlink:href="#bF"/><use transform="matrix(0.018,0,0,0.018,22.212,0)" xlink:href="#bD"/><use transform="matrix(0.018,0,0,0.018,32.454,0)" xlink:href="#bF"/><use transform="matrix(0.018,0,0,0.018,42.3,0)" xlink:href="#bG"/><use transform="matrix(0.018,0,0,0.018,49.086,0)" xlink:href="#bO"/><use transform="matrix(0.018,0,0,0.018,53.406,0)" xlink:href="#bB"/></g><g id="af"><use transform="matrix(0.018,0,0,0.018,0,0)" xlink:href="#bR"/><use transform="matrix(0.018,0,0,0.018,8.208,0)" xlink:href="#bH"/><use transform="matrix(0.018,0,0,0.018,14.742,0)" xlink:href="#bC"/><use transform="matrix(0.018,0,0,0.018,24.984,0)" xlink:href="#bQ"/><use transform="matrix(0.018,0,0,0.018,34.776,0)" xlink:href="#cX"/><use transform="matrix(0.018,0,0,0.018,48.653999999999996,0)" xlink:href="#bC"/><use transform="matrix(0.018,0,0,0.018,58.895999999999994,0)" xlink:href="#bG"/><use transform="matrix(0.018,0,0,0.018,65.05199999999999,0)" xlink:href="#cW"/></g><g id="ag"><use transform="matrix(0.018,0,0,0.018,0,0)" xlink:href="#bP"/><use transform="matrix(0.018,0,0,0.018,4.175999999999999,0)" xlink:href="#bO"/><use transform="matrix(0.018,0,0,0.018,8.495999999999999,0)" xlink:href="#bR"/><use transform="matrix(0.018,0,0,0.018,16.704,0)" xlink:href="#bH"/></g><path fill="#333" d="M261 0v-306L12-667h87l211 312-23-6 207-306h87L321-289l12-46V0h-72" id="dd"/><g id="ah"><use transform="matrix(0.018,0,0,0.018,0,0)" xlink:href="#dd"/><use transform="matrix(0.018,0,0,0.018,8.963999999999999,0)" xlink:href="#bF"/><use transform="matrix(0.018,0,0,0.018,18.81,0)" xlink:href="#bR"/></g><path fill="#333" d="M85 0v-667h82L583-80l-18 28v-615h72V0h-81L124-609l33-31V0H85" id="de"/><g id="ai"><use transform="matrix(0.018,0,0,0.018,0,0)" xlink:href="#de"/><use transform="matrix(0.018,0,0,0.018,12.995999999999999,0)" xlink:href="#bC"/></g><path fill="#333" d="M20 0l266-667h72L623 0h-77L315-600l15-2L98 0H20zm117-208l31-69h327l5 69H137" id="df"/><path fill="#333" d="M85 0v-667h72V0H85" id="dg"/><path fill="#333" d="M79-263v-70h305v70H79" id="dh"/><path fill="#333" d="M236 0v-592l-133 88v-85l123-78h82V0h-72" id="di"/><path fill="#333" d="M519-217C515-78 439 8 292 8 123 8 65-119 65-305c0-227 94-361 304-371 36 0 70 5 97 13v67c-26-7-55-12-89-12-154 14-240 106-240 279 2 148 16 267 155 269 106 2 153-63 155-158 2-93-59-143-155-142-75-1-131 35-168 68l1-80c43-27 96-55 167-55 134-2 231 79 227 210" id="dj"/><path fill="#333" d="M506-204C508-60 429 5 294 8 214 9 152-9 103-33v-75c46 26 108 47 186 46 101 2 146-46 146-142 0-104-51-140-146-140-67-1-118 11-157 31l-45-46 34-308h343v71H183l-19 215-71 12c47-30 126-47 201-47 135 3 214 68 212 212" id="dk"/><g id="aj"><use transform="matrix(0.018,0,0,0.018,0,0)" xlink:href="#df"/><use transform="matrix(0.018,0,0,0.018,11.574,0)" xlink:href="#bM"/><use transform="matrix(0.018,0,0,0.018,21.276,0)" xlink:href="#dg"/><use transform="matrix(0.018,0,0,0.018,25.631999999999998,0)" xlink:href="#de"/><use transform="matrix(0.018,0,0,0.018,38.628,0)" xlink:href="#de"/><use transform="matrix(0.018,0,0,0.018,51.623999999999995,0)" xlink:href="#dh"/><use transform="matrix(0.018,0,0,0.018,59.97599999999999,0)" xlink:href="#di"/><use transform="matrix(0.018,0,0,0.018,68.094,0)" xlink:href="#dj"/><use transform="matrix(0.018,0,0,0.018,78.588,0)" xlink:href="#dk"/></g><g id="ak"><use transform="matrix(0.018,0,0,0.018,0,0)" xlink:href="#cX"/><use transform="matrix(0.018,0,0,0.018,13.878,0)" xlink:href="#bC"/><use transform="matrix(0.018,0,0,0.018,24.119999999999997,0)" xlink:href="#bG"/><use transform="matrix(0.018,0,0,0.018,30.275999999999996,0)" xlink:href="#cW"/></g><g id="al"><use transform="matrix(0.018,0,0,0.018,0,0)" xlink:href="#bP"/><use transform="matrix(0.018,0,0,0.018,4.175999999999999,0)" xlink:href="#bO"/><use transform="matrix(0.018,0,0,0.018,8.495999999999999,0)" xlink:href="#bR"/><use transform="matrix(0.018,0,0,0.018,16.704,0)" xlink:href="#bH"/></g><g id="am"><use transform="matrix(0.018,0,0,0.018,0,0)" xlink:href="#bt"/><use transform="matrix(0.018,0,0,0.018,12.761999999999999,0)" xlink:href="#bu"/><use transform="matrix(0.018,0,0,0.018,22.877999999999997,0)" xlink:href="#cc"/><use transform="matrix(0.018,0,0,0.018,39.366,0)" xlink:href="#bw"/><use transform="matrix(0.018,0,0,0.018,49.428,0)" xlink:href="#cO"/><use transform="matrix(0.018,0,0,0.018,60.047999999999995,0)" xlink:href="#bu"/></g><g id="an"><use transform="matrix(0.018,0,0,0.018,0,0)" xlink:href="#bY"/><use transform="matrix(0.018,0,0,0.018,14.309999999999999,0)" xlink:href="#bw"/><use transform="matrix(0.018,0,0,0.018,24.93,0)" xlink:href="#bx"/><use transform="matrix(0.018,0,0,0.018,32.327999999999996,0)" xlink:href="#bZ"/></g><g id="ao"><use transform="matrix(0.018,0,0,0.018,0,0)" xlink:href="#ck"/><use transform="matrix(0.018,0,0,0.018,7.092,0)" xlink:href="#bx"/><use transform="matrix(0.018,0,0,0.018,14.489999999999998,0)" xlink:href="#bw"/><use transform="matrix(0.018,0,0,0.018,25.11,0)" xlink:href="#cc"/></g><g id="ap"><use transform="matrix(0.018,0,0,0.018,0,0)" xlink:href="#cg"/><use transform="matrix(0.018,0,0,0.018,5.04,0)" xlink:href="#bX"/><use transform="matrix(0.018,0,0,0.018,10.187999999999999,0)" xlink:href="#bL"/><use transform="matrix(0.018,0,0,0.018,18.863999999999997,0)" xlink:href="#by"/></g><path fill="#fff" d="M578-34C522-7 447 12 366 13 146 11 35-104 37-333c0-226 103-349 329-349 81 1 152 22 212 49v141c-57-37-112-61-190-64-136 0-184 81-183 223-2 145 51 221 190 220 73-3 129-26 183-62v141" id="dl"/><path fill="#fff" d="M182-279l186-227h181L268-209zM214 0H66v-697h150zm81-344L562 0H373L189-243" id="dm"/><g id="aq"><use transform="matrix(0.018,0,0,0.018,0,0)" xlink:href="#dl"/><use transform="matrix(0.018,0,0,0.018,11.34,0)" xlink:href="#ch"/><use transform="matrix(0.018,0,0,0.018,22.338,0)" xlink:href="#bu"/><use transform="matrix(0.018,0,0,0.018,32.454,0)" xlink:href="#cd"/><use transform="matrix(0.018,0,0,0.018,41.49,0)" xlink:href="#dm"/></g><g id="ar"><use transform="matrix(0.018,0,0,0.018,0,0)" xlink:href="#ck"/><use transform="matrix(0.018,0,0,0.018,6.786,0)" xlink:href="#bw"/><use transform="matrix(0.018,0,0,0.018,17.406,0)" xlink:href="#bx"/></g><g id="as"><use transform="matrix(0.018,0,0,0.018,0,0)" xlink:href="#bY"/><use transform="matrix(0.018,0,0,0.018,14.309999999999999,0)" xlink:href="#bw"/><use transform="matrix(0.018,0,0,0.018,24.93,0)" xlink:href="#bx"/><use transform="matrix(0.018,0,0,0.018,32.327999999999996,0)" xlink:href="#bZ"/></g><g id="at"><use transform="matrix(0.018,0,0,0.018,0,0)" xlink:href="#bX"/><use transform="matrix(0.018,0,0,0.018,5.148,0)" xlink:href="#bK"/></g><path fill="#fff" d="M71 0v-667h454v125H233v159h252v127H233V0H71" id="dn"/><path fill="#fff" d="M71 0v-667h162V0H71" id="do"/><g id="au"><use transform="matrix(0.018,0,0,0.018,0,0)" xlink:href="#cS"/><use transform="matrix(0.018,0,0,0.018,12.437999999999999,0)" xlink:href="#dn"/><use transform="matrix(0.018,0,0,0.018,22.698000000000004,0)" xlink:href="#do"/><use transform="matrix(0.018,0,0,0.018,28.17,0)" xlink:href="#bI"/><use transform="matrix(0.018,0,0,0.018,41.202,0)" xlink:href="#bI"/></g><g id="av"><use transform="matrix(0.018,0,0,0.018,0,0)" xlink:href="#bX"/><use transform="matrix(0.018,0,0,0.018,5.148,0)" xlink:href="#bK"/></g><g id="aw"><use transform="matrix(0.018,0,0,0.018,0,0)" xlink:href="#cS"/><use transform="matrix(0.018,0,0,0.018,12.437999999999999,0)" xlink:href="#dn"/><use transform="matrix(0.018,0,0,0.018,22.698000000000004,0)" xlink:href="#do"/><use transform="matrix(0.018,0,0,0.018,28.17,0)" xlink:href="#bI"/><use transform="matrix(0.018,0,0,0.018,41.202,0)" xlink:href="#bI"/><use transform="matrix(0.018,0,0,0.018,54.233999999999995,0)" xlink:href="#cn"/></g><g id="ax"><use transform="matrix(0.018,0,0,0.018,0,0)" xlink:href="#bL"/><use transform="matrix(0.018,0,0,0.018,8.676,0)" xlink:href="#bX"/><use transform="matrix(0.018,0,0,0.018,13.823999999999998,0)" xlink:href="#cc"/><use transform="matrix(0.018,0,0,0.018,30.311999999999998,0)" xlink:href="#bX"/><use transform="matrix(0.018,0,0,0.018,35.459999999999994,0)" xlink:href="#cg"/><use transform="matrix(0.018,0,0,0.018,40.5,0)" xlink:href="#ca"/><use transform="matrix(0.018,0,0,0.018,50.796,0)" xlink:href="#bx"/><use transform="matrix(0.018,0,0,0.018,58.49999999999999,0)" xlink:href="#bX"/><use transform="matrix(0.018,0,0,0.018,63.647999999999996,0)" xlink:href="#by"/><use transform="matrix(0.018,0,0,0.018,71.082,0)" xlink:href="#cm"/></g><g id="ay"><use transform="matrix(0.018,0,0,0.018,0,0)" xlink:href="#bY"/><use transform="matrix(0.018,0,0,0.018,14.886,0)" xlink:href="#bX"/><use transform="matrix(0.018,0,0,0.018,20.034,0)" xlink:href="#by"/><use transform="matrix(0.018,0,0,0.018,27.467999999999996,0)" xlink:href="#ch"/></g><g id="az"><use transform="matrix(0.018,0,0,0.018,0,0)" xlink:href="#cS"/><use transform="matrix(0.018,0,0,0.018,12.437999999999999,0)" xlink:href="#dn"/><use transform="matrix(0.018,0,0,0.018,22.698000000000004,0)" xlink:href="#do"/><use transform="matrix(0.018,0,0,0.018,28.17,0)" xlink:href="#bI"/><use transform="matrix(0.018,0,0,0.018,41.202,0)" xlink:href="#bI"/></g><g id="aA"><use transform="matrix(0.018,0,0,0.018,0,0)" xlink:href="#cg"/><use transform="matrix(0.018,0,0,0.018,5.04,0)" xlink:href="#bX"/><use transform="matrix(0.018,0,0,0.018,10.187999999999999,0)" xlink:href="#bL"/><use transform="matrix(0.018,0,0,0.018,18.863999999999997,0)" xlink:href="#by"/><use transform="matrix(0.018,0,0,0.018,26.297999999999995,0)" xlink:href="#bu"/><use transform="matrix(0.018,0,0,0.018,36.413999999999994,0)" xlink:href="#bZ"/></g><g id="aB"><use transform="matrix(0.018,0,0,0.018,0,0)" xlink:href="#bY"/><use transform="matrix(0.018,0,0,0.018,14.309999999999999,0)" xlink:href="#bw"/><use transform="matrix(0.018,0,0,0.018,24.93,0)" xlink:href="#bx"/><use transform="matrix(0.018,0,0,0.018,32.327999999999996,0)" xlink:href="#bZ"/><use transform="matrix(0.018,0,0,0.018,43.28999999999999,0)" xlink:href="#bL"/></g><g id="aC"><use transform="matrix(0.018,0,0,0.018,0,0)" xlink:href="#ck"/><use transform="matrix(0.018,0,0,0.018,6.786,0)" xlink:href="#bw"/><use transform="matrix(0.018,0,0,0.018,17.406,0)" xlink:href="#bx"/></g><g id="aD"><use transform="matrix(0.018,0,0,0.018,0,0)" xlink:href="#cL"/><use transform="matrix(0.018,0,0,0.018,11.952,0)" xlink:href="#cM"/><use transform="matrix(0.018,0,0,0.018,25.217999999999996,0)" xlink:href="#cJ"/></g><g id="aE"><use transform="matrix(0.018,0,0,0.018,0,0)" xlink:href="#bw"/><use transform="matrix(0.018,0,0,0.018,10.62,0)" xlink:href="#ck"/></g><g id="aF"><use transform="matrix(0.018,0,0,0.018,0,0)" xlink:href="#bY"/><use transform="matrix(0.018,0,0,0.018,14.309999999999999,0)" xlink:href="#bw"/><use transform="matrix(0.018,0,0,0.018,24.93,0)" xlink:href="#bx"/><use transform="matrix(0.018,0,0,0.018,32.327999999999996,0)" xlink:href="#bZ"/></g><use transform="matrix(0.018,0,0,0.018,0,0)" xlink:href="#ca" id="aG"/><g id="aH"><use transform="matrix(0.018,0,0,0.018,0,0)" xlink:href="#cO"/><use transform="matrix(0.018,0,0,0.018,10.62,0)" xlink:href="#bu"/><use transform="matrix(0.018,0,0,0.018,20.735999999999997,0)" xlink:href="#bx"/><use transform="matrix(0.018,0,0,0.018,28.439999999999998,0)" xlink:href="#cP"/><use transform="matrix(0.018,0,0,0.018,39.257999999999996,0)" xlink:href="#cb"/><use transform="matrix(0.018,0,0,0.018,47.267999999999994,0)" xlink:href="#ca"/><use transform="matrix(0.018,0,0,0.018,57.56399999999999,0)" xlink:href="#bZ"/><use transform="matrix(0.018,0,0,0.018,68.526,0)" xlink:href="#cO"/><use transform="matrix(0.018,0,0,0.018,79.146,0)" xlink:href="#bu"/><use transform="matrix(0.018,0,0,0.018,89.26199999999999,0)" xlink:href="#bx"/><use transform="matrix(0.018,0,0,0.018,96.96599999999998,0)" xlink:href="#cP"/><use transform="matrix(0.018,0,0,0.018,107.78399999999998,0)" xlink:href="#cb"/></g><g id="aI"><use transform="matrix(0.018,0,0,0.018,0,0)" xlink:href="#ca"/><use transform="matrix(0.018,0,0,0.018,10.296,0)" xlink:href="#bZ"/><use transform="matrix(0.018,0,0,0.018,21.258,0)" xlink:href="#cQ"/><use transform="matrix(0.018,0,0,0.018,26.729999999999997,0)" xlink:href="#bu"/><use transform="matrix(0.018,0,0,0.018,36.846,0)" xlink:href="#cd"/><use transform="matrix(0.018,0,0,0.018,45.882,0)" xlink:href="#by"/><use transform="matrix(0.018,0,0,0.018,53.315999999999995,0)" xlink:href="#bX"/><use transform="matrix(0.018,0,0,0.018,58.464,0)" xlink:href="#cO"/><use transform="matrix(0.018,0,0,0.018,69.084,0)" xlink:href="#bu"/><use transform="matrix(0.018,0,0,0.018,79.20000000000002,0)" xlink:href="#cn"/></g><g id="aJ"><use transform="matrix(0.018,0,0,0.018,0,0)" xlink:href="#do"/><use transform="matrix(0.018,0,0,0.018,5.4719999999999995,0)" xlink:href="#ck"/></g><g id="aK"><use transform="matrix(0.018,0,0,0.018,0,0)" xlink:href="#bL"/><use transform="matrix(0.018,0,0,0.018,8.676,0)" xlink:href="#bX"/><use transform="matrix(0.018,0,0,0.018,13.823999999999998,0)" xlink:href="#cc"/><use transform="matrix(0.018,0,0,0.018,30.311999999999998,0)" xlink:href="#bX"/><use transform="matrix(0.018,0,0,0.018,35.459999999999994,0)" xlink:href="#cg"/><use transform="matrix(0.018,0,0,0.018,40.5,0)" xlink:href="#ca"/><use transform="matrix(0.018,0,0,0.018,50.796,0)" xlink:href="#bx"/><use transform="matrix(0.018,0,0,0.018,58.49999999999999,0)" xlink:href="#cm"/></g><path fill="#fff" d="M121-39v-119l270-110-270-110v-119l418 187v84" id="dp"/><use transform="matrix(0.018,0,0,0.018,0,0)" xlink:href="#dp" id="aL"/><path fill="#fff" d="M581-213C581-57 470 10 306 12 116 12 45-113 44-308c0-237 105-367 330-372 58-1 109 9 145 25v135c-40-18-76-30-133-30-128 2-180 84-180 213 0 115 6 213 112 217 65-1 97-36 100-97 1-65-35-102-96-102-73 0-105 39-119 98l-36-68c25-80 78-146 183-148 153 1 231 73 231 224" id="dq"/><path fill="#fff" d="M355-495c-1 120-45 184-165 184-119 0-164-65-165-184 1-119 46-184 165-184 120 0 164 64 165 184zm-224 0c0 56 12 99 59 99s57-44 58-99c0-57-12-94-58-99-46 5-59 42-59 99zm666 322C796-53 752 11 632 11c-119 0-164-65-165-184 1-119 46-184 165-184 120 0 164 64 165 184zm-224 0c0 56 12 99 59 99s57-44 58-99c0-57-12-94-58-99-46 5-59 42-59 99zM152 22l407-707h107L259 22H152" id="dr"/><path fill="#fff" d="M74 112l74-196h122l-92 196H74" id="ds"/><g id="aM"><use transform="matrix(0.018,0,0,0.018,0,0)" xlink:href="#dq"/><use transform="matrix(0.018,0,0,0.018,11.25,0)" xlink:href="#cj"/><use transform="matrix(0.018,0,0,0.018,23.238,0)" xlink:href="#dr"/><use transform="matrix(0.018,0,0,0.018,38.034,0)" xlink:href="#ds"/></g><g id="aN"><use transform="matrix(0.018,0,0,0.018,0,0)" xlink:href="#cK"/><use transform="matrix(0.018,0,0,0.018,10.674,0)" xlink:href="#bX"/><use transform="matrix(0.018,0,0,0.018,15.822,0)" xlink:href="#cO"/><use transform="matrix(0.018,0,0,0.018,26.442000000000004,0)" xlink:href="#bu"/></g><g id="aO"><use transform="matrix(0.018,0,0,0.018,0,0)" xlink:href="#bL"/><use transform="matrix(0.018,0,0,0.018,8.676,0)" xlink:href="#ca"/><use transform="matrix(0.018,0,0,0.018,18.972,0)" xlink:href="#cc"/><use transform="matrix(0.018,0,0,0.018,35.46,0)" xlink:href="#bu"/></g><g id="aP"><use transform="matrix(0.018,0,0,0.018,0,0)" xlink:href="#bL"/><use transform="matrix(0.018,0,0,0.018,8.676,0)" xlink:href="#bu"/><use transform="matrix(0.018,0,0,0.018,18.792,0)" xlink:href="#bK"/><use transform="matrix(0.018,0,0,0.018,29.754,0)" xlink:href="#by"/><use transform="matrix(0.018,0,0,0.018,37.188,0)" xlink:href="#bX"/><use transform="matrix(0.018,0,0,0.018,42.336,0)" xlink:href="#cc"/><use transform="matrix(0.018,0,0,0.018,58.824,0)" xlink:href="#bu"/><use transform="matrix(0.018,0,0,0.018,68.94,0)" xlink:href="#bK"/><use transform="matrix(0.018,0,0,0.018,79.902,0)" xlink:href="#by"/></g><g id="aQ"><use transform="matrix(0.018,0,0,0.018,0,0)" xlink:href="#ca"/><use transform="matrix(0.018,0,0,0.018,10.296,0)" xlink:href="#bL"/></g><g id="aR"><use transform="matrix(0.018,0,0,0.018,0,0)" xlink:href="#cS"/><use transform="matrix(0.018,0,0,0.018,12.437999999999999,0)" xlink:href="#dn"/><use transform="matrix(0.018,0,0,0.018,22.698000000000004,0)" xlink:href="#do"/><use transform="matrix(0.018,0,0,0.018,28.17,0)" xlink:href="#bI"/><use transform="matrix(0.018,0,0,0.018,41.202,0)" xlink:href="#bI"/></g><g id="aS"><use transform="matrix(0.018,0,0,0.018,0,0)" xlink:href="#cS"/><use transform="matrix(0.018,0,0,0.018,12.437999999999999,0)" xlink:href="#bv"/><use transform="matrix(0.018,0,0,0.018,23.255999999999997,0)" xlink:href="#bv"/><use transform="matrix(0.018,0,0,0.018,34.074,0)" xlink:href="#bu"/><use transform="matrix(0.018,0,0,0.018,44.19,0)" xlink:href="#bK"/><use transform="matrix(0.018,0,0,0.018,55.152,0)" xlink:href="#bZ"/></g><g id="aT"><use transform="matrix(0.018,0,0,0.018,0,0)" xlink:href="#bL"/><use transform="matrix(0.018,0,0,0.018,8.676,0)" xlink:href="#bu"/><use transform="matrix(0.018,0,0,0.018,18.792,0)" xlink:href="#bK"/><use transform="matrix(0.018,0,0,0.018,29.754,0)" xlink:href="#by"/><use transform="matrix(0.018,0,0,0.018,37.188,0)" xlink:href="#bX"/><use transform="matrix(0.018,0,0,0.018,42.336,0)" xlink:href="#cc"/><use transform="matrix(0.018,0,0,0.018,58.824,0)" xlink:href="#bu"/><use transform="matrix(0.018,0,0,0.018,68.94,0)" xlink:href="#bK"/><use transform="matrix(0.018,0,0,0.018,79.902,0)" xlink:href="#by"/></g><g id="aU"><use transform="matrix(0.018,0,0,0.018,0,0)" xlink:href="#bx"/><use transform="matrix(0.018,0,0,0.018,7.704,0)" xlink:href="#ca"/><use transform="matrix(0.018,0,0,0.018,18,0)" xlink:href="#by"/><use transform="matrix(0.018,0,0,0.018,25.433999999999997,0)" xlink:href="#bX"/><use transform="matrix(0.018,0,0,0.018,30.581999999999997,0)" xlink:href="#bK"/><use transform="matrix(0.018,0,0,0.018,41.544,0)" xlink:href="#cK"/></g><g id="aV"><use transform="matrix(0.018,0,0,0.018,0,0)" xlink:href="#bX"/><use transform="matrix(0.018,0,0,0.018,5.148,0)" xlink:href="#ck"/></g><g id="aW"><use transform="matrix(0.018,0,0,0.018,0,0)" xlink:href="#bK"/><use transform="matrix(0.018,0,0,0.018,10.962,0)" xlink:href="#bw"/><use transform="matrix(0.018,0,0,0.018,21.582,0)" xlink:href="#bJ"/><use transform="matrix(0.018,0,0,0.018,32.4,0)" xlink:href="#bK"/></g><g id="aX"><use transform="matrix(0.018,0,0,0.018,0,0)" xlink:href="#bL"/><use transform="matrix(0.018,0,0,0.018,8.676,0)" xlink:href="#bX"/><use transform="matrix(0.018,0,0,0.018,13.823999999999998,0)" xlink:href="#cc"/><use transform="matrix(0.018,0,0,0.018,30.311999999999998,0)" xlink:href="#bX"/><use transform="matrix(0.018,0,0,0.018,35.459999999999994,0)" xlink:href="#cg"/><use transform="matrix(0.018,0,0,0.018,40.5,0)" xlink:href="#ca"/><use transform="matrix(0.018,0,0,0.018,50.796,0)" xlink:href="#bx"/><use transform="matrix(0.018,0,0,0.018,58.49999999999999,0)" xlink:href="#bX"/><use transform="matrix(0.018,0,0,0.018,63.647999999999996,0)" xlink:href="#by"/><use transform="matrix(0.018,0,0,0.018,71.082,0)" xlink:href="#cm"/></g><path fill="#fff" d="M326 0v-179H39v-116l299-372h151v366h84v122h-84V0H326zM177-301h149v-185" id="dt"/><g id="aY"><use transform="matrix(0.018,0,0,0.018,0,0)" xlink:href="#dt"/><use transform="matrix(0.018,0,0,0.018,10.979999999999999,0)" xlink:href="#cj"/><use transform="matrix(0.018,0,0,0.018,22.968,0)" xlink:href="#dr"/></g><g id="aZ"><use transform="matrix(0.018,0,0,0.018,0,0)" xlink:href="#by"/><use transform="matrix(0.018,0,0,0.018,7.433999999999999,0)" xlink:href="#bw"/></g><path fill="#fff" d="M635-58c-74 40-161 71-267 72C149 12 41-106 42-333c-1-226 109-346 326-349 91 0 170 21 238 49v147c-70-34-127-67-218-69-135 0-182 80-180 221-1 137 45 220 173 222 36 0 68-4 92-16v-118H363v-126h272v314" id="du"/><g id="ba"><use transform="matrix(0.018,0,0,0.018,0,0)" xlink:href="#du"/><use transform="matrix(0.018,0,0,0.018,12.707999999999998,0)" xlink:href="#bt"/><use transform="matrix(0.018,0,0,0.018,25.47,0)" xlink:href="#do"/></g><g id="bb"><use transform="matrix(0.018,0,0,0.018,0,0)" xlink:href="#cK"/><use transform="matrix(0.018,0,0,0.018,10.674,0)" xlink:href="#cg"/><use transform="matrix(0.018,0,0,0.018,15.713999999999999,0)" xlink:href="#bw"/><use transform="matrix(0.018,0,0,0.018,26.334,0)" xlink:href="#bL"/><use transform="matrix(0.018,0,0,0.018,35.01,0)" xlink:href="#bL"/><use transform="matrix(0.018,0,0,0.018,43.686,0)" xlink:href="#ca"/><use transform="matrix(0.018,0,0,0.018,53.982,0)" xlink:href="#bx"/><use transform="matrix(0.018,0,0,0.018,61.68600000000001,0)" xlink:href="#cm"/></g><g id="bc"><use transform="matrix(0.018,0,0,0.018,0,0)" xlink:href="#bK"/><use transform="matrix(0.018,0,0,0.018,10.962,0)" xlink:href="#bw"/><use transform="matrix(0.018,0,0,0.018,21.582,0)" xlink:href="#bJ"/><use transform="matrix(0.018,0,0,0.018,32.4,0)" xlink:href="#bK"/><use transform="matrix(0.018,0,0,0.018,43.361999999999995,0)" xlink:href="#bL"/><use transform="matrix(0.018,0,0,0.018,52.038,0)" xlink:href="#ds"/></g><g id="bd"><use transform="matrix(0.018,0,0,0.018,0,0)" xlink:href="#ca"/><use transform="matrix(0.018,0,0,0.018,10.296,0)" xlink:href="#bv"/><use transform="matrix(0.018,0,0,0.018,21.113999999999997,0)" xlink:href="#bv"/><use transform="matrix(0.018,0,0,0.018,31.931999999999995,0)" xlink:href="#bu"/><use transform="matrix(0.018,0,0,0.018,42.047999999999995,0)" xlink:href="#bK"/><use transform="matrix(0.018,0,0,0.018,53.00999999999999,0)" xlink:href="#bZ"/></g></defs></g></svg>