<svg xmlns="http://www.w3.org/2000/svg" xmlns:xlink="http://www.w3.org/1999/xlink" xmlns:lucid="lucid" width="1870.4" height="1323.2"><g transform="translate(0 0)" lucid:page-tab-id="cPcg6N2oS5eP"><path d="M314 190c19.88 0 36 20.15 36 45s-16.12 45-36 45H206c-19.88 0-36-20.15-36-45s16.12-45 36-45z" stroke="#372173" stroke-width="2" fill="#fff"/><use xlink:href="#a" transform="matrix(1,0,0,1,175,195) translate(47.299 46.795)"/><path d="M170 420.5c0-4.42 3.58-8 8-8h164c4.42 0 8 3.58 8 8v119c0 4.42-3.58 8-8 8H178c-4.42 0-8-3.58-8-8z" stroke="#333" fill="#372173"/><use xlink:href="#b" transform="matrix(1,0,0,1,175,417.5) translate(6.619 58.72)"/><use xlink:href="#c" transform="matrix(1,0,0,1,175,417.5) translate(56.821 58.72)"/><use xlink:href="#d" transform="matrix(1,0,0,1,175,417.5) translate(66.406 79.87)"/><path d="M498.85 448.53c1.13-4.27 5.64-7.73 10.06-7.73H612c4.42 0 7.08 3.46 5.94 7.73l-16.8 62.94c-1.12 4.27-5.63 7.73-10.05 7.73H488c-4.42 0-7.08-3.46-5.94-7.73z" stroke="#372173" stroke-opacity=".4" fill="#372173" fill-opacity=".4"/><use xlink:href="#e" transform="matrix(1,0,0,1,485,445.79999999999995) translate(37.532000000000004 41.295)"/><path d="M693.93 748.06c3.35-2.87 8.8-2.87 12.14 0l67.86 58.16c3.35 2.88 3.35 7.54 0 10.4l-67.86 58.17c-3.35 2.87-8.8 2.87-12.14 0l-67.86-58.17c-3.35-2.87-3.35-7.53 0-10.4z" stroke="#333" fill="#333"/><use xlink:href="#f" transform="matrix(1,0,0,1,625,747.8571428571429) translate(43.959 60.22)"/><use xlink:href="#g" transform="matrix(1,0,0,1,625,747.8571428571429) translate(62.751000000000005 60.22)"/><use xlink:href="#h" transform="matrix(1,0,0,1,625,747.8571428571429) translate(21.504000000000005 81.37)"/><path d="M700.5 1043.12h-1v-64.1h1zm0-85.26h-1v-79.98h1z" fill="#333"/><path d="M700.5 877.9h-1v-.5l1-.05zM700 1057.88l-4.64-14.26h9.28z" fill="#333"/><path d="M700 1059.5l-5.32-16.38h10.64zm-3.95-15.38l3.95 12.14 3.95-12.14z" fill="#333"/><use xlink:href="#i" transform="matrix(1,0,0,1,686.491,957.8648781595282) translate(0.005000000000000782 17.37)"/><path d="M795.4 180.5h-83.37l-3 .4-2.77 1.14-2.4 1.83-1.82 2.4-1.14 2.75-.4 3V745h-1v-553l.42-3.22 1.24-3 2-2.6 2.6-2 3-1.24 3.2-.42h83.43zm667.72 0h-644.5v-1h644.5z" fill="#333"/><path d="M700.5 745.45l-1 .05v-.54h1zM1477.88 180l-14.26 4.64v-9.28z" fill="#333"/><path d="M1479.5 180l-16.38 5.32v-10.64zm-15.38 3.95l12.14-3.95-12.14-3.95z" fill="#333"/><use xlink:href="#j" transform="matrix(1,0,0,1,795.3923064450728,169.425) translate(0.005000000000000782 17.37)"/><path d="M640 1068c0-4.42 3.58-8 8-8h104c4.42 0 8 3.58 8 8v64c0 4.42-3.58 8-8 8H648c-4.42 0-8-3.58-8-8z" stroke="#333" fill="#372173"/><use xlink:href="#k" transform="matrix(1,0,0,1,645,1065) translate(36.532 41.795)"/><path d="M305.18 750.2c3.35-2.87 8.8-2.87 12.14 0l76.6 65.67c3.36 2.87 3.36 7.53 0 10.4l-76.6 65.67c-3.35 2.87-8.8 2.87-12.14 0l-76.6-65.66c-3.36-2.88-3.36-7.54 0-10.4z" stroke="#333" fill="#333"/><use xlink:href="#f" transform="matrix(1,0,0,1,227.5,750) translate(52.959 57.144999999999996)"/><use xlink:href="#g" transform="matrix(1,0,0,1,227.5,750) translate(71.751 57.144999999999996)"/><use xlink:href="#l" transform="matrix(1,0,0,1,227.5,750) translate(26.976 78.295)"/><use xlink:href="#m" transform="matrix(1,0,0,1,227.5,750) translate(133.014 78.295)"/><use xlink:href="#n" transform="matrix(1,0,0,1,227.5,750) translate(34.221000000000004 99.44500000000001)"/><path d="M311.75 1041.52h-1V986.8h1zm0-75.88h-1v-70.62h1z" fill="#333"/><path d="M311.75 895.04h-1v-.5l1-.04zM311.25 1056.28l-4.64-14.26h9.3z" fill="#333"/><path d="M311.25 1057.9l-5.32-16.38h10.64zm-3.95-15.38l3.95 12.14 3.95-12.14z" fill="#333"/><use xlink:href="#i" transform="matrix(1,0,0,1,297.741,965.6363067309683) translate(0.005000000000000782 17.37)"/><path d="M251.25 1066.4c0-4.42 3.58-8 8-8h104c4.42 0 8 3.58 8 8v64c0 4.42-3.58 8-8 8h-104c-4.42 0-8-3.58-8-8z" stroke="#372173" fill="#372173"/><use xlink:href="#o" transform="matrix(1,0,0,1,256.25,1063.4000000000233) translate(28.081000000000003 41.795)"/><path d="M650.5 688.03l-.42 3.2-1.24 3-2 2.6-2.6 2-3 1.25-3.2.42h-208.1l-3.03.4-2.74 1.14-2.4 1.83-1.83 2.4-1.14 2.75-.4 3v97.08l-.42 3.22-1.25 3-2 2.6-2.6 2-3 1.23-3.2.42h-8.53v-1h8.46l3.02-.4 2.76-1.14 2.4-1.83 1.82-2.4 1.14-2.75.4-3v-97.08l.42-3.2 1.24-3 2-2.6 2.6-2 3-1.25 3.2-.42h208.1l3.02-.4 2.76-1.14 2.4-1.83 1.82-2.4 1.14-2.75.4-3V222.9h1zM795.4 180.5H662.02l-3 .4-2.77 1.14-2.4 1.83-1.82 2.4-1.14 2.75-.4 3v9.74h-1v-9.8l.42-3.2 1.24-3 2-2.6 2.6-2 3-1.24 3.2-.42H795.4zm667.72 0h-644.5v-1h644.5z" fill="#333"/><path d="M397.4 821.57h-.53l.05-1h.5zM1477.88 180l-14.26 4.64v-9.28z" fill="#333"/><path d="M1479.5 180l-16.38 5.32v-10.64zm-15.38 3.95l12.14-3.95-12.14-3.95z" fill="#333"/><use xlink:href="#j" transform="matrix(1,0,0,1,638.381,201.76200162719965) translate(0.005000000000000782 17.37)"/><path d="M1034 725.3c3.32-2.93 8.68-2.93 12 0l88 77.97c3.32 2.93 3.32 7.68 0 10.6l-88 77.97c-3.32 2.93-8.68 2.93-12 0l-88-77.96c-3.32-2.93-3.32-7.68 0-10.6z" stroke="#333" fill="#333"/><use xlink:href="#f" transform="matrix(1,0,0,1,945,725) translate(33.724 69.645)"/><use xlink:href="#p" transform="matrix(1,0,0,1,945,725) translate(52.516 69.645)"/><use xlink:href="#q" transform="matrix(1,0,0,1,945,725) translate(56.251 90.795)"/><use xlink:href="#r" transform="matrix(1,0,0,1,945,725) translate(26.182000000000002 111.94500000000001)"/><path d="M1040.5 1041.52h-1v-54.76h1zm0-75.9h-1v-70.64h1z" fill="#333"/><path d="M1040.5 895h-1v-.5l1-.06zM1040 1056.28l-4.64-14.26h9.28z" fill="#333"/><path d="M1040 1057.9l-5.32-16.38h10.64zm-3.95-15.38l3.95 12.14 3.95-12.14z" fill="#333"/><use xlink:href="#i" transform="matrix(1,0,0,1,1026.491,965.6142749432145) translate(0.005000000000000782 17.37)"/><path d="M980 1066.4c0-4.42 3.58-8 8-8h104c4.42 0 8 3.58 8 8v64c0 4.42-3.58 8-8 8H988c-4.42 0-8-3.58-8-8z" stroke="#333" fill="#372173"/><use xlink:href="#s" transform="matrix(1,0,0,1,985,1063.4000000000233) translate(27.378999999999998 41.795)"/><path d="M1480 128c0-4.42 3.58-8 8-8h144c4.42 0 8 3.58 8 8v104c0 4.42-3.58 8-8 8h-144c-4.42 0-8-3.58-8-8z" stroke="#333" fill="#372173"/><use xlink:href="#t" transform="matrix(1,0,0,1,1485,125) translate(38.298 61.795)"/><use xlink:href="#u" transform="matrix(1,0,0,1,1485,125) translate(74.514 61.795)"/><path d="M1641 180h27.5c6.63 0 12 5.37 12 12v605.75c0 6.63-5.37 12-12 12H1622c-6.63 0-12 5.37-12 12v181.37" stroke="#333" fill="none"/><path d="M1641 180.5h-.5v-1h.5z" fill="#333"/><path d="M1610 1017.88l-4.64-14.26h9.28z" stroke="#333" fill="#333"/><path d="M1520 1028c0-4.42 3.58-8 8-8h164c4.42 0 8 3.58 8 8v102.4c0 4.42-3.58 8-8 8h-164c-4.42 0-8-3.58-8-8z" stroke="#333" fill="#372173"/><use xlink:href="#v" transform="matrix(1,0,0,1,1525,1025) translate(5.728000000000009 61.295)"/><use xlink:href="#w" transform="matrix(1,0,0,1,1525,1025) translate(99.742 61.295)"/><path d="M1334.1 743.96c3.25-2.98 8.55-2.98 11.8 0l68.2 62.08c3.25 2.98 3.25 7.8 0 10.78l-68.2 62.08c-3.25 2.97-8.55 2.97-11.8 0l-68.2-62.08c-3.25-2.98-3.25-7.8 0-10.78z" stroke="#333" fill="#333"/><use xlink:href="#f" transform="matrix(1,0,0,1,1265,743.5714285714287) translate(43.959 64.22)"/><use xlink:href="#x" transform="matrix(1,0,0,1,1265,743.5714285714287) translate(62.751000000000005 64.22)"/><use xlink:href="#y" transform="matrix(1,0,0,1,1265,743.5714285714287) translate(34.284000000000006 85.37)"/><path d="M1340.5 1043.12h-1v-62h1zm0-83.15h-1V882.1h1zM1340.5 882.1h-1v-.48l1-.08zM1340 1057.88l-4.64-14.26h9.28z" fill="#333"/><path d="M1340 1059.5l-5.32-16.38h10.64zm-3.95-15.38l3.95 12.14 3.95-12.14z" fill="#333"/><use xlink:href="#i" transform="matrix(1,0,0,1,1326.491,959.9678777442035) translate(0.005000000000000782 17.37)"/><path d="M1280 1068c0-4.42 3.58-8 8-8h104c4.42 0 8 3.58 8 8v64c0 4.42-3.58 8-8 8h-104c-4.42 0-8-3.58-8-8z" stroke="#333" fill="#372173"/><use xlink:href="#z" transform="matrix(1,0,0,1,1285,1065) translate(20.908 20.645)"/><use xlink:href="#A" transform="matrix(1,0,0,1,1285,1065) translate(17.560000000000002 41.795)"/><use xlink:href="#B" transform="matrix(1,0,0,1,1285,1065) translate(60.994 41.795)"/><use xlink:href="#C" transform="matrix(1,0,0,1,1285,1065) translate(23.815 62.94500000000001)"/><path d="M800 448.8c0-4.42 3.58-8 8-8h144c4.42 0 8 3.58 8 8v64c0 4.42-3.58 8-8 8H808c-4.42 0-8-3.58-8-8z" stroke="#333" fill="#372173"/><use xlink:href="#D" transform="matrix(1,0,0,1,805,445.79999999999995) translate(36.894 31.22)"/><use xlink:href="#E" transform="matrix(1,0,0,1,805,445.79999999999995) translate(37.479 52.370000000000005)"/><path d="M1000 308c0-4.42 3.58-8 8-8h144c4.42 0 8 3.58 8 8v64c0 4.42-3.58 8-8 8h-144c-4.42 0-8-3.58-8-8z" stroke="#333" fill="#372173"/><use xlink:href="#F" transform="matrix(1,0,0,1,1005,305) translate(16.338000000000008 31.22)"/><use xlink:href="#G" transform="matrix(1,0,0,1,1005,305) translate(43.419 52.370000000000005)"/><path d="M260 281.5v114.12" stroke="#333" fill="none"/><path d="M260.5 281.5h-1v-.5h1z" fill="#333"/><path d="M260 410.38l-4.64-14.26h9.28z" stroke="#333" fill="#333"/><path d="M351 480h122.55" stroke="#333" fill="none"/><path d="M351 480.5h-.5v-1h.5z" fill="#333"/><path d="M488.32 480l-14.27 4.64v-9.28z" stroke="#333" fill="#333"/><path d="M550 520.2v101.46c0 6.63-5.37 12-12 12H323.25c-6.63 0-12 5.37-12 12v85.58" stroke="#333" fill="none"/><path d="M550.5 520.2h-1v-.5h1z" fill="#333"/><path d="M311.25 746l-4.64-14.26h9.3z" stroke="#333" fill="#333"/><path d="M880 439.8v-17.4c0-6.63 5.37-12 12-12h176c6.63 0 12-5.37 12-12v-1.52" stroke="#333" fill="none"/><path d="M880.5 440.3h-1v-.5h1z" fill="#333"/><path d="M1080 382.12l4.64 14.26h-9.28z" stroke="#333" fill="#333"/><path d="M1080 299V192c0-6.63 5.37-12 12-12h371.12" stroke="#333" fill="none"/><path d="M1080.5 299.5h-1v-.5h1z" fill="#333"/><path d="M1477.88 180l-14.26 4.64v-9.28z" stroke="#333" fill="#333"/><path d="M610.56 480h93.82c.22 0 .4.18.4.4 0 .22.18.4.4.4h77.94" stroke="#333" fill="none"/><path d="M610.58 480.5h-.65l.27-1h.38z" fill="#333"/><path d="M797.88 480.8l-14.26 4.64v-9.28z" stroke="#333" fill="#333"/><path d="M1288.38 482.08h-236.35l-3 .4-2.77 1.14-2.4 1.83-1.82 2.4-1.14 2.75-.4 3v228.56h-1v-228.6l.42-3.22 1.24-3 2-2.6 2.6-2 3-1.24 3.2-.42h236.42zm272.12-12.47l-.42 3.23-1.24 3-2 2.6-2.6 2-3 1.23-3.2.42H1311.6v-1h236.35l3-.4 2.77-1.14 2.4-1.83 1.82-2.38 1.14-2.75.4-3.02V256.88h1z" fill="#333"/><path d="M1040.5 722.63l-1 .07v-.55h1zM1564.64 256.38h-9.28l4.64-14.26z" fill="#333"/><path d="M1565.32 256.88h-10.64l5.32-16.38zm-9.27-1h7.9l-3.95-12.14z" fill="#333"/><g><use xlink:href="#j" transform="matrix(1,0,0,1,1288.381,471.0071535567971) translate(0.005000000000000782 17.37)"/></g><path d="M1467.3 520.5h-115.27l-3 .4-2.77 1.14-2.4 1.83-1.82 2.4-1.14 2.75-.4 3v208.75h-1v-208.8l.42-3.2 1.24-3 2-2.6 2.6-2 3-1.25 3.2-.42h115.33zm93.2-12.47l-.42 3.2-1.24 3-2 2.6-2.6 2-3 1.25-3.2.42h-57.1v-1h57.03l3-.4 2.77-1.14 2.4-1.83 1.82-2.4 1.14-2.75.4-3v-251.1h1zM1340.5 741.24l-1 .07v-.54h1zM1564.64 256.38h-9.28l4.64-14.26z" fill="#333"/><path d="M1565.32 256.88h-10.64l5.32-16.38zm-9.27-1h7.9l-3.95-12.14z" fill="#333"/><g><use xlink:href="#H" transform="matrix(1,0,0,1,1467.2883066724803,509.425) translate(0.005000000000000782 17.37)"/></g><defs><path fill="#333" d="M495-179c0 124-82 191-221 189-96 2-147-25-209-57v-78c46 37 123 69 212 69s145-38 145-115c0-146-201-125-286-201-36-28-62-69-59-134 6-112 81-170 204-171 80-1 120 21 175 47v74c-50-28-91-56-171-55-79 0-135 29-135 100 0 122 133 119 218 161 67 33 127 73 127 171" id="I"/><path fill="#333" d="M461-20C413 2 356 15 286 15 128 12 55-87 55-250c-2-159 72-256 219-258 160 1 218 112 218 271H91l5-66h349l-28 10c-4-97-45-149-143-149-120 0-146 78-146 205-1 114 54 185 162 186 71 0 127-17 171-43v74" id="J"/><path fill="#333" d="M283-443c-48 0-91 8-131 20V0H80v-459c58-29 125-49 211-49 132-2 197 56 198 183V0h-72v-325c-1-81-47-120-134-118" id="K"/><path fill="#333" d="M313-4c-98 35-201-6-201-117v-312H25v-66h87v-141h72v141h129v66H184v289c2 55 10 84 66 84 22 0 48-5 63-12v68" id="L"/><path fill="#333" d="M437-19C394-3 345 8 289 8 131 5 54-83 55-250c-1-167 76-255 234-258 56 0 106 11 148 28v69c-40-17-86-28-140-28-124 1-169 61-170 189 1 129 45 187 170 189 54 0 100-11 140-28v70" id="M"/><g id="a"><use transform="matrix(0.018,0,0,0.018,0,0)" xlink:href="#I"/><use transform="matrix(0.018,0,0,0.018,9.989999999999998,0)" xlink:href="#J"/><use transform="matrix(0.018,0,0,0.018,19.836,0)" xlink:href="#K"/><use transform="matrix(0.018,0,0,0.018,30.078,0)" xlink:href="#L"/><use transform="matrix(0.018,0,0,0.018,36.611999999999995,0)" xlink:href="#J"/><use transform="matrix(0.018,0,0,0.018,46.458,0)" xlink:href="#K"/><use transform="matrix(0.018,0,0,0.018,56.699999999999996,0)" xlink:href="#M"/><use transform="matrix(0.018,0,0,0.018,65.556,0)" xlink:href="#J"/></g><path fill="#fff" d="M628-202C628-59 522 0 381 0H71v-667c227 9 528-55 523 185 0 89-71 122-133 148l-18-35c107 6 185 57 185 167zm-166-6c0-105-132-73-229-78v161c100-4 229 27 229-83zm-33-261c0-97-110-67-196-72v136c81-6 196 27 196-64" id="N"/><path fill="#fff" d="M358-311c0-134-218-87-274-34v-132c43-25 127-46 203-44 125 4 220 48 219 177l-1 239C496 4 381 15 261 15 132 15 39-27 39-158c0-176 238-190 344-103l6 72c-47-30-204-52-202 34 2 42 36 63 79 65 53-3 92 4 92-35v-186" id="O"/><path fill="#fff" d="M441-150C438-27 339 13 216 15 146 16 100-3 51-22v-131c45 29 97 61 171 61 53 0 87-43 50-70-49-36-141-29-181-75-25-25-42-59-42-109 3-120 89-170 206-170 77 0 118 16 165 43v117c-44-22-81-52-144-52-78 0-98 73-31 92 93 26 201 40 196 166" id="P"/><path fill="#fff" d="M69 0v-499h149l1 499H69zm-3-575v-115h154v115H66" id="Q"/><path fill="#fff" d="M464-25c-47 23-92 38-161 38C139 7 37-78 37-246c0-175 93-269 265-274 57 0 121 13 161 32v128c-42-18-82-37-137-37-86 1-142 42-140 134 1 102 42 151 147 151 50 1 99-23 131-40v127" id="R"/><g id="b"><use transform="matrix(0.018,0,0,0.018,0,0)" xlink:href="#N"/><use transform="matrix(0.018,0,0,0.018,12.078,0)" xlink:href="#O"/><use transform="matrix(0.018,0,0,0.018,22.374,0)" xlink:href="#P"/><use transform="matrix(0.018,0,0,0.018,31.049999999999997,0)" xlink:href="#Q"/><use transform="matrix(0.018,0,0,0.018,36.19799999999999,0)" xlink:href="#R"/></g><path fill="#fff" d="M669-333C668-112 564 1 339 0H71v-667h268c225-1 329 112 330 334zm-166 0c1-138-54-207-183-209h-87v417h87c128-2 184-72 183-208" id="S"/><path fill="#fff" d="M479-19C427 2 370 16 295 15 134 11 40-83 37-246c-1-170 87-278 253-277 180 0 234 127 234 309H139l-16-95h278l-22 47c-3-93-14-147-95-147-78 0-98 63-98 150 1 97 45 151 145 150 58 0 107-22 148-38v128" id="T"/><path fill="#fff" d="M563-248C563-57 430 59 235-2c-21-7-38-17-53-32l30-47v262H66v-580c12-106 126-124 241-124 174 0 256 92 256 275zM212-126c20 13 54 20 83 21 91 1 119-54 119-148 0-88-24-146-113-145-48 1-81 3-89 34v238" id="U"/><path fill="#fff" d="M296-397c-27-1-64 9-81 17V0H66v-463c68-33 164-54 262-57 133 1 215 46 215 180V0H394v-310c-1-60-35-87-98-87" id="V"/><path fill="#fff" d="M543-132C533-19 425 12 308 15 127 19 37-72 37-257c0-196 139-308 338-250 19 7 35 18 50 34l-30 46v-287h148v582zM188-252c0 90 35 143 126 142 38 0 81-7 81-38v-233c-21-12-48-21-78-21-95-1-130 52-129 150" id="W"/><path fill="#fff" d="M145 68c70-3 81-58 93-125l3 85L24-506h171l115 355h-15l114-355h160L370 8c-41 97-79 176-194 188-33 0-68-8-90-18V57c19 7 35 11 59 11" id="X"/><g id="c"><use transform="matrix(0.018,0,0,0.018,0,0)" xlink:href="#S"/><use transform="matrix(0.018,0,0,0.018,12.797999999999998,0)" xlink:href="#T"/><use transform="matrix(0.018,0,0,0.018,22.913999999999998,0)" xlink:href="#U"/><use transform="matrix(0.018,0,0,0.018,33.732,0)" xlink:href="#T"/><use transform="matrix(0.018,0,0,0.018,43.848,0)" xlink:href="#V"/><use transform="matrix(0.018,0,0,0.018,54.81,0)" xlink:href="#W"/><use transform="matrix(0.018,0,0,0.018,65.772,0)" xlink:href="#T"/><use transform="matrix(0.018,0,0,0.018,75.888,0)" xlink:href="#V"/><use transform="matrix(0.018,0,0,0.018,86.85000000000001,0)" xlink:href="#R"/><use transform="matrix(0.018,0,0,0.018,95.88600000000001,0)" xlink:href="#X"/></g><path fill="#fff" d="M211 0v-542H24v-125h539v125H373V0H211" id="Y"/><path fill="#fff" d="M66-453c68-50 244-99 341-43v109c-53-10-135-12-192-4V0H66v-453" id="Z"/><g id="d"><use transform="matrix(0.018,0,0,0.018,0,0)" xlink:href="#Y"/><use transform="matrix(0.018,0,0,0.018,9.558,0)" xlink:href="#Z"/><use transform="matrix(0.018,0,0,0.018,16.956,0)" xlink:href="#T"/><use transform="matrix(0.018,0,0,0.018,27.072,0)" xlink:href="#T"/></g><path fill="#fff" d="M212 0L25-667h177l117 518h-27l150-518h125l153 525h-30l118-525h177L798 0H638L491-480h29L372 0H212" id="aa"/><path fill="#fff" d="M553-255c1 173-89 270-259 270C121 15 37-81 37-255c-1-184 81-265 257-268 176 0 260 90 259 268zm-368 0c0 91 25 151 109 151s110-64 111-151c1-92-24-149-111-150-87 0-109 59-109 150" id="ab"/><g id="e"><use transform="matrix(0.018,0,0,0.018,0,0)" xlink:href="#aa"/><use transform="matrix(0.018,0,0,0.018,17.28,0)" xlink:href="#ab"/><use transform="matrix(0.018,0,0,0.018,27.9,0)" xlink:href="#Z"/><use transform="matrix(0.018,0,0,0.018,35.297999999999995,0)" xlink:href="#W"/><use transform="matrix(0.018,0,0,0.018,46.25999999999999,0)" xlink:href="#P"/></g><g id="f"><use transform="matrix(0.018,0,0,0.018,0,0)" xlink:href="#Q"/><use transform="matrix(0.018,0,0,0.018,5.148,0)" xlink:href="#P"/></g><path fill="#fff" d="M194 0L24-506h161L298-97l-47 2 107-411h110l105 399h-37l108-399h158L634 0H499L399-327l25 3L329 0H194" id="ac"/><g id="g"><use transform="matrix(0.018,0,0,0.018,0,0)" xlink:href="#ac"/><use transform="matrix(0.018,0,0,0.018,14.309999999999999,0)" xlink:href="#ab"/><use transform="matrix(0.018,0,0,0.018,24.93,0)" xlink:href="#Z"/><use transform="matrix(0.018,0,0,0.018,32.327999999999996,0)" xlink:href="#W"/></g><path fill="#fff" d="M366 0c-24 13-58 20-93 20-112 1-173-53-174-159v-253H25v-114h74v-139h156v139h111v114H255v234c-9 68 81 56 111 30V0" id="ad"/><path fill="#fff" d="M446-484c2 151-161 135-148 299H180c-7-112 38-168 96-215 24-23 51-41 52-84 2-125-195-83-248-34v-113c39-24 97-44 162-44 127 3 200 66 204 191zM173 0v-114h132V0H173" id="ae"/><g id="h"><use transform="matrix(0.018,0,0,0.018,0,0)" xlink:href="#U"/><use transform="matrix(0.018,0,0,0.018,10.818,0)" xlink:href="#Z"/><use transform="matrix(0.018,0,0,0.018,18.216,0)" xlink:href="#T"/><use transform="matrix(0.018,0,0,0.018,28.332,0)" xlink:href="#U"/><use transform="matrix(0.018,0,0,0.018,39.15,0)" xlink:href="#ab"/><use transform="matrix(0.018,0,0,0.018,49.769999999999996,0)" xlink:href="#P"/><use transform="matrix(0.018,0,0,0.018,58.446,0)" xlink:href="#Q"/><use transform="matrix(0.018,0,0,0.018,63.593999999999994,0)" xlink:href="#ad"/><use transform="matrix(0.018,0,0,0.018,71.02799999999999,0)" xlink:href="#Q"/><use transform="matrix(0.018,0,0,0.018,76.17599999999999,0)" xlink:href="#ab"/><use transform="matrix(0.018,0,0,0.018,86.79599999999999,0)" xlink:href="#V"/><use transform="matrix(0.018,0,0,0.018,97.758,0)" xlink:href="#ae"/></g><path fill="#333" d="M261 0v-306L12-667h87l211 312-23-6 207-306h87L321-289l12-46V0h-72" id="af"/><path fill="#333" d="M401-139C400-35 321 11 221 15 145 15 108-1 55-27v-76c51 27 86 52 161 52 76 0 151-65 98-122-71-77-257-42-257-192 0-99 76-139 174-143 63-1 97 21 143 39v72c-48-23-75-44-139-45-48 0-107 19-106 67 7 84 107 79 170 107 54 24 102 52 102 129" id="ag"/><g id="i"><use transform="matrix(0.018,0,0,0.018,0,0)" xlink:href="#af"/><use transform="matrix(0.018,0,0,0.018,8.963999999999999,0)" xlink:href="#J"/><use transform="matrix(0.018,0,0,0.018,18.81,0)" xlink:href="#ag"/></g><path fill="#333" d="M85 0v-667h82L583-80l-18 28v-615h72V0h-81L124-609l33-31V0H85" id="ah"/><path fill="#333" d="M514-248c1 156-77 264-229 263C125 16 55-88 55-248c-2-163 74-259 228-260 162 0 229 100 231 260zm-387 0c2 115 39 199 157 197 119 1 156-82 158-197-1-117-40-195-158-194-117 0-155 80-157 194" id="ai"/><g id="j"><use transform="matrix(0.018,0,0,0.018,0,0)" xlink:href="#ah"/><use transform="matrix(0.018,0,0,0.018,12.995999999999999,0)" xlink:href="#ai"/></g><path fill="#fff" d="M534-202C528-64 440 13 295 14 198 14 124 0 59-32v-154c50 42 131 73 214 75 56 0 94-18 95-71-3-45-43-57-82-72-109-38-242-63-238-216 8-144 105-209 257-212 82 0 137 17 192 44v156c-54-43-133-87-231-69-46 8-75 76-36 106 103 78 311 55 304 243" id="aj"/><path fill="#fff" d="M182-279l186-227h181L268-209zM214 0H66v-697h150zm81-344L562 0H373L189-243" id="ak"/><g id="k"><use transform="matrix(0.018,0,0,0.018,0,0)" xlink:href="#aj"/><use transform="matrix(0.018,0,0,0.018,10.386,0)" xlink:href="#ak"/><use transform="matrix(0.018,0,0,0.018,20.97,0)" xlink:href="#Q"/><use transform="matrix(0.018,0,0,0.018,26.118,0)" xlink:href="#U"/></g><path fill="#fff" d="M6 193V72c53 6 80-17 80-68v-510h149l2 510c1 141-92 188-231 189zm77-775v-115h155v115H83" id="al"/><path fill="#fff" d="M535-193c2 144-90 207-231 208C161 12 66-47 66-193v-313h149v301c0 64 26 95 90 95 65 0 89-31 90-95v-301h140v313" id="am"/><g id="l"><use transform="matrix(0.018,0,0,0.018,0,0)" xlink:href="#R"/><use transform="matrix(0.018,0,0,0.018,9.036,0)" xlink:href="#ab"/><use transform="matrix(0.018,0,0,0.018,19.656,0)" xlink:href="#V"/><use transform="matrix(0.018,0,0,0.018,30.618,0)" xlink:href="#al"/><use transform="matrix(0.018,0,0,0.018,36.089999999999996,0)" xlink:href="#am"/><use transform="matrix(0.018,0,0,0.018,46.907999999999994,0)" xlink:href="#V"/><use transform="matrix(0.018,0,0,0.018,57.86999999999999,0)" xlink:href="#R"/><use transform="matrix(0.018,0,0,0.018,66.90599999999999,0)" xlink:href="#ad"/><use transform="matrix(0.018,0,0,0.018,74.33999999999999,0)" xlink:href="#Q"/><use transform="matrix(0.018,0,0,0.018,79.48799999999997,0)" xlink:href="#ab"/><use transform="matrix(0.018,0,0,0.018,90.10799999999999,0)" xlink:href="#V"/></g><path fill="#fff" d="M-14 98l367-854h107L92 98H-14" id="an"/><use transform="matrix(0.018,0,0,0.018,0,0)" xlink:href="#an" id="m"/><path fill="#fff" d="M328-520c132 0 208 46 208 180V0H387v-310c-1-60-35-87-98-87-28-1-56 9-74 17V0H66v-463c68-33 164-54 262-57zm275 123c-30 0-58 10-74 23l-146-55c60-51 154-88 259-91 132 0 208 46 208 180V0H701v-310c-1-60-35-87-98-87" id="ao"/><g id="n"><use transform="matrix(0.018,0,0,0.018,0,0)" xlink:href="#R"/><use transform="matrix(0.018,0,0,0.018,9.036,0)" xlink:href="#ab"/><use transform="matrix(0.018,0,0,0.018,19.656,0)" xlink:href="#ao"/><use transform="matrix(0.018,0,0,0.018,36.144,0)" xlink:href="#U"/><use transform="matrix(0.018,0,0,0.018,46.961999999999996,0)" xlink:href="#ab"/><use transform="matrix(0.018,0,0,0.018,57.581999999999994,0)" xlink:href="#am"/><use transform="matrix(0.018,0,0,0.018,68.39999999999999,0)" xlink:href="#V"/><use transform="matrix(0.018,0,0,0.018,79.362,0)" xlink:href="#W"/><use transform="matrix(0.018,0,0,0.018,90.324,0)" xlink:href="#ae"/></g><path fill="#fff" d="M71 0v-667h165l229 319-88 3 237-322h161V0H613v-545l32 52-228 303-226-308 35-24V0H71" id="ap"/><path fill="#fff" d="M417-61c-32 45-80 76-157 76C113 15 37-79 37-237c-3-197 94-286 288-283 110 3 209 32 209 136V6c-3 154-102 215-258 217-75 1-143-10-187-33V59c78 36 307 88 299-59v-82zM186-246c-2 82 38 148 112 149 37 0 65-8 90-22v-232c0-42-39-50-80-51-93-1-121 65-122 156" id="aq"/><g id="o"><use transform="matrix(0.018,0,0,0.018,0,0)" xlink:href="#ap"/><use transform="matrix(0.018,0,0,0.018,15.227999999999998,0)" xlink:href="#T"/><use transform="matrix(0.018,0,0,0.018,25.343999999999998,0)" xlink:href="#Z"/><use transform="matrix(0.018,0,0,0.018,33.047999999999995,0)" xlink:href="#aq"/><use transform="matrix(0.018,0,0,0.018,43.721999999999994,0)" xlink:href="#T"/></g><g id="p"><use transform="matrix(0.018,0,0,0.018,0,0)" xlink:href="#W"/><use transform="matrix(0.018,0,0,0.018,10.962,0)" xlink:href="#T"/><use transform="matrix(0.018,0,0,0.018,21.078,0)" xlink:href="#ad"/><use transform="matrix(0.018,0,0,0.018,28.512,0)" xlink:href="#T"/><use transform="matrix(0.018,0,0,0.018,38.628,0)" xlink:href="#Z"/><use transform="matrix(0.018,0,0,0.018,46.33200000000001,0)" xlink:href="#ao"/><use transform="matrix(0.018,0,0,0.018,62.82,0)" xlink:href="#Q"/><use transform="matrix(0.018,0,0,0.018,67.968,0)" xlink:href="#V"/><use transform="matrix(0.018,0,0,0.018,78.93,0)" xlink:href="#T"/><use transform="matrix(0.018,0,0,0.018,89.046,0)" xlink:href="#Z"/><use transform="matrix(0.018,0,0,0.018,96.74999999999999,0)" xlink:href="#an"/></g><path fill="#fff" d="M316-202L178 0H21l227-297zM564 0H387L26-506h176zM272-299l142-207h158L340-202" id="ar"/><path fill="#fff" d="M214 0H66v-697h148V0" id="as"/><g id="q"><use transform="matrix(0.018,0,0,0.018,0,0)" xlink:href="#O"/><use transform="matrix(0.018,0,0,0.018,10.296,0)" xlink:href="#am"/><use transform="matrix(0.018,0,0,0.018,21.113999999999997,0)" xlink:href="#ar"/><use transform="matrix(0.018,0,0,0.018,31.805999999999997,0)" xlink:href="#Q"/><use transform="matrix(0.018,0,0,0.018,36.954,0)" xlink:href="#as"/><use transform="matrix(0.018,0,0,0.018,41.993999999999986,0)" xlink:href="#T"/><use transform="matrix(0.018,0,0,0.018,52.11,0)" xlink:href="#Z"/><use transform="matrix(0.018,0,0,0.018,59.81399999999999,0)" xlink:href="#X"/><use transform="matrix(0.018,0,0,0.018,70.488,0)" xlink:href="#an"/></g><g id="r"><use transform="matrix(0.018,0,0,0.018,0,0)" xlink:href="#U"/><use transform="matrix(0.018,0,0,0.018,10.818,0)" xlink:href="#Z"/><use transform="matrix(0.018,0,0,0.018,18.216,0)" xlink:href="#T"/><use transform="matrix(0.018,0,0,0.018,28.332,0)" xlink:href="#R"/><use transform="matrix(0.018,0,0,0.018,37.368,0)" xlink:href="#ab"/><use transform="matrix(0.018,0,0,0.018,47.988,0)" xlink:href="#V"/><use transform="matrix(0.018,0,0,0.018,58.95,0)" xlink:href="#al"/><use transform="matrix(0.018,0,0,0.018,64.422,0)" xlink:href="#am"/><use transform="matrix(0.018,0,0,0.018,75.24,0)" xlink:href="#V"/><use transform="matrix(0.018,0,0,0.018,86.202,0)" xlink:href="#R"/><use transform="matrix(0.018,0,0,0.018,95.238,0)" xlink:href="#ad"/><use transform="matrix(0.018,0,0,0.018,102.672,0)" xlink:href="#Q"/><use transform="matrix(0.018,0,0,0.018,107.82,0)" xlink:href="#ab"/><use transform="matrix(0.018,0,0,0.018,118.44,0)" xlink:href="#V"/><use transform="matrix(0.018,0,0,0.018,129.402,0)" xlink:href="#ae"/></g><path fill="#fff" d="M71 0v-667h162V0H71" id="at"/><g id="s"><use transform="matrix(0.018,0,0,0.018,0,0)" xlink:href="#at"/><use transform="matrix(0.018,0,0,0.018,5.4719999999999995,0)" xlink:href="#aq"/><use transform="matrix(0.018,0,0,0.018,16.146,0)" xlink:href="#V"/><use transform="matrix(0.018,0,0,0.018,27.108,0)" xlink:href="#ab"/><use transform="matrix(0.018,0,0,0.018,37.72800000000001,0)" xlink:href="#Z"/><use transform="matrix(0.018,0,0,0.018,45.126000000000005,0)" xlink:href="#T"/></g><path fill="#fff" d="M71 0v-667h162v540h290V0H71" id="au"/><g id="t"><use transform="matrix(0.018,0,0,0.018,0,0)" xlink:href="#au"/><use transform="matrix(0.018,0,0,0.018,9.989999999999998,0)" xlink:href="#Q"/><use transform="matrix(0.018,0,0,0.018,15.137999999999998,0)" xlink:href="#P"/><use transform="matrix(0.018,0,0,0.018,23.813999999999997,0)" xlink:href="#ad"/></g><g id="u"><use transform="matrix(0.018,0,0,0.018,0,0)" xlink:href="#Y"/><use transform="matrix(0.018,0,0,0.018,9.558,0)" xlink:href="#Z"/><use transform="matrix(0.018,0,0,0.018,16.956,0)" xlink:href="#T"/><use transform="matrix(0.018,0,0,0.018,27.072,0)" xlink:href="#T"/></g><g id="v"><use transform="matrix(0.018,0,0,0.018,0,0)" xlink:href="#aj"/><use transform="matrix(0.018,0,0,0.018,10.386,0)" xlink:href="#T"/><use transform="matrix(0.018,0,0,0.018,20.502,0)" xlink:href="#V"/><use transform="matrix(0.018,0,0,0.018,31.464,0)" xlink:href="#ad"/><use transform="matrix(0.018,0,0,0.018,38.897999999999996,0)" xlink:href="#Q"/><use transform="matrix(0.018,0,0,0.018,44.045999999999985,0)" xlink:href="#ao"/><use transform="matrix(0.018,0,0,0.018,60.534,0)" xlink:href="#T"/><use transform="matrix(0.018,0,0,0.018,70.64999999999999,0)" xlink:href="#V"/><use transform="matrix(0.018,0,0,0.018,81.612,0)" xlink:href="#ad"/></g><g id="w"><use transform="matrix(0.018,0,0,0.018,0,0)" xlink:href="#aj"/><use transform="matrix(0.018,0,0,0.018,10.386,0)" xlink:href="#R"/><use transform="matrix(0.018,0,0,0.018,19.421999999999997,0)" xlink:href="#ab"/><use transform="matrix(0.018,0,0,0.018,30.041999999999994,0)" xlink:href="#Z"/><use transform="matrix(0.018,0,0,0.018,37.745999999999995,0)" xlink:href="#Q"/><use transform="matrix(0.018,0,0,0.018,42.89399999999999,0)" xlink:href="#V"/><use transform="matrix(0.018,0,0,0.018,53.855999999999995,0)" xlink:href="#aq"/></g><g id="x"><use transform="matrix(0.018,0,0,0.018,0,0)" xlink:href="#ac"/><use transform="matrix(0.018,0,0,0.018,14.309999999999999,0)" xlink:href="#ab"/><use transform="matrix(0.018,0,0,0.018,24.93,0)" xlink:href="#Z"/><use transform="matrix(0.018,0,0,0.018,32.327999999999996,0)" xlink:href="#W"/></g><g id="y"><use transform="matrix(0.018,0,0,0.018,0,0)" xlink:href="#U"/><use transform="matrix(0.018,0,0,0.018,10.818,0)" xlink:href="#Z"/><use transform="matrix(0.018,0,0,0.018,18.216,0)" xlink:href="#ab"/><use transform="matrix(0.018,0,0,0.018,28.836,0)" xlink:href="#V"/><use transform="matrix(0.018,0,0,0.018,39.798,0)" xlink:href="#ab"/><use transform="matrix(0.018,0,0,0.018,50.418,0)" xlink:href="#am"/><use transform="matrix(0.018,0,0,0.018,61.236,0)" xlink:href="#V"/><use transform="matrix(0.018,0,0,0.018,72.198,0)" xlink:href="#ae"/></g><path fill="#fff" d="M396-667c146 0 245 66 241 212-3 107-62 182-159 199l-10-55L671 0H465L298-291l72 61H233V0H71v-667h325zm66 219c1-59-29-94-86-94H233v193h136c61-1 94-32 93-99" id="av"/><g id="z"><use transform="matrix(0.018,0,0,0.018,0,0)" xlink:href="#av"/><use transform="matrix(0.018,0,0,0.018,12.761999999999999,0)" xlink:href="#T"/><use transform="matrix(0.018,0,0,0.018,22.877999999999997,0)" xlink:href="#U"/><use transform="matrix(0.018,0,0,0.018,33.696,0)" xlink:href="#as"/><use transform="matrix(0.018,0,0,0.018,38.736,0)" xlink:href="#O"/><use transform="matrix(0.018,0,0,0.018,49.032,0)" xlink:href="#R"/><use transform="matrix(0.018,0,0,0.018,58.068,0)" xlink:href="#T"/></g><path fill="#fff" d="M396-301c13-102-112-114-180-72L214 0H66v-706h150v300l-63-34c47-41 122-80 206-80 122 2 186 59 186 188V0H396v-301" id="aw"/><g id="A"><use transform="matrix(0.018,0,0,0.018,0,0)" xlink:href="#ac"/><use transform="matrix(0.018,0,0,0.018,14.886,0)" xlink:href="#Q"/><use transform="matrix(0.018,0,0,0.018,20.034,0)" xlink:href="#ad"/><use transform="matrix(0.018,0,0,0.018,27.467999999999996,0)" xlink:href="#aw"/></g><g id="B"><use transform="matrix(0.018,0,0,0.018,0,0)" xlink:href="#as"/><use transform="matrix(0.018,0,0,0.018,5.04,0)" xlink:href="#O"/><use transform="matrix(0.018,0,0,0.018,15.335999999999999,0)" xlink:href="#P"/><use transform="matrix(0.018,0,0,0.018,24.012000000000004,0)" xlink:href="#ad"/></g><path fill="#fff" d="M564-255c1 181-90 270-266 270C183 15 66-3 66-117v-576h146v276l-28-47c30-36 90-54 151-56 157 1 230 101 229 265zm-352 99c1 41 43 45 84 47 86 1 118-54 119-137 0-93-30-152-116-155-31 0-66 8-87 21v224" id="ax"/><g id="C"><use transform="matrix(0.018,0,0,0.018,0,0)" xlink:href="#P"/><use transform="matrix(0.018,0,0,0.018,8.676,0)" xlink:href="#am"/><use transform="matrix(0.018,0,0,0.018,19.494,0)" xlink:href="#ax"/><use transform="matrix(0.018,0,0,0.018,30.311999999999998,0)" xlink:href="#al"/><use transform="matrix(0.018,0,0,0.018,35.784,0)" xlink:href="#T"/><use transform="matrix(0.018,0,0,0.018,45.9,0)" xlink:href="#R"/><use transform="matrix(0.018,0,0,0.018,54.93600000000001,0)" xlink:href="#ad"/></g><g id="D"><use transform="matrix(0.018,0,0,0.018,0,0)" xlink:href="#V"/><use transform="matrix(0.018,0,0,0.018,10.962,0)" xlink:href="#T"/><use transform="matrix(0.018,0,0,0.018,21.078,0)" xlink:href="#aq"/><use transform="matrix(0.018,0,0,0.018,31.752,0)" xlink:href="#O"/><use transform="matrix(0.018,0,0,0.018,42.048,0)" xlink:href="#ad"/><use transform="matrix(0.018,0,0,0.018,49.482,0)" xlink:href="#Q"/><use transform="matrix(0.018,0,0,0.018,54.629999999999995,0)" xlink:href="#ab"/><use transform="matrix(0.018,0,0,0.018,65.25,0)" xlink:href="#V"/></g><g id="E"><use transform="matrix(0.018,0,0,0.018,0,0)" xlink:href="#aw"/><use transform="matrix(0.018,0,0,0.018,10.998,0)" xlink:href="#O"/><use transform="matrix(0.018,0,0,0.018,21.293999999999997,0)" xlink:href="#V"/><use transform="matrix(0.018,0,0,0.018,32.256,0)" xlink:href="#W"/><use transform="matrix(0.018,0,0,0.018,43.218,0)" xlink:href="#as"/><use transform="matrix(0.018,0,0,0.018,48.258,0)" xlink:href="#Q"/><use transform="matrix(0.018,0,0,0.018,53.406000000000006,0)" xlink:href="#V"/><use transform="matrix(0.018,0,0,0.018,64.36800000000001,0)" xlink:href="#aq"/></g><path fill="#fff" d="M235 0L24-506h162l153 390-36 1 136-391h157L385 0H235" id="ay"/><g id="F"><use transform="matrix(0.018,0,0,0.018,0,0)" xlink:href="#ap"/><use transform="matrix(0.018,0,0,0.018,15.227999999999998,0)" xlink:href="#am"/><use transform="matrix(0.018,0,0,0.018,26.046,0)" xlink:href="#as"/><use transform="matrix(0.018,0,0,0.018,31.086,0)" xlink:href="#ad"/><use transform="matrix(0.018,0,0,0.018,38.519999999999996,0)" xlink:href="#Q"/><use transform="matrix(0.018,0,0,0.018,43.667999999999985,0)" xlink:href="#U"/><use transform="matrix(0.018,0,0,0.018,54.48599999999999,0)" xlink:href="#as"/><use transform="matrix(0.018,0,0,0.018,59.52599999999999,0)" xlink:href="#Q"/><use transform="matrix(0.018,0,0,0.018,64.67399999999999,0)" xlink:href="#R"/><use transform="matrix(0.018,0,0,0.018,73.71,0)" xlink:href="#O"/><use transform="matrix(0.018,0,0,0.018,84.006,0)" xlink:href="#ad"/><use transform="matrix(0.018,0,0,0.018,91.44,0)" xlink:href="#Q"/><use transform="matrix(0.018,0,0,0.018,96.588,0)" xlink:href="#ay"/><use transform="matrix(0.018,0,0,0.018,107.208,0)" xlink:href="#T"/></g><g id="G"><use transform="matrix(0.018,0,0,0.018,0,0)" xlink:href="#at"/><use transform="matrix(0.018,0,0,0.018,5.4719999999999995,0)" xlink:href="#V"/><use transform="matrix(0.018,0,0,0.018,16.055999999999997,0)" xlink:href="#ay"/><use transform="matrix(0.018,0,0,0.018,26.675999999999995,0)" xlink:href="#T"/><use transform="matrix(0.018,0,0,0.018,36.791999999999994,0)" xlink:href="#Z"/><use transform="matrix(0.018,0,0,0.018,44.37,0)" xlink:href="#P"/><use transform="matrix(0.018,0,0,0.018,53.046,0)" xlink:href="#T"/></g><path fill="#fff" d="M71 0v-667h138l343 462-48 100v-562h149V0H531L182-456l38-73V0H71" id="az"/><g id="H"><use transform="matrix(0.018,0,0,0.018,0,0)" xlink:href="#az"/><use transform="matrix(0.018,0,0,0.018,13.031999999999998,0)" xlink:href="#ab"/></g></defs></g></svg>