<svg xmlns="http://www.w3.org/2000/svg" xmlns:xlink="http://www.w3.org/1999/xlink" xmlns:lucid="lucid" width="1870.4" height="1323.2"><g transform="translate(0 0)" lucid:page-tab-id="u4UflgrD6t6."><path d="M264.57 188.98h199.87c4.42 0 8 3.58 8 8v928.88c0 4.42-3.58 8-8 8H272.57c-4.42 0-8-3.58-8-8zm20.78 0v944.88m-20.78-924.1h207.87" stroke="#9db6bd" fill="#f2c94c" fill-opacity=".3"/><path d="M241.9 75.6c22.95 0 41.56 23.47 41.56 52.43 0 28.97-18.6 52.45-41.57 52.45H117.16c-22.97 0-41.58-23.48-41.58-52.45 0-28.96 18.6-52.44 41.57-52.44z" stroke="#9db6bd" fill="#fff"/><use xlink:href="#a" transform="matrix(1,0,0,1,80.59055118110236,80.59055118110234) translate(20.45540364583337 56.82628038194444)"/><use xlink:href="#b" transform="matrix(1,0,0,1,80.59055118110236,80.59055118110234) translate(66.14431423611113 56.82628038194444)"/><path d="M302.36 329.26c0-4.42 3.58-8 8-8h116.96c4.42 0 8 3.58 8 8v73.76c-22.2-13.65-36.03-13.65-44.4-13.65-13.3 0-31 13.65-44.28 13.65-8.25 0-22.2 0-44.28-13.65z" stroke="#9db6bd" fill="#fff"/><path d="M309.75 336.47c0-4.4 3.58-8 8-8H434.7c4.43 0 8 3.6 8 8v73.77c-22.2-13.66-36.02-13.66-44.4-13.66-13.3 0-30.98 13.66-44.28 13.66-8.24 0-22.2 0-44.27-13.66z" stroke="#9db6bd" fill="#fff"/><path d="M317.14 343.7c0-4.43 3.58-8 8-8H442.1c4.4 0 8 3.57 8 8v73.75c-22.2-13.65-36.04-13.65-44.4-13.65-13.3 0-31 13.65-44.3 13.65-8.23 0-22.2 0-44.26-13.65z" stroke="#9db6bd" fill="#fff"/><use xlink:href="#c" transform="matrix(1,0,0,1,322.1355382383167,340.6885543362018) translate(9.317999999999998 25.72)"/><use xlink:href="#d" transform="matrix(1,0,0,1,322.1355382383167,340.6885543362018) translate(19.515 46.870000000000005)"/><path d="M302.36 621.16c0-4.4 3.58-8 8-8h116.96c4.42 0 8 3.6 8 8v73.77c-22.2-13.66-36.03-13.66-44.4-13.66-13.3 0-31 13.66-44.28 13.66-8.25 0-22.2 0-44.28-13.66z" stroke="#9db6bd" fill="#fff"/><path d="M309.75 628.38c0-4.42 3.58-8 8-8H434.7c4.43 0 8 3.58 8 8v73.76c-22.2-13.65-36.02-13.65-44.4-13.65-13.3 0-30.98 13.64-44.28 13.64-8.24 0-22.2 0-44.27-13.65z" stroke="#9db6bd" fill="#fff"/><path d="M317.14 635.6c0-4.43 3.58-8 8-8H442.1c4.4 0 8 3.57 8 8v73.76c-22.2-13.66-36.04-13.66-44.4-13.66-13.3 0-31 13.66-44.3 13.66-8.23 0-22.2 0-44.26-13.66z" stroke="#9db6bd" fill="#fff"/><use xlink:href="#e" transform="matrix(1,0,0,1,322.1355382383167,632.5928482811461) translate(37.721999999999994 25.72)"/><use xlink:href="#d" transform="matrix(1,0,0,1,322.1355382383167,632.5928482811461) translate(19.515 46.870000000000005)"/><path d="M302.36 904.82c0-4.42 3.58-8 8-8h116.96c4.42 0 8 3.58 8 8v73.76c-22.2-13.65-36.03-13.65-44.4-13.65-13.3 0-31 13.65-44.28 13.65-8.25 0-22.2 0-44.28-13.65z" stroke="#9db6bd" fill="#fff"/><path d="M309.75 912.03c0-4.4 3.58-8 8-8H434.7c4.43 0 8 3.6 8 8v73.77c-22.2-13.66-36.02-13.66-44.4-13.66-13.3 0-30.98 13.66-44.28 13.66-8.24 0-22.2 0-44.27-13.66z" stroke="#9db6bd" fill="#fff"/><path d="M317.14 919.25c0-4.42 3.58-8 8-8H442.1c4.4 0 8 3.58 8 8V993c-22.2-13.64-36.04-13.64-44.4-13.64-13.3 0-31 13.65-44.3 13.65-8.23 0-22.2 0-44.26-13.64z" stroke="#9db6bd" fill="#fff"/><use xlink:href="#f" transform="matrix(1,0,0,1,322.1355382383167,916.2483777106343) translate(12.837000000000003 25.72)"/><use xlink:href="#d" transform="matrix(1,0,0,1,322.1355382383167,916.2483777106343) translate(19.515 46.870000000000005)"/><path d="M451.1 369.52h26.76c6.63 0 12-5.37 12-12V198.27c0-6.63 5.38-12 12-12h46.02c6.63 0 12 5.37 12 12v11.62" stroke="#9db6bd" fill="none"/><path d="M451.1 370.02h-.5v-1h.5z" fill="#9db6bd"/><path d="M559.88 224.65l-4.64-14.26h9.27z" stroke="#9db6bd" fill="#fff"/><path d="M533.57 233.43c-2.45-3.68-.85-6.66 3.56-6.66h45.5c4.4 0 6 2.98 3.56 6.66l-21.88 32.8c-2.45 3.68-6.43 3.68-8.88 0z" stroke="#333" fill="#333"/><path d="M831.5 633.38c0-4.42 3.56-8.4 7.95-8.9l144.1-16.2c4.4-.5 7.95 2.68 7.95 7.1v92.44c0 4.42-3.6 8-8 8h-144c-4.42 0-8-3.58-8-8z" stroke="#9db6bd" stroke-opacity=".4" stroke-width="2" fill="#9db6bd" fill-opacity=".6"/><use xlink:href="#g" transform="matrix(1,0,0,1,836.4960629921259,630.4547122129471) translate(43.995000000000005 26.145)"/><use xlink:href="#h" transform="matrix(1,0,0,1,836.4960629921259,630.4547122129471) translate(19.722 47.295)"/><use xlink:href="#i" transform="matrix(1,0,0,1,836.4960629921259,630.4547122129471) translate(35.652 68.44500000000001)"/><path d="M1043.78 159.18c0-4.42 3.58-8 8-8h154.08c4.42 0 8 3.58 8 8v92.44c0 4.42-3.58 8-8 8h-154.08c-4.42 0-8-3.58-8-8z" stroke="#9db6bd" stroke-opacity=".2" fill="#9db6bd" fill-opacity=".2"/><use xlink:href="#j" transform="matrix(1,0,0,1,1048.7795275363565,156.1811023622047) translate(21.010000000000005 24.569999999999997)"/><use xlink:href="#k" transform="matrix(1,0,0,1,1048.7795275363565,156.1811023622047) translate(58.234 24.569999999999997)"/><use xlink:href="#l" transform="matrix(1,0,0,1,1048.7795275363565,156.1811023622047) translate(116.842 24.569999999999997)"/><use xlink:href="#m" transform="matrix(1,0,0,1,1048.7795275363565,156.1811023622047) translate(32.584 45.72)"/><use xlink:href="#n" transform="matrix(1,0,0,1,1048.7795275363565,156.1811023622047) translate(113.854 45.72)"/><use xlink:href="#o" transform="matrix(1,0,0,1,1048.7795275363565,156.1811023622047) translate(12.802000000000007 66.87)"/><use xlink:href="#p" transform="matrix(1,0,0,1,1048.7795275363565,156.1811023622047) translate(93.19 66.87)"/><use xlink:href="#q" transform="matrix(1,0,0,1,1048.7795275363565,156.1811023622047) translate(51.493 88.02000000000001)"/><path d="M963.78 1122.3c0-4.43 3.56-8.44 7.94-8.96l173.1-20.8c4.38-.52 7.94 2.63 7.94 7.05v120.75c0 4.4-3.6 8-8 8H971.78c-4.42 0-8-3.6-8-8z" stroke="#9db6bd" stroke-opacity=".4" fill="#9db6bd" fill-opacity=".6"/><use xlink:href="#r" transform="matrix(1,0,0,1,968.7795275590552,1119.382187211338) translate(39.28900000000001 27.069999999999997)"/><use xlink:href="#s" transform="matrix(1,0,0,1,968.7795275590552,1119.382187211338) translate(105.29499999999999 27.069999999999997)"/><use xlink:href="#m" transform="matrix(1,0,0,1,968.7795275590552,1119.382187211338) translate(25.105000000000004 48.22)"/><use xlink:href="#t" transform="matrix(1,0,0,1,968.7795275590552,1119.382187211338) translate(106.375 48.22)"/><use xlink:href="#u" transform="matrix(1,0,0,1,968.7795275590552,1119.382187211338) translate(47.794000000000004 69.37)"/><use xlink:href="#v" transform="matrix(1,0,0,1,968.7795275590552,1119.382187211338) translate(31.009 90.52000000000001)"/><path d="M1589.03 248.77c0 6-21.15 10.85-47.24 10.85-26.1 0-47.25-4.86-47.25-10.85v-86.75c0-5.98 21.15-10.84 47.24-10.84 26.08 0 47.23 4.86 47.23 10.84z" stroke="#9db6bd" fill="#f2c94c" fill-opacity=".6"/><path d="M1589.03 162.02c0 6-21.15 10.85-47.24 10.85-26.1 0-47.25-4.86-47.25-10.85" stroke="#9db6bd" fill="none"/><use xlink:href="#w" transform="matrix(1,0,0,1,1499.5462237827057,177.86827506927878) translate(28.46 24.145)"/><use xlink:href="#x" transform="matrix(1,0,0,1,1499.5462237827057,177.86827506927878) translate(8.722999999999999 45.295)"/><use xlink:href="#y" transform="matrix(1,0,0,1,1499.5462237827057,177.86827506927878) translate(30.287000000000003 66.44500000000001)"/><path d="M179.53 181.98v467.44c0 6.62 5.37 12 12 12h54.04" stroke="#9db6bd" stroke-width="2" fill="none"/><path d="M180.53 182h-2v-1.02h2z" fill="#9db6bd"/><path d="M260.83 661.42l-14.26 4.63v-9.27z" stroke="#9db6bd" stroke-width="2" fill="#fff"/><path d="M1461.8 336.25c0-4.42 3.57-8 8-8h144c4.4 0 8 3.58 8 8v85.1c0 4.42-3.6 8-8 8h-144c-4.43 0-8-3.58-8-8z" stroke="#9db6bd" stroke-opacity=".2" fill="#9db6bd" fill-opacity=".2"/><use xlink:href="#z" transform="matrix(1,0,0,1,1466.7903182708947,333.25318637001635) translate(24.402 31.645)"/><use xlink:href="#A" transform="matrix(1,0,0,1,1466.7903182708947,333.25318637001635) translate(49.548 31.645)"/><use xlink:href="#B" transform="matrix(1,0,0,1,1466.7903182708947,333.25318637001635) translate(12.603000000000009 52.795)"/><use xlink:href="#C" transform="matrix(1,0,0,1,1466.7903182708947,333.25318637001635) translate(73.119 52.795)"/><use xlink:href="#D" transform="matrix(1,0,0,1,1466.7903182708947,333.25318637001635) translate(28.596000000000004 73.94500000000001)"/><use xlink:href="#E" transform="matrix(1,0,0,1,1466.7903182708947,333.25318637001635) translate(67.782 73.94500000000001)"/><path d="M1002.54 854.88c1.14-4.27 5.64-7.73 10.06-7.73h122.08c4.42 0 7.07 3.46 5.94 7.73l-17.8 66.75c-1.14 4.26-5.65 7.73-10.06 7.73H990.68c-4.42 0-7.08-3.47-5.94-7.73z" stroke="#9db6bd" fill="#9db6bd"/><use xlink:href="#F" transform="matrix(1,0,0,1,987.6771653543307,852.150824165292) translate(52.878 32.72)"/><use xlink:href="#G" transform="matrix(1,0,0,1,987.6771653543307,852.150824165292) translate(31.952999999999996 53.870000000000005)"/><path d="M616.46 130.7l-2.96.4-2.68 1.1-2.32 1.78-1.78 2.32-1.1 2.68-.4 2.93v155.53l-.42 3.2-1.24 3-2 2.6-2.6 2-3 1.25-3.2.42h-20.9l-3.22-.42-3-1.24-2.6-2-2-2.6-1.24-3-.42-3.2V269.9h1v27.47l.4 3 1.14 2.77 1.83 2.4 2.4 1.82 2.75 1.14 3 .4h20.8l3-.4 2.76-1.14 2.4-1.83 1.83-2.4 1.13-2.75.4-3V141.84l.4-3.13 1.2-2.92 1.96-2.53 2.52-1.94 2.92-1.2 3.1-.42z" fill="#9db6bd"/><path d="M560.38 269.47v.44h-1v-.57z" fill="#9db6bd"/><path d="M631.16 130.2l-14.26 4.64v-9.27z" fill="#fff"/><path d="M632.78 130.2l-16.38 5.33v-10.65zm-15.38 3.95l12.14-3.94-12.14-3.94z" fill="#9db6bd"/><use xlink:href="#H" transform="matrix(1,0,0,1,604.7244094488188,263.0860988202929) translate(0.005 14.4)"/><path d="M533.57 645.2c-2.45-3.68-.85-6.66 3.56-6.66h45.5c4.4 0 6 2.98 3.56 6.66L564.3 678c-2.45 3.68-6.43 3.68-8.88 0z" stroke="#333" fill="#333"/><path d="M451.1 661.43h46.06c.05 0 .1.04.1.08 0 .06.03.1.08.1h30.18" stroke="#9db6bd" fill="none"/><path d="M451.1 661.93h-.5v-1h.5z" fill="#9db6bd"/><path d="M542.3 661.6L528 666.24v-9.28z" stroke="#9db6bd" fill="#fff"/><path d="M577.45 659.96h27.53c.05 0 .08.04.08.08s.04.08.08.08h11.65" stroke="#9db6bd" fill="none"/><path d="M577.46 660.46h-.85l.68-1h.18z" fill="#9db6bd"/><path d="M631.56 660.12l-14.27 4.63v-9.27z" stroke="#9db6bd" fill="#fff"/><path d="M451.1 945.08h26.76c6.63 0 12 5.38 12 12v164.78c0 6.63 5.38 12 12 12h46.02c6.63 0 12-5.37 12-12v-23.48" stroke="#9db6bd" fill="none"/><path d="M451.1 945.58h-.5v-1h.5z" fill="#9db6bd"/><path d="M559.88 1083.62l4.63 14.26h-9.26z" stroke="#9db6bd" fill="#fff"/><path d="M533.57 1046.03c-2.45-3.68-.85-6.66 3.56-6.66h45.5c4.4 0 6 2.98 3.56 6.66l-21.88 32.8c-2.45 3.68-6.43 3.68-8.88 0z" stroke="#333" fill="#333"/><path d="M559.88 1038.37v-27.5c0-6.63 5.37-12 12-12h20.84c6.63 0 12 5.37 12 12v169.52c0 6.44 5.23 11.66 11.68 11.66" stroke="#9db6bd" fill="none"/><path d="M560.38 1038.87h-1v-.5h1z" fill="#9db6bd"/><path d="M631.16 1192.06l-14.26 4.64v-9.27z" stroke="#9db6bd" fill="#fff"/><path d="M560.38 637.54h-1v-1h1zm0-4.94h-1v-1.98h1zm0-5.93h-1v-1.98h1zm0-5.93h-1v-1.98h1zm0-5.93h-1v-1.97h1zm0-5.92h-1v-1.98h1zm0-5.93h-1v-1.98h1zm0-5.93h-1v-1.98h1zm0-5.93h-1v-2h1zm0-5.94h-1v-1.98h1zm0-5.93h-1v-1.97h1zm0-5.93h-1v-1.97h1zm0-5.93h-1v-1.97h1zm0-5.93h-1v-1.97h1zm0-5.93h-1v-1.96h1zm0-5.92h-1v-1.97h1zm0-5.93h-1v-1.97h1zm0-5.93h-1v-1.97h1zm0-5.93h-1v-1.98h1zm0-47.44h-1v-1.98h1zm0-5.93h-1v-1.98h1zm0-5.93h-1v-1.98h1zm0-5.93h-1v-1.98h1zm0-5.93h-1v-1.98h1zm0-5.93h-1v-1.97h1zm0-5.92h-1v-1.98h1zm0-5.93h-1v-1.98h1zm0-5.93h-1v-1.98h1zm0-5.93h-1v-2h1zm0-5.94h-1v-1.98h1zm0-5.93h-1v-1.98h1zm0-5.93h-1v-1.98h1zm0-5.93h-1v-1.98h1zm0-5.93h-1v-1.98h1zm0-5.93h-1v-1.97h1zm0-5.92h-1v-1.97h1zm0-5.93h-1v-1.97h1zm0-5.93h-1v-1.97h1zm0-5.93h-1v-1.98h1zm0-5.94h-1v-1.97h1zm0-5.93h-1v-1.97h1zm0-5.93h-1v-1.97h1zm0-5.93h-1V346h1zm0-5.93h-1v-1.97h1zm0-5.93h-1v-1.96h1zm0-5.92h-1v-1.97h1zm0-5.92h-1v-1.98h1zm0-5.93h-1v-1.98h1zm0-5.93h-1v-1.98h1zm0-5.93h-1v-1.98h1zm0-5.93h-1v-1.98h1zm0-5.93h-1v-1.97h1zm0-5.92h-1v-1.98h1zm0-5.93h-1v-1.98h1zm0-5.93h-1v-1.98h1zm0-5.93h-1v-1h1zM560.38 269.47v.44h-1v-.57zM560.38 638.04h-1v-.5h1z" fill="#9db6bd"/><use xlink:href="#I" transform="matrix(1,0,0,1,517.8941557469464,486.1130573123748) translate(0.005000000000002558 17.37)"/><use xlink:href="#J" transform="matrix(1,0,0,1,535.6781557469463,506.5206355205318) translate(0.004999999999999005 17.37)"/><path d="M560.35 1038.37h-1v-1h1zm0-5.04h-1v-2h1zm0-6.04h-1v-2.03h1zm0-6.06h-1v-2.02h1zm0-6.05h-1v-2.02h1zm0-6.05h-1v-2.02h1zm0-6.05h-1v-2h1zm0-6.04h-1v-2.02h1zm0-6.05h-1v-2h1zm0-6.03h-1v-2.02h1zm0-6.05h-1v-2.02h1zm0-6.05h-1v-2h1zm0-6.04h-1v-2.02h1zm0-6.05h-1v-2h1zm0-6.04h-1v-2.02h1zm0-6.05h-1v-2.03h1zm0-6.06h-1v-2h1zm0-6.04h-1v-2.02h1zm0-6.05h-1v-2h1zm0-6.04h-1v-2h1zm0-6.04h-1v-2h1zm0-6.05h-1v-2h1zm0-6.03h-1v-2.02h1zm0-6.05h-1v-2h1zm0-6.04h-1v-2.02h1zm0-6.05h-1v-2h1zm0-6.04h-1v-2.03h1zm0-6.06h-1v-2.02h1zm0-84.64h-1v-2.02h1zm0-6.05h-1v-2h1zm0-6.04h-1v-2h1zm0-6.04h-1v-2.02h1zm0-6.05h-1v-2h1zm0-6.03h-1v-2.02h1zm0-6.05h-1v-2h1zm0-6.04h-1v-2.02h1zm0-6.05h-1v-2h1zm0-6.05h-1v-2h1zm0-6.04h-1v-2.02h1zm0-6.05h-1v-2.02h1zm0-6.05h-1v-2.02h1zm0-6.05h-1v-2h1zm0-6.04h-1v-2.02h1zm0-6.05h-1v-2h1zm0-6.04h-1v-2h1zm0-6.04h-1v-2.02h1zm0-6.05h-1v-1h1zM560.35 681.24v.44h-1v-.6zM560.35 1038.87h-1v-.5h1z" fill="#9db6bd"/><use xlink:href="#K" transform="matrix(1,0,0,1,528.4223916074362,792.0424443714362) translate(0.004999999999999005 17.37)"/><use xlink:href="#L" transform="matrix(1,0,0,1,522.7433916074363,810.1882394333899) translate(0.005000000000002558 17.37)"/><use xlink:href="#M" transform="matrix(1,0,0,1,522.7433916074363,810.1882394333899) translate(53.735 17.37)"/><use xlink:href="#N" transform="matrix(1,0,0,1,516.6593916074362,830.8987161577483) translate(0.005000000000002558 17.37)"/><use xlink:href="#O" transform="matrix(1,0,0,1,522.7253916074362,849.4423567233348) translate(0.005000000000002558 17.37)"/><path d="M774.96 661.6h39.15" stroke="#9db6bd" fill="none"/><path d="M774.98 662.1h-.65l.27-1h.38z" fill="#9db6bd"/><path d="M828.88 661.6l-14.27 4.64v-9.28z" stroke="#9db6bd" fill="#fff"/><path d="M774.96 130.2H899.5c6.62 0 12 5.38 12 12v459.64" stroke="#9db6bd" fill="none"/><path d="M774.98 130.7h-.65l.27-1h.38z" fill="#9db6bd"/><path d="M911.5 616.6l-4.64-14.26h9.27z" stroke="#9db6bd" fill="#fff"/><path d="M774.96 1192.06H899.5c6.62 0 12-5.37 12-12V733.2" stroke="#9db6bd" fill="none"/><path d="M774.98 1192.56h-.65l.27-1h.38z" fill="#9db6bd"/><path d="M911.5 718.44l4.63 14.26h-9.27z" stroke="#9db6bd" fill="#fff"/><path d="M1120.06 110.6l3 1.24 2.6 2 2 2.6 1.24 3 .42 3.2v11.66h-1v-11.6l-.4-3-1.14-2.76-1.83-2.4-2.4-1.82-2.75-1.14-3-.4h-103.2l-3 .4-2.76 1.14-2.4 1.83-1.83 2.4-1.13 2.75-.4 3v530.5l-.05 1.03-.95 3.15-2 2.56-2.76 1.72-3.2.6-.2-.98 3.04-.57 2.46-1.5 1.76-2.3.87-2.85.04-.87V122.65l.43-3.2 1.24-3 2-2.6 2.6-2 3-1.25 3.2-.42h103.3z" fill="#9db6bd"/><path d="M993 662.27h-.5v-1h.5z" fill="#9db6bd"/><path d="M1128.82 149.06l-4.64-14.26h9.27z" fill="#fff"/><path d="M1128.82 150.68l-5.32-16.38h10.64zm-3.95-15.38l3.95 12.15 3.95-12.15z" fill="#9db6bd"/><path d="M1128.82 260.62v105.84" stroke="#9db6bd" fill="none"/><path d="M1129.32 260.63h-1v-.5h1z" fill="#9db6bd"/><path d="M1128.82 381.24l-4.64-14.27h9.27z" stroke="#9db6bd" fill="#fff"/><path d="M1082.24 677.52h-7.53l-3 .4-2.76 1.14-2.4 1.83-1.83 2.38-1.13 2.76-.4 3v141.23h-1V689l.43-3.22 1.24-3 2-2.6 2.6-2 3-1.24 3.2-.42h7.6zm47.08-12.47l-.42 3.2-1.24 3-2 2.6-2.6 2-3 1.25-3.2.42h-7.6v-1h7.53l3-.4 2.76-1.14 2.4-1.83 1.82-2.4 1.14-2.75.4-3V507.9h1zM1128.9 507.4l.42-.06v.56h-1v-.57z" fill="#9db6bd"/><path d="M1062.68 845.03l-4.64-14.26h9.27z" fill="#fff"/><path d="M1062.68 846.65l-5.33-16.38H1068zm-3.95-15.38l3.95 12.14 3.94-12.13z" fill="#9db6bd"/><use xlink:href="#P" transform="matrix(1,0,0,1,1082.2390314847135,666.4448210688961) translate(0.005000000000000782 17.37)"/><path d="M1285.54 432.13l-.42 3.2-1.24 3-2 2.6-2.6 2-3 1.24-3.2.42h-81.55v-1H1273l3.02-.4 2.76-1.14 2.4-1.84 1.82-2.4 1.14-2.74.4-3.02V240h1zm247.5-319.82l3 1.25 2.6 2 2 2.6 1.23 3 .42 3.2v9.95h-1v-9.88l-.4-3-1.15-2.77-1.83-2.4-2.4-1.82-2.75-1.15-3-.4h-232.7l-3 .4-2.77 1.15-2.4 1.83-1.82 2.4-1.15 2.75-.4 3.02v94.42h-1v-94.48l.43-3.22 1.24-3 2-2.6 2.6-2 3-1.23 3.2-.4h232.82z" fill="#9db6bd"/><path d="M1191.54 444.6h-.56l.06-.43-.07-.58h.57z" fill="#9db6bd"/><path d="M1541.8 149.06l-4.64-14.26h9.27z" fill="#fff"/><path d="M1541.8 150.68l-5.33-16.38h10.64zm-3.96-15.38l3.95 12.14 3.94-12.14z" fill="#9db6bd"/><use xlink:href="#Q" transform="matrix(1,0,0,1,1273.4203700787402,218.83501156244643) translate(0.005000000000000782 17.37)"/><path d="M1058.77 1086.05h-1v-36.38h1zm0-57.53h-1v-1.8h1zm4.4-22.95h-1v-1.3h1zm0-22.46h-1v-52.74h1z" fill="#9db6bd"/><path d="M1063.18 930.37h-1v-.5h1z" fill="#9db6bd"/><path d="M1058.27 1100.82l-4.64-14.27h9.27z" fill="#fff"/><path d="M1058.27 1102.44l-5.33-16.4h10.65zm-3.95-15.4l3.95 12.16 3.94-12.15z" fill="#9db6bd"/><use xlink:href="#L" transform="matrix(1,0,0,1,1025.5701653543306,983.1088063489683) translate(0.005000000000002558 17.37)"/><use xlink:href="#M" transform="matrix(1,0,0,1,1025.5701653543306,983.1088063489683) translate(53.735 17.37)"/><use xlink:href="#R" transform="matrix(1,0,0,1,1010.4054409562311,1005.5710625832406) translate(0.005000000000002558 17.37)"/><use xlink:href="#S" transform="matrix(1,0,0,1,1010.4054409562311,1005.5710625832406) translate(83.363 17.37)"/><use xlink:href="#T" transform="matrix(1,0,0,1,991.5867165581317,1028.5201289640593) translate(0.0049999999999954525 17.37)"/><use xlink:href="#U" transform="matrix(1,0,0,1,991.5867165581317,1028.5201289640593) translate(65.52499999999999 17.37)"/><path d="M1477.66 205.9h-105l-3 .4-2.77 1.14-2.4 1.83-1.83 2.4-1.14 2.75-.4 3v299.75l-.42 3.2-1.23 3-2 2.6-2.6 2-3 1.24-3.2.43h-127.2l-3 .4-2.76 1.14-2.38 1.84-1.83 2.4-1.16 2.75-.4 3.02V1148l-.4 3.2-1.25 3-2 2.6-2.6 2-3 1.25-3.22.42h-43.72v-1h43.66l3-.4 2.77-1.14 2.38-1.83 1.83-2.4 1.15-2.75.4-3V541.1l.42-3.2 1.24-3 2-2.6 2.6-2 3-1.25 3.22-.42h127.18l3-.4 2.77-1.13 2.4-1.84 1.82-2.4 1.13-2.74.4-3.02V217.37l.42-3.22 1.24-3 2-2.6 2.6-2 3-1.23 3.2-.42h105.06z" fill="#9db6bd"/><path d="M1153.77 1160.47h-.5v-1h.5z" fill="#9db6bd"/><path d="M1492.43 205.4l-14.27 4.63v-9.27z" fill="#fff"/><path d="M1494.05 205.4l-16.4 5.32v-10.64zm-15.4 3.95l12.16-3.95-12.14-3.95z" fill="#9db6bd"/><path d="M1123.2 383.66c3.1-3.15 8.13-3.15 11.23 0l53.78 54.73c3.1 3.14 3.1 8.25 0 11.4l-53.77 54.73c-3.1 3.15-8.12 3.15-11.22 0l-53.77-54.73c-3.1-3.15-3.1-8.26 0-11.4z" stroke="#333" fill="#333"/><path d="M1073.54 414.3c0-4.42 3.6-8 8-8h94.55c4.4 0 8 3.58 8 8v59.6c0 4.4-3.6 8-8 8h-94.56c-4.4 0-8-3.6-8-8z" stroke="#000" stroke-opacity="0" fill="#fff" fill-opacity="0"/><use xlink:href="#V" transform="matrix(1,0,0,1,1078.5433071093125,411.29921259842513) translate(4.491999999999997 29.22)"/><use xlink:href="#W" transform="matrix(1,0,0,1,1078.5433071093125,411.29921259842513) translate(23.284 29.22)"/><use xlink:href="#X" transform="matrix(1,0,0,1,1078.5433071093125,411.29921259842513) translate(13.123000000000005 50.370000000000005)"/><path d="M1541.8 260.62v50.75" stroke="#9db6bd" fill="none"/><path d="M1541.8 260.12l.5-.02v.53h-1v-.54z" fill="#9db6bd"/><path d="M1541.8 326.14l-4.64-14.27h9.27z" stroke="#9db6bd" fill="#fff"/><path d="M640.9 1163.5c1.15-4.26 5.66-7.72 10.07-7.72h124.65c4.42 0 7.08 3.46 5.94 7.73l-15.23 57.12c-1.14 4.27-5.64 7.73-10.06 7.73H631.62c-4.42 0-7.08-3.46-5.94-7.73z" stroke="#9db6bd" fill="#9db6bd"/><path d="M630.24 1163.78c0-4.42 3.58-8 8-8h126.84c4.42 0 8 3.58 8 8v56.57c0 4.4-3.58 8-8 8H638.24c-4.42 0-8-3.6-8-8z" stroke="#000" stroke-opacity="0" fill-opacity="0"/><use xlink:href="#Y" transform="matrix(1,0,0,1,635.2362204724411,1160.7784450114289) translate(60.146 27.72)"/><use xlink:href="#Z" transform="matrix(1,0,0,1,635.2362204724411,1160.7784450114289) translate(4.337000000000003 48.870000000000005)"/><path d="M640.9 633.05c1.15-4.27 5.66-7.73 10.07-7.73h124.65c4.42 0 7.08 3.46 5.94 7.73l-15.23 57.1c-1.14 4.27-5.64 7.73-10.06 7.73H631.62c-4.42 0-7.08-3.46-5.94-7.73z" stroke="#9db6bd" fill="#9db6bd"/><path d="M635.28 632.98c0-4.42 3.58-8 8-8h116.28c4.42 0 8 3.58 8 8v56.56c0 4.42-3.58 8-8 8H643.28c-4.42 0-8-3.58-8-8z" stroke="#000" stroke-opacity="0" fill-opacity="0"/><use xlink:href="#aa" transform="matrix(1,0,0,1,640.2755905511808,629.9758366789429) translate(56.307 27.72)"/><use xlink:href="#Z" transform="matrix(1,0,0,1,640.2755905511808,629.9758366789429) translate(-0.6629999999999967 48.870000000000005)"/><path d="M640.9 101.65c1.15-4.27 5.66-7.73 10.07-7.73h124.65c4.42 0 7.08 3.46 5.94 7.73l-15.23 57.1c-1.14 4.28-5.64 7.74-10.06 7.74H631.62c-4.42 0-7.08-3.47-5.94-7.74z" stroke="#9db6bd" fill="#9db6bd"/><path d="M627.55 101.92c0-4.4 3.58-8 8-8h135.18c4.4 0 8 3.6 8 8v56.57c0 4.4-3.6 8-8 8H635.55c-4.42 0-8-3.6-8-8z" stroke="#000" stroke-opacity="0" fill-opacity="0"/><use xlink:href="#ab" transform="matrix(1,0,0,1,632.5454150908298,98.9234869011923) translate(65.663 27.72)"/><use xlink:href="#Z" transform="matrix(1,0,0,1,632.5454150908298,98.9234869011923) translate(8.837000000000003 48.870000000000005)"/><path d="M1541.8 430.36v11.18c0 6.63 5.36 12 12 12h137.56c6.63 0 12 5.38 12 12v3.9" stroke="#9db6bd" fill="none"/><path d="M1542.3 430.37h-1v-.5h1z" fill="#9db6bd"/><path d="M1703.36 484.2l-4.63-14.25h9.27z" stroke="#9db6bd" fill="#fff"/><path d="M1697.83 487.67c3.06-3.2 8-3.2 11.06 0l38.42 40.2c3.05 3.2 3.05 8.37 0 11.57l-38.43 40.2c-3.06 3.2-8 3.2-11.07 0l-38.43-40.2c-3.05-3.2-3.05-8.38 0-11.57z" stroke="#333" fill="#333"/><path d="M1663.65 508.6c0-4.43 3.58-8 8-8h63.42c4.42 0 8 3.57 8 8v50.12c0 4.42-3.58 8-8 8h-63.42c-4.42 0-8-3.58-8-8z" stroke="#000" stroke-opacity="0" fill="#fff" fill-opacity="0"/><g><use xlink:href="#V" transform="matrix(1,0,0,1,1668.652694610778,505.5883494352813) translate(20.456 24.72)"/><use xlink:href="#ac" transform="matrix(1,0,0,1,1668.652694610778,505.5883494352813) translate(39.248000000000005 24.72)"/><use xlink:href="#ad" transform="matrix(1,0,0,1,1668.652694610778,505.5883494352813) translate(8.702000000000002 45.870000000000005)"/></g><path d="M1870.4 1296.7c0 14.64-50.66 26.5-113.15 26.5-62.5 0-113.16-11.86-113.16-26.5v-211.94c0-14.63 50.65-26.5 113.15-26.5 62.5 0 113.15 11.87 113.15 26.5z" stroke="#9db6bd" fill="#f2c94c" fill-opacity=".6"/><path d="M1870.4 1084.76c0 14.63-50.66 26.5-113.15 26.5-62.5 0-113.16-11.87-113.16-26.5" stroke="#9db6bd" fill="none"/><g><use xlink:href="#ae" transform="matrix(1,0,0,1,1649.0944881889761,1116.2541732283464) translate(51.845 107.795)"/><use xlink:href="#af" transform="matrix(1,0,0,1,1649.0944881889761,1116.2541732283464) translate(95.477 107.795)"/></g><path d="M1658.12 765.3v8.5c0 6.63 5.37 12 12 12h75.13c6.62 0 12 5.38 12 12v243.58" stroke="#9db6bd" fill="none"/><path d="M1658.62 765.32h-1v-.5h1z" fill="#9db6bd"/><path d="M1757.25 1056.15l-4.64-14.27h9.28z" stroke="#9db6bd" fill="#fff"/><path d="M1703.86 621.37l-.42 3.2-1.24 3-2 2.6-2.6 2-3 1.24-3.2.44h-21.25l-3.02.4-2.75 1.13-2.4 1.84-1.83 2.4-1.14 2.75-.38 3.02v22.4h-1V645.3l.42-3.2 1.24-3 2-2.6 2.6-2 3-1.24 3.2-.42h21.25l3.02-.4 2.75-1.14 2.4-1.84 1.82-2.4 1.15-2.74.4-3.02v-2.53h1zm0-23.75h-1v-14.6h1zM1703.54 582.53l.32-.05v.54h-1v-.56z" fill="#9db6bd"/><path d="M1658.12 682.54l-4.64-14.26h9.27z" fill="#fff"/><path d="M1658.12 684.16l-5.33-16.38h10.64zm-3.95-15.38l3.95 12.14 3.94-12.14z" fill="#9db6bd"/><g><use xlink:href="#P" transform="matrix(1,0,0,1,1689.852780376255,597.6185001383808) translate(0.005000000000000782 17.37)"/></g><path d="M1414.7 567.43h-51.5l-3 .4-2.76 1.14-2.4 1.83-1.83 2.4-1.13 2.75-.4 3v160.07h-1V578.9l.43-3.2 1.24-3 2-2.6 2.6-2 3-1.25 3.2-.42h51.55zm241.43-33.28H1590l-3.03.4-2.76 1.14-2.38 1.82-1.83 2.4-1.15 2.75-.4 3.02v9.26l-.42 3.2-1.24 3-2 2.6-2.6 2-3 1.25-3.2.43H1437.9v-1h128l3.02-.4 2.75-1.14 2.38-1.84 1.84-2.4 1.14-2.75.4-3v-9.28l.4-3.2 1.26-3 2-2.6 2.6-2 3-1.25 3.2-.42h66.2z" fill="#9db6bd"/><path d="M1656.6 533.45l.1.7h-.58v-1h.54z" fill="#9db6bd"/><path d="M1351.18 753.8l-4.64-14.28h9.27z" fill="#fff"/><path d="M1351.18 755.4l-5.33-16.38h10.65zm-3.95-15.38l3.95 12.15 3.94-12.15z" fill="#9db6bd"/><g><use xlink:href="#Q" transform="matrix(1,0,0,1,1414.6855082978375,556.3541338582676) translate(0.005000000000000782 17.37)"/></g><path d="M1266.14 763.9c0-4.4 3.58-8 8-8h154.08c4.4 0 8 3.6 8 8v92.44c0 4.42-3.6 8-8 8h-154.08c-4.42 0-8-3.58-8-8z" stroke="#9db6bd" stroke-opacity=".2" fill="#9db6bd" fill-opacity=".2"/><g><use xlink:href="#j" transform="matrix(1,0,0,1,1271.1377617325147,760.9055118110235) translate(5.035000000000011 35.144999999999996)"/><use xlink:href="#k" transform="matrix(1,0,0,1,1271.1377617325147,760.9055118110235) translate(42.25900000000001 35.144999999999996)"/><use xlink:href="#ag" transform="matrix(1,0,0,1,1271.1377617325147,760.9055118110235) translate(100.867 35.144999999999996)"/><use xlink:href="#ah" transform="matrix(1,0,0,1,1271.1377617325147,760.9055118110235) translate(129.235 35.144999999999996)"/><use xlink:href="#ai" transform="matrix(1,0,0,1,1271.1377617325147,760.9055118110235) translate(10.156000000000006 56.295)"/><use xlink:href="#aj" transform="matrix(1,0,0,1,1271.1377617325147,760.9055118110235) translate(55.894 56.295)"/><use xlink:href="#ak" transform="matrix(1,0,0,1,1271.1377617325147,760.9055118110235) translate(75.67599999999999 56.295)"/><use xlink:href="#al" transform="matrix(1,0,0,1,1271.1377617325147,760.9055118110235) translate(21.379000000000005 77.44500000000001)"/><use xlink:href="#q" transform="matrix(1,0,0,1,1271.1377617325147,760.9055118110235) translate(81.607 77.44500000000001)"/></g><path d="M1545 692.4c1.15-4.28 5.65-7.74 10.07-7.74h227.33c4.42 0 7.08 3.46 5.94 7.73l-17.12 64.18c-1.14 4.27-5.64 7.73-10.06 7.73h-227.33c-4.42 0-7.07-3.45-5.94-7.72z" stroke="#9db6bd" fill="#9db6bd"/><g><use xlink:href="#am" transform="matrix(1,0,0,1,1530.8330708661417,689.6589731094223) translate(22.730999999999995 31.22)"/><use xlink:href="#an" transform="matrix(1,0,0,1,1530.8330708661417,689.6589731094223) translate(91.67099999999999 31.22)"/><use xlink:href="#ao" transform="matrix(1,0,0,1,1530.8330708661417,689.6589731094223) translate(115.61099999999999 31.22)"/><use xlink:href="#ap" transform="matrix(1,0,0,1,1530.8330708661417,689.6589731094223) translate(193.803 31.22)"/><use xlink:href="#aq" transform="matrix(1,0,0,1,1530.8330708661417,689.6589731094223) translate(21.254999999999995 52.370000000000005)"/><use xlink:href="#ar" transform="matrix(1,0,0,1,1530.8330708661417,689.6589731094223) translate(103.209 52.370000000000005)"/><use xlink:href="#as" transform="matrix(1,0,0,1,1530.8330708661417,689.6589731094223) translate(118.095 52.370000000000005)"/></g><path d="M1273.8 1037.1c1.14-4.28 5.65-7.74 10.06-7.74h151.2c4.42 0 7.08 3.46 5.94 7.73l-18.34 68.75c-1.14 4.27-5.64 7.73-10.06 7.73h-151.2c-4.4 0-7.07-3.46-5.93-7.73z" stroke="#9db6bd" fill="#9db6bd"/><g><use xlink:href="#am" transform="matrix(1,0,0,1,1258.4047376101507,1034.3555485747409) translate(25.506 23.145)"/><use xlink:href="#at" transform="matrix(1,0,0,1,1258.4047376101507,1034.3555485747409) translate(94.446 23.145)"/><use xlink:href="#au" transform="matrix(1,0,0,1,1258.4047376101507,1034.3555485747409) translate(19.664999999999992 44.295)"/><use xlink:href="#av" transform="matrix(1,0,0,1,1258.4047376101507,1034.3555485747409) translate(66.231 44.295)"/><use xlink:href="#aw" transform="matrix(1,0,0,1,1258.4047376101507,1034.3555485747409) translate(36.522000000000006 65.44500000000001)"/><use xlink:href="#ax" transform="matrix(1,0,0,1,1258.4047376101507,1034.3555485747409) translate(100.188 65.44500000000001)"/></g><path d="M1351.18 865.34v147.13" stroke="#9db6bd" fill="none"/><path d="M1351.68 865.35h-1v-.5h1z" fill="#9db6bd"/><path d="M1351.18 1027.24l-4.64-14.27h9.27z" stroke="#9db6bd" fill="#fff"/><path d="M1348.23 1114.58v64.15c0 6.63 5.37 12 12 12h266.98" stroke="#9db6bd" fill="none"/><path d="M1348.73 1114.6h-1v-.52h1z" fill="#9db6bd"/><path d="M1641.98 1190.73l-14.27 4.64v-9.27z" stroke="#9db6bd" fill="#fff"/><defs><path fill="#333" d="M1325 0c-2-45-17-116-59-117-23 0-60 14-111 43C1036-6 924 29 819 29 343 25 91-234 88-709c-2-320 149-553 358-674 158-91 405-129 596-61 59 21 116 55 172 98 32 25 57 29 74-10 8-19 14-51 19-94h47c-5 93-8 258-8 496h-48c-19-237-93-373-274-444-142-56-292-26-385 70-124 128-186 357-186 607 0 473 131 709 393 709 104 0 200-36 194-148-8-146 37-358-74-402-28-11-71-17-132-20v-41c108 8 503 11 624 0v41c-98 5-92 67-92 176V0h-41" id="ay"/><path fill="#333" d="M1458-90c-70 77-137 119-272 119-170 0-246-68-277-222-32-160-42-362-131-459-45-50-141-32-229-36v471C545-83 572-41 702-41V0C577-8 186-8 70 0v-41c129 0 153-42 153-176v-1016c4-134-24-175-153-176v-41c143 9 458 2 632 2 188 0 330 30 425 92s143 150 143 264c0 261-202 363-461 396 216 18 350 82 393 270 23 100 44 250 86 326 13 22 34 32 60 32 42 0 56-21 82-47zM637-729c217 1 295-125 293-340-2-207-58-336-254-340-117-3-128 58-127 176v504h88" id="az"/><path fill="#333" d="M702-1409c-129 0-153 41-153 176v1016C545-83 572-41 702-41V0C577-8 186-8 70 0v-41c129 0 153-42 153-176v-1016c4-134-24-175-153-176v-41c115 8 508 8 632 0v41" id="aA"/><g id="a"><use transform="matrix(0.010959201388888881,0,0,0.010959201388888881,0,0)" xlink:href="#ay"/><use transform="matrix(0.010959201388888881,0,0,0.010959201388888881,16.493598090277768,0)" xlink:href="#az"/><use transform="matrix(0.010959201388888881,0,0,0.010959201388888881,32.022786458333314,0)" xlink:href="#aA"/></g><path fill="#333" d="M1069-223c2 116 23 177 131 180V0c-142-13-322-4-426 23v-185C712-35 602 29 444 29 226 29 158-88 158-317v-519c-2-115-24-177-131-180v-43c142 13 320 4 426-22v848c3 106 19 172 122 172 126 0 199-107 199-238v-537c-2-115-24-177-131-180v-43c142 13 320 4 426-22v858" id="aB"/><path fill="#333" d="M315-1587c106 0 186 55 186 157 0 103-80 158-186 158-108 0-187-55-187-158 0-102 79-157 187-157zM475-190C474-89 505-40 606-43V0C297-11 367-10 49 0v-43c101 3 131-45 131-147v-646c-2-116-22-177-131-180v-43c142 13 323 4 426-22v891" id="aC"/><path fill="#333" d="M1057-225c2 117 21 177 131 180v43c-142-13-323-4-426 22v-176C716-33 627 29 496 29 190 29 78-209 78-535c0-328 143-552 457-552 101 0 176 26 227 77v-348c-2-116-23-177-131-180v-43c142 13 322 4 426-23v1379zM580-59c108 0 182-80 182-182v-717c-35-47-85-70-150-70-72 0-128 42-167 125s-58 208-58 373c0 314 62 471 193 471" id="aD"/><path fill="#333" d="M76-518c0-347 167-569 502-569 257 0 385 151 385 454H388c-17 252 36 494 263 494 113 0 203-55 271-164l36 12C899-119 775 29 549 29 228 29 76-184 76-518zm596-420c-42-142-168-135-228-16-31 61-53 155-60 282h321c2-107-12-195-33-266" id="aE"/><path fill="#333" d="M467-190C465-88 497-40 598-43V0C284-11 354-10 41 0v-43c101 3 131-46 131-147v-1168c-2-116-23-177-131-180v-43c142 13 322 4 426-23v1414" id="aF"/><path fill="#333" d="M180-836c-2-116-22-177-131-180v-43c142 13 323 4 426-22v184c62-127 174-190 336-190 222 0 289 117 289 346v551c-1 101 30 150 131 147V0C930-11 996-11 694 0v-43c93 2 111-52 111-147v-637c-2-105-24-170-127-170-128 0-203 105-203 237v570c0 94 19 149 111 147V0C294-11 359-10 49 0v-43c101 3 131-45 131-147v-646" id="aG"/><path fill="#333" d="M481 29c-117 5-216-64-296-88-22 0-38 24-48 73H92c5-78 8-214 8-409h45c13 118 43 210 87 277S339-18 420-18c84-1 147-55 145-146-2-84-44-139-90-182-106-100-275-198-341-322-22-41-34-86-34-137 2-237 260-323 496-263 44 11 77 27 102 44 47 32 75 9 84-61h45c-5 69-8 189-8 360h-45c-24-158-88-317-262-317-80 0-141 51-139 131 3 111 87 161 157 215 128 99 237 155 309 286 49 90 40 218-21 295C751-30 628 23 481 29" id="aH"/><g id="b"><use transform="matrix(0.010959201388888881,0,0,0.010959201388888881,0,0)" xlink:href="#ay"/><use transform="matrix(0.010959201388888881,0,0,0.010959201388888881,16.493598090277768,0)" xlink:href="#aB"/><use transform="matrix(0.010959201388888881,0,0,0.010959201388888881,30.09396701388887,0)" xlink:href="#aC"/><use transform="matrix(0.010959201388888881,0,0,0.010959201388888881,37.1626519097222,0)" xlink:href="#aD"/><use transform="matrix(0.010959201388888881,0,0,0.010959201388888881,50.58767361111108,0)" xlink:href="#aE"/><use transform="matrix(0.010959201388888881,0,0,0.010959201388888881,61.8975694444444,0)" xlink:href="#aF"/><use transform="matrix(0.010959201388888881,0,0,0.010959201388888881,68.87858072916661,0)" xlink:href="#aC"/><use transform="matrix(0.010959201388888881,0,0,0.010959201388888881,75.94726562499994,0)" xlink:href="#aG"/><use transform="matrix(0.010959201388888881,0,0,0.010959201388888881,89.72298177083327,0)" xlink:href="#aE"/><use transform="matrix(0.010959201388888881,0,0,0.010959201388888881,101.0328776041666,0)" xlink:href="#aH"/></g><path fill="#333" d="M85 0v-667h421v68H157v230h307v70H157v231h349V0H85" id="aI"/><path fill="#333" d="M283-443c-48 0-91 8-131 20V0H80v-459c58-29 125-49 211-49 132-2 197 56 198 183V0h-72v-325c-1-81-47-120-134-118" id="aJ"/><path fill="#333" d="M246 0L35-499h77L296-62l-16 4 179-441h72L319 0h-73" id="aK"/><path fill="#333" d="M84 0v-499h72V0H84zm-4-588v-79h80v79H80" id="aL"/><path fill="#333" d="M80-459c64-24 171-62 262-43v64c-69-9-132 3-190 14V0H80v-459" id="aM"/><path fill="#333" d="M514-248c1 156-77 264-229 263C125 16 55-88 55-248c-2-163 74-259 228-260 162 0 229 100 231 260zm-387 0c2 115 39 199 157 197 119 1 156-82 158-197-1-117-40-195-158-194-117 0-155 80-157 194" id="aN"/><path fill="#333" d="M291-508c132-2 197 56 198 183V0h-72v-325c-1-81-47-120-134-118-48 0-91 8-131 20V0H80v-459c58-29 125-49 211-49zm306 65c-54 1-93 15-131 40l-72-36c55-42 120-68 211-69 132-2 197 56 198 183V0h-72v-325c-1-81-47-120-134-118" id="aO"/><path fill="#333" d="M461-20C413 2 356 15 286 15 128 12 55-87 55-250c-2-159 72-256 219-258 160 1 218 112 218 271H91l5-66h349l-28 10c-4-97-45-149-143-149-120 0-146 78-146 205-1 114 54 185 162 186 71 0 127-17 171-43v74" id="aP"/><path fill="#333" d="M313-4c-98 35-201-6-201-117v-312H25v-66h87v-141h72v141h129v66H184v289c2 55 10 84 66 84 22 0 48-5 63-12v68" id="aQ"/><g id="c"><use transform="matrix(0.018,0,0,0.018,0,0)" xlink:href="#aI"/><use transform="matrix(0.018,0,0,0.018,10.457999999999998,0)" xlink:href="#aJ"/><use transform="matrix(0.018,0,0,0.018,20.699999999999996,0)" xlink:href="#aK"/><use transform="matrix(0.018,0,0,0.018,30.887999999999995,0)" xlink:href="#aL"/><use transform="matrix(0.018,0,0,0.018,35.20799999999999,0)" xlink:href="#aM"/><use transform="matrix(0.018,0,0,0.018,41.36399999999999,0)" xlink:href="#aN"/><use transform="matrix(0.018,0,0,0.018,51.60599999999999,0)" xlink:href="#aJ"/><use transform="matrix(0.018,0,0,0.018,61.847999999999985,0)" xlink:href="#aO"/><use transform="matrix(0.018,0,0,0.018,77.74199999999999,0)" xlink:href="#aP"/><use transform="matrix(0.018,0,0,0.018,87.588,0)" xlink:href="#aJ"/><use transform="matrix(0.018,0,0,0.018,97.83,0)" xlink:href="#aQ"/></g><path fill="#333" d="M602-42C535-10 461 9 369 10 154 9 60-116 60-334s94-341 309-342c82 1 151 17 210 45v75c-57-24-124-52-202-52-175-1-246 96-245 274-1 178 70 276 245 275 58 0 107-9 153-24v-190H369v-70h233v301" id="aR"/><path fill="#333" d="M498-183c1 128-79 199-209 198C157 14 81-51 80-183v-316h72v300c0 99 40 146 137 147 96-1 137-48 137-147v-300h72v316" id="aS"/><path fill="#333" d="M55-256c0-221 198-309 387-211l-25 25v-268h72v624C478-1 377 15 287 15 129 15 55-85 55-256zm76 0c1 118 34 207 157 205 49 0 120-9 129-42v-313c-35-21-83-34-134-35-110 1-151 75-152 185" id="aT"/><path fill="#333" d="M152 0H80v-689h72V0" id="aU"/><path fill="#333" d="M401-139C400-35 321 11 221 15 145 15 108-1 55-27v-76c51 27 86 52 161 52 76 0 151-65 98-122-71-77-257-42-257-192 0-99 76-139 174-143 63-1 97 21 143 39v72c-48-23-75-44-139-45-48 0-107 19-106 67 7 84 107 79 170 107 54 24 102 52 102 129" id="aV"/><g id="d"><use transform="matrix(0.018,0,0,0.018,0,0)" xlink:href="#aR"/><use transform="matrix(0.018,0,0,0.018,12.366,0)" xlink:href="#aS"/><use transform="matrix(0.018,0,0,0.018,22.77,0)" xlink:href="#aL"/><use transform="matrix(0.018,0,0,0.018,27.089999999999996,0)" xlink:href="#aT"/><use transform="matrix(0.018,0,0,0.018,37.331999999999994,0)" xlink:href="#aP"/><use transform="matrix(0.018,0,0,0.018,47.178,0)" xlink:href="#aU"/><use transform="matrix(0.018,0,0,0.018,51.354,0)" xlink:href="#aL"/><use transform="matrix(0.018,0,0,0.018,55.67399999999999,0)" xlink:href="#aJ"/><use transform="matrix(0.018,0,0,0.018,65.916,0)" xlink:href="#aP"/><use transform="matrix(0.018,0,0,0.018,75.762,0)" xlink:href="#aV"/></g><path fill="#333" d="M495-179c0 124-82 191-221 189-96 2-147-25-209-57v-78c46 37 123 69 212 69s145-38 145-115c0-146-201-125-286-201-36-28-62-69-59-134 6-112 81-170 204-171 80-1 120 21 175 47v74c-50-28-91-56-171-55-79 0-135 29-135 100 0 122 133 119 218 161 67 33 127 73 127 171" id="aW"/><path fill="#333" d="M437-19C394-3 345 8 289 8 131 5 54-83 55-250c-1-167 76-255 234-258 56 0 106 11 148 28v69c-40-17-86-28-140-28-124 1-169 61-170 189 1 129 45 187 170 189 54 0 100-11 140-28v70" id="aX"/><path fill="#333" d="M474-106C473 6 363 15 252 15 144 15 68-26 60-137 46-324 284-341 411-266l14 66c-67-50-296-79-293 52 1 74 64 99 137 99 69 0 132 4 132-53v-229c11-150-219-125-292-64v-72c38-26 120-41 184-41 111 2 181 50 181 160v242" id="aY"/><g id="e"><use transform="matrix(0.018,0,0,0.018,0,0)" xlink:href="#aW"/><use transform="matrix(0.018,0,0,0.018,9.989999999999998,0)" xlink:href="#aN"/><use transform="matrix(0.018,0,0,0.018,20.232,0)" xlink:href="#aX"/><use transform="matrix(0.018,0,0,0.018,29.088,0)" xlink:href="#aL"/><use transform="matrix(0.018,0,0,0.018,33.408,0)" xlink:href="#aY"/><use transform="matrix(0.018,0,0,0.018,43.38,0)" xlink:href="#aU"/></g><g id="f"><use transform="matrix(0.018,0,0,0.018,0,0)" xlink:href="#aR"/><use transform="matrix(0.018,0,0,0.018,12.366,0)" xlink:href="#aN"/><use transform="matrix(0.018,0,0,0.018,21.977999999999998,0)" xlink:href="#aK"/><use transform="matrix(0.018,0,0,0.018,31.535999999999998,0)" xlink:href="#aP"/><use transform="matrix(0.018,0,0,0.018,41.382,0)" xlink:href="#aM"/><use transform="matrix(0.018,0,0,0.018,48.168,0)" xlink:href="#aJ"/><use transform="matrix(0.018,0,0,0.018,58.41,0)" xlink:href="#aY"/><use transform="matrix(0.018,0,0,0.018,68.38199999999999,0)" xlink:href="#aJ"/><use transform="matrix(0.018,0,0,0.018,78.624,0)" xlink:href="#aX"/><use transform="matrix(0.018,0,0,0.018,87.47999999999999,0)" xlink:href="#aP"/></g><path fill="#333" d="M85 0v-667h72V0H85" id="aZ"/><path fill="#333" d="M335-639c-90-19-145 18-137 112v28h137v66H198V0h-72v-433H40v-66h86c-12-150 62-234 209-204v64" id="ba"/><path fill="#333" d="M87 118c101 38 140-57 160-132v29L35-499h82L283-73h-15l165-426h72L291 49c-33 79-66 134-157 144-18 0-35-5-47-9v-66" id="bb"/><g id="g"><use transform="matrix(0.018,0,0,0.018,0,0)" xlink:href="#aZ"/><use transform="matrix(0.018,0,0,0.018,4.356,0)" xlink:href="#aT"/><use transform="matrix(0.018,0,0,0.018,14.597999999999999,0)" xlink:href="#aP"/><use transform="matrix(0.018,0,0,0.018,24.444,0)" xlink:href="#aJ"/><use transform="matrix(0.018,0,0,0.018,34.686,0)" xlink:href="#aQ"/><use transform="matrix(0.018,0,0,0.018,41.22,0)" xlink:href="#aL"/><use transform="matrix(0.018,0,0,0.018,45.54,0)" xlink:href="#ba"/><use transform="matrix(0.018,0,0,0.018,52.29,0)" xlink:href="#bb"/></g><path fill="#333" d="M514-256c0 172-76 271-237 271C182 15 80 5 80-85v-625h72v268l-25-25c41-19 102-38 159-40 155-2 228 98 228 251zM152-102c3 48 68 49 118 51 129 3 167-83 168-205-2-110-41-185-152-185-50 1-100 14-134 35v304" id="bc"/><path fill="#333" d="M79-263v-70h305v70H79" id="bd"/><g id="h"><use transform="matrix(0.018,0,0,0.018,0,0)" xlink:href="#aW"/><use transform="matrix(0.018,0,0,0.018,9.989999999999998,0)" xlink:href="#aS"/><use transform="matrix(0.018,0,0,0.018,20.394,0)" xlink:href="#bc"/><use transform="matrix(0.018,0,0,0.018,30.636,0)" xlink:href="#bd"/><use transform="matrix(0.018,0,0,0.018,38.987999999999985,0)" xlink:href="#aV"/><use transform="matrix(0.018,0,0,0.018,47.19599999999999,0)" xlink:href="#aQ"/><use transform="matrix(0.018,0,0,0.018,53.72999999999999,0)" xlink:href="#aY"/><use transform="matrix(0.018,0,0,0.018,63.701999999999984,0)" xlink:href="#aJ"/><use transform="matrix(0.018,0,0,0.018,73.94399999999999,0)" xlink:href="#aT"/><use transform="matrix(0.018,0,0,0.018,84.18599999999999,0)" xlink:href="#aY"/><use transform="matrix(0.018,0,0,0.018,94.15799999999999,0)" xlink:href="#aM"/><use transform="matrix(0.018,0,0,0.018,100.314,0)" xlink:href="#aT"/></g><path fill="#333" d="M149-213v-94l324-360h92zM85 0v-667h72V0H85zm176-376L588 0H488L207-327" id="be"/><path fill="#333" d="M201 0L35-499h76L250-54l-19 8 132-453h69L565-58h-14l139-441h71L595 0h-73L389-442l13 12L274 0h-73" id="bf"/><g id="i"><use transform="matrix(0.018,0,0,0.018,0,0)" xlink:href="#be"/><use transform="matrix(0.018,0,0,0.018,11.033999999999999,0)" xlink:href="#aP"/><use transform="matrix(0.018,0,0,0.018,20.25,0)" xlink:href="#bb"/><use transform="matrix(0.018,0,0,0.018,29.97,0)" xlink:href="#bf"/><use transform="matrix(0.018,0,0,0.018,43.848,0)" xlink:href="#aN"/><use transform="matrix(0.018,0,0,0.018,54.089999999999996,0)" xlink:href="#aM"/><use transform="matrix(0.018,0,0,0.018,60.245999999999995,0)" xlink:href="#aT"/><use transform="matrix(0.018,0,0,0.018,70.488,0)" xlink:href="#aV"/></g><path fill="#333" d="M359-667c130 0 197 65 197 194-4 120-72 196-192 200l30-20L586 0h-85L303-306l36 37H157V0H85v-667h274zm125 199c0-87-36-131-133-131H157v262h169c102 0 158-37 158-131" id="bg"/><g id="j"><use transform="matrix(0.018,0,0,0.018,0,0)" xlink:href="#bg"/><use transform="matrix(0.018,0,0,0.018,11.357999999999999,0)" xlink:href="#aS"/><use transform="matrix(0.018,0,0,0.018,21.762000000000004,0)" xlink:href="#aJ"/></g><path fill="#333" d="M295-442c-58 1-101 17-143 40V0H80v-720h72v277l-8-19c43-24 100-45 159-46 132 1 192 76 192 212V0h-72v-296c0-90-40-146-128-146" id="bh"/><g id="k"><use transform="matrix(0.018,0,0,0.018,0,0)" xlink:href="#aV"/><use transform="matrix(0.018,0,0,0.018,8.208,0)" xlink:href="#aP"/><use transform="matrix(0.018,0,0,0.018,18.054000000000002,0)" xlink:href="#aY"/><use transform="matrix(0.018,0,0,0.018,28.026000000000003,0)" xlink:href="#aM"/><use transform="matrix(0.018,0,0,0.018,34.182,0)" xlink:href="#aX"/><use transform="matrix(0.018,0,0,0.018,43.038000000000004,0)" xlink:href="#bh"/></g><g id="l"><use transform="matrix(0.018,0,0,0.018,0,0)" xlink:href="#ba"/><use transform="matrix(0.018,0,0,0.018,6.119999999999999,0)" xlink:href="#aN"/><use transform="matrix(0.018,0,0,0.018,16.362,0)" xlink:href="#aM"/></g><path fill="#333" d="M136-299l219-200h90L152-240zM152 0H80v-689h72V0zm20-311L481 0h-96L123-265" id="bi"/><g id="m"><use transform="matrix(0.018,0,0,0.018,0,0)" xlink:href="#bi"/><use transform="matrix(0.018,0,0,0.018,8.387999999999998,0)" xlink:href="#aP"/><use transform="matrix(0.018,0,0,0.018,17.604,0)" xlink:href="#bb"/><use transform="matrix(0.018,0,0,0.018,27.323999999999998,0)" xlink:href="#bf"/><use transform="matrix(0.018,0,0,0.018,41.202,0)" xlink:href="#aN"/><use transform="matrix(0.018,0,0,0.018,51.443999999999996,0)" xlink:href="#aM"/><use transform="matrix(0.018,0,0,0.018,57.599999999999994,0)" xlink:href="#aT"/><use transform="matrix(0.018,0,0,0.018,67.842,0)" xlink:href="#aV"/></g><g id="n"><use transform="matrix(0.018,0,0,0.018,0,0)" xlink:href="#aL"/><use transform="matrix(0.018,0,0,0.018,4.319999999999999,0)" xlink:href="#aJ"/></g><path fill="#333" d="M514-237C514-19 312 71 127-26l25-25v268H80v-626c8-88 111-99 202-99 156 0 232 100 232 271zM152-87c36 21 74 34 124 35 112-1 160-75 162-185-1-118-33-208-157-205-51 0-129 7-129 46v309" id="bj"/><g id="o"><use transform="matrix(0.018,0,0,0.018,0,0)" xlink:href="#aX"/><use transform="matrix(0.018,0,0,0.018,8.856,0)" xlink:href="#aN"/><use transform="matrix(0.018,0,0,0.018,19.098,0)" xlink:href="#aO"/><use transform="matrix(0.018,0,0,0.018,34.992,0)" xlink:href="#bj"/><use transform="matrix(0.018,0,0,0.018,45.233999999999995,0)" xlink:href="#aY"/><use transform="matrix(0.018,0,0,0.018,55.205999999999996,0)" xlink:href="#aJ"/><use transform="matrix(0.018,0,0,0.018,65.448,0)" xlink:href="#bb"/></g><g id="p"><use transform="matrix(0.018,0,0,0.018,0,0)" xlink:href="#aY"/><use transform="matrix(0.018,0,0,0.018,9.972,0)" xlink:href="#aJ"/><use transform="matrix(0.018,0,0,0.018,20.214,0)" xlink:href="#aJ"/><use transform="matrix(0.018,0,0,0.018,30.455999999999996,0)" xlink:href="#aS"/><use transform="matrix(0.018,0,0,0.018,40.86,0)" xlink:href="#aY"/><use transform="matrix(0.018,0,0,0.018,50.83200000000001,0)" xlink:href="#aU"/></g><g id="q"><use transform="matrix(0.018,0,0,0.018,0,0)" xlink:href="#aM"/><use transform="matrix(0.018,0,0,0.018,6.156,0)" xlink:href="#aP"/><use transform="matrix(0.018,0,0,0.018,16.002,0)" xlink:href="#bj"/><use transform="matrix(0.018,0,0,0.018,26.244,0)" xlink:href="#aN"/><use transform="matrix(0.018,0,0,0.018,36.486,0)" xlink:href="#aM"/><use transform="matrix(0.018,0,0,0.018,43.272,0)" xlink:href="#aQ"/><use transform="matrix(0.018,0,0,0.018,49.806,0)" xlink:href="#aV"/></g><g id="r"><use transform="matrix(0.018,0,0,0.018,0,0)" xlink:href="#aY"/><use transform="matrix(0.018,0,0,0.018,9.972,0)" xlink:href="#bj"/><use transform="matrix(0.018,0,0,0.018,20.214,0)" xlink:href="#bj"/><use transform="matrix(0.018,0,0,0.018,30.455999999999996,0)" xlink:href="#aP"/><use transform="matrix(0.018,0,0,0.018,40.301999999999985,0)" xlink:href="#aJ"/><use transform="matrix(0.018,0,0,0.018,50.54399999999999,0)" xlink:href="#aT"/></g><g id="s"><use transform="matrix(0.018,0,0,0.018,0,0)" xlink:href="#aJ"/><use transform="matrix(0.018,0,0,0.018,10.241999999999999,0)" xlink:href="#aP"/><use transform="matrix(0.018,0,0,0.018,20.088,0)" xlink:href="#bf"/></g><g id="t"><use transform="matrix(0.018,0,0,0.018,0,0)" xlink:href="#aS"/><use transform="matrix(0.018,0,0,0.018,10.404,0)" xlink:href="#aJ"/><use transform="matrix(0.018,0,0,0.018,20.646,0)" xlink:href="#aT"/><use transform="matrix(0.018,0,0,0.018,30.887999999999998,0)" xlink:href="#aP"/><use transform="matrix(0.018,0,0,0.018,40.733999999999995,0)" xlink:href="#aM"/></g><g id="u"><use transform="matrix(0.018,0,0,0.018,0,0)" xlink:href="#aM"/><use transform="matrix(0.018,0,0,0.018,6.156,0)" xlink:href="#aP"/><use transform="matrix(0.018,0,0,0.018,16.002,0)" xlink:href="#aV"/><use transform="matrix(0.018,0,0,0.018,24.21,0)" xlink:href="#bj"/><use transform="matrix(0.018,0,0,0.018,34.452,0)" xlink:href="#aP"/><use transform="matrix(0.018,0,0,0.018,44.298,0)" xlink:href="#aX"/><use transform="matrix(0.018,0,0,0.018,53.154,0)" xlink:href="#aQ"/><use transform="matrix(0.018,0,0,0.018,59.688,0)" xlink:href="#aL"/><use transform="matrix(0.018,0,0,0.018,64.008,0)" xlink:href="#aK"/><use transform="matrix(0.018,0,0,0.018,73.56599999999999,0)" xlink:href="#aP"/></g><g id="v"><use transform="matrix(0.018,0,0,0.018,0,0)" xlink:href="#aV"/><use transform="matrix(0.018,0,0,0.018,8.208,0)" xlink:href="#aS"/><use transform="matrix(0.018,0,0,0.018,18.612000000000002,0)" xlink:href="#bc"/><use transform="matrix(0.018,0,0,0.018,28.854,0)" xlink:href="#bd"/><use transform="matrix(0.018,0,0,0.018,37.205999999999996,0)" xlink:href="#aV"/><use transform="matrix(0.018,0,0,0.018,45.413999999999994,0)" xlink:href="#aQ"/><use transform="matrix(0.018,0,0,0.018,51.94799999999999,0)" xlink:href="#aY"/><use transform="matrix(0.018,0,0,0.018,61.919999999999995,0)" xlink:href="#aJ"/><use transform="matrix(0.018,0,0,0.018,72.16199999999999,0)" xlink:href="#aT"/><use transform="matrix(0.018,0,0,0.018,82.404,0)" xlink:href="#aY"/><use transform="matrix(0.018,0,0,0.018,92.37599999999999,0)" xlink:href="#aM"/><use transform="matrix(0.018,0,0,0.018,98.532,0)" xlink:href="#aT"/><use transform="matrix(0.018,0,0,0.018,108.77400000000002,0)" xlink:href="#aV"/></g><g id="w"><use transform="matrix(0.018,0,0,0.018,0,0)" xlink:href="#aR"/><use transform="matrix(0.018,0,0,0.018,12.366,0)" xlink:href="#bg"/><use transform="matrix(0.018,0,0,0.018,23.723999999999997,0)" xlink:href="#aZ"/></g><path fill="#333" d="M442-25C402-5 340 13 283 15 127 14 57-81 55-236c-1-177 80-271 247-271 95 0 187 29 187 124V21c-4 125-83 178-217 177-53 1-102-13-142-23v-68c40 10 82 24 134 23 95 1 150-24 153-107v-73zM131-236c1 107 41 187 152 185 51-1 99-14 134-35v-287c0-59-55-66-113-68-132-4-172 81-173 205" id="bk"/><g id="x"><use transform="matrix(0.018,0,0,0.018,0,0)" xlink:href="#bk"/><use transform="matrix(0.018,0,0,0.018,10.241999999999999,0)" xlink:href="#aU"/><use transform="matrix(0.018,0,0,0.018,14.418,0)" xlink:href="#aN"/><use transform="matrix(0.018,0,0,0.018,24.659999999999997,0)" xlink:href="#aV"/><use transform="matrix(0.018,0,0,0.018,32.867999999999995,0)" xlink:href="#aV"/><use transform="matrix(0.018,0,0,0.018,41.07599999999999,0)" xlink:href="#aY"/><use transform="matrix(0.018,0,0,0.018,51.047999999999995,0)" xlink:href="#aM"/><use transform="matrix(0.018,0,0,0.018,57.833999999999996,0)" xlink:href="#bb"/></g><path fill="#333" d="M236 0v-592l-133 88v-85l123-78h82V0h-72" id="bl"/><path fill="#333" d="M80 0v-100h100V0H80" id="bm"/><path fill="#333" d="M586-331c0 207-71 342-263 342C132 11 59-125 60-331c-1-206 72-342 263-342 192 0 263 135 263 342zm-454 0c0 163 38 275 191 276 153-1 191-113 191-276 0-164-39-276-191-276S132-495 132-331" id="bn"/><g id="y"><use transform="matrix(0.018,0,0,0.018,0,0)" xlink:href="#bl"/><use transform="matrix(0.018,0,0,0.018,8.117999999999999,0)" xlink:href="#bm"/><use transform="matrix(0.018,0,0,0.018,12.797999999999998,0)" xlink:href="#bn"/></g><path fill="#333" d="M20 0l266-667h72L623 0h-77L315-600l15-2L98 0H20zm117-208l31-69h327l5 69H137" id="bo"/><g id="z"><use transform="matrix(0.018,0,0,0.018,0,0)" xlink:href="#bo"/><use transform="matrix(0.018,0,0,0.018,11.574,0)" xlink:href="#aU"/><use transform="matrix(0.018,0,0,0.018,15.75,0)" xlink:href="#aU"/></g><g id="A"><use transform="matrix(0.018,0,0,0.018,0,0)" xlink:href="#bi"/><use transform="matrix(0.018,0,0,0.018,8.387999999999998,0)" xlink:href="#aP"/><use transform="matrix(0.018,0,0,0.018,17.604,0)" xlink:href="#bb"/><use transform="matrix(0.018,0,0,0.018,27.323999999999998,0)" xlink:href="#bf"/><use transform="matrix(0.018,0,0,0.018,41.202,0)" xlink:href="#aN"/><use transform="matrix(0.018,0,0,0.018,51.443999999999996,0)" xlink:href="#aM"/><use transform="matrix(0.018,0,0,0.018,57.599999999999994,0)" xlink:href="#aT"/><use transform="matrix(0.018,0,0,0.018,67.842,0)" xlink:href="#aV"/></g><g id="B"><use transform="matrix(0.018,0,0,0.018,0,0)" xlink:href="#bj"/><use transform="matrix(0.018,0,0,0.018,10.241999999999999,0)" xlink:href="#aY"/><use transform="matrix(0.018,0,0,0.018,20.214,0)" xlink:href="#aM"/><use transform="matrix(0.018,0,0,0.018,26.999999999999996,0)" xlink:href="#aV"/><use transform="matrix(0.018,0,0,0.018,35.208,0)" xlink:href="#aP"/><use transform="matrix(0.018,0,0,0.018,45.054,0)" xlink:href="#aT"/></g><g id="C"><use transform="matrix(0.018,0,0,0.018,0,0)" xlink:href="#aQ"/><use transform="matrix(0.018,0,0,0.018,6.534,0)" xlink:href="#bh"/><use transform="matrix(0.018,0,0,0.018,16.884,0)" xlink:href="#aM"/><use transform="matrix(0.018,0,0,0.018,23.04,0)" xlink:href="#aN"/><use transform="matrix(0.018,0,0,0.018,33.282,0)" xlink:href="#aS"/><use transform="matrix(0.018,0,0,0.018,43.686,0)" xlink:href="#bk"/><use transform="matrix(0.018,0,0,0.018,53.92799999999999,0)" xlink:href="#bh"/></g><path fill="#333" d="M553-461c0 138-88 206-231 206H157V0H85v-667h237c143-1 231 68 231 206zm-72 0c0-101-61-137-168-137H157v274h156c107 2 168-36 168-137" id="bp"/><path fill="#333" d="M659-333c1 216-92 342-300 343C148 8 60-118 60-333c-1-215 92-342 299-343 212 1 300 128 300 343zm-525 0c-1 172 56 276 225 275 170 1 227-102 226-275 1-173-57-275-226-275-168 0-226 103-225 275" id="bq"/><g id="D"><use transform="matrix(0.018,0,0,0.018,0,0)" xlink:href="#bp"/><use transform="matrix(0.018,0,0,0.018,11.033999999999999,0)" xlink:href="#bq"/><use transform="matrix(0.018,0,0,0.018,23.976,0)" xlink:href="#aW"/></g><g id="E"><use transform="matrix(0.018,0,0,0.018,0,0)" xlink:href="#aQ"/><use transform="matrix(0.018,0,0,0.018,6.534,0)" xlink:href="#aY"/><use transform="matrix(0.018,0,0,0.018,16.506,0)" xlink:href="#bk"/><use transform="matrix(0.018,0,0,0.018,26.747999999999998,0)" xlink:href="#bk"/><use transform="matrix(0.018,0,0,0.018,36.989999999999995,0)" xlink:href="#aP"/><use transform="matrix(0.018,0,0,0.018,46.836,0)" xlink:href="#aM"/></g><path fill="#fff" d="M441-150C438-27 339 13 216 15 146 16 100-3 51-22v-131c45 29 97 61 171 61 53 0 87-43 50-70-49-36-141-29-181-75-25-25-42-59-42-109 3-120 89-170 206-170 77 0 118 16 165 43v117c-44-22-81-52-144-52-78 0-98 73-31 92 93 26 201 40 196 166" id="br"/><path fill="#fff" d="M366 0c-24 13-58 20-93 20-112 1-173-53-174-159v-253H25v-114h74v-139h156v139h111v114H255v234c-9 68 81 56 111 30V0" id="bs"/><path fill="#fff" d="M553-255c1 173-89 270-259 270C121 15 37-81 37-255c-1-184 81-265 257-268 176 0 260 90 259 268zm-368 0c0 91 25 151 109 151s110-64 111-151c1-92-24-149-111-150-87 0-109 59-109 150" id="bt"/><path fill="#fff" d="M66-453c68-50 244-99 341-43v109c-53-10-135-12-192-4V0H66v-453" id="bu"/><path fill="#fff" d="M479-19C427 2 370 16 295 15 134 11 40-83 37-246c-1-170 87-278 253-277 180 0 234 127 234 309H139l-16-95h278l-22 47c-3-93-14-147-95-147-78 0-98 63-98 150 1 97 45 151 145 150 58 0 107-22 148-38v128" id="bv"/><g id="F"><use transform="matrix(0.018,0,0,0.018,0,0)" xlink:href="#br"/><use transform="matrix(0.018,0,0,0.018,8.676,0)" xlink:href="#bs"/><use transform="matrix(0.018,0,0,0.018,16.11,0)" xlink:href="#bt"/><use transform="matrix(0.018,0,0,0.018,26.729999999999997,0)" xlink:href="#bu"/><use transform="matrix(0.018,0,0,0.018,34.12799999999999,0)" xlink:href="#bv"/></g><path fill="#fff" d="M296-397c-27-1-64 9-81 17V0H66v-463c68-33 164-54 262-57 133 1 215 46 215 180V0H394v-310c-1-60-35-87-98-87" id="bw"/><path fill="#fff" d="M464-25c-47 23-92 38-161 38C139 7 37-78 37-246c0-175 93-269 265-274 57 0 121 13 161 32v128c-42-18-82-37-137-37-86 1-142 42-140 134 1 102 42 151 147 151 50 1 99-23 131-40v127" id="bx"/><g id="G"><use transform="matrix(0.018,0,0,0.018,0,0)" xlink:href="#br"/><use transform="matrix(0.018,0,0,0.018,8.676,0)" xlink:href="#bv"/><use transform="matrix(0.018,0,0,0.018,18.792,0)" xlink:href="#bw"/><use transform="matrix(0.018,0,0,0.018,29.754,0)" xlink:href="#bs"/><use transform="matrix(0.018,0,0,0.018,37.188,0)" xlink:href="#bv"/><use transform="matrix(0.018,0,0,0.018,47.304,0)" xlink:href="#bw"/><use transform="matrix(0.018,0,0,0.018,58.266000000000005,0)" xlink:href="#bx"/><use transform="matrix(0.018,0,0,0.018,67.302,0)" xlink:href="#bv"/><use transform="matrix(0.018,0,0,0.018,77.418,0)" xlink:href="#br"/></g><g id="I"><use transform="matrix(0.018,0,0,0.018,0,0)" xlink:href="#aR"/><use transform="matrix(0.018,0,0,0.018,12.366,0)" xlink:href="#aS"/><use transform="matrix(0.018,0,0,0.018,22.77,0)" xlink:href="#aL"/><use transform="matrix(0.018,0,0,0.018,27.089999999999996,0)" xlink:href="#aT"/><use transform="matrix(0.018,0,0,0.018,37.331999999999994,0)" xlink:href="#aP"/><use transform="matrix(0.018,0,0,0.018,47.178,0)" xlink:href="#aU"/><use transform="matrix(0.018,0,0,0.018,51.354,0)" xlink:href="#aL"/><use transform="matrix(0.018,0,0,0.018,55.67399999999999,0)" xlink:href="#aJ"/><use transform="matrix(0.018,0,0,0.018,65.916,0)" xlink:href="#aP"/><use transform="matrix(0.018,0,0,0.018,75.762,0)" xlink:href="#aV"/></g><g id="J"><use transform="matrix(0.018,0,0,0.018,0,0)" xlink:href="#aQ"/><use transform="matrix(0.018,0,0,0.018,6.534,0)" xlink:href="#aN"/><use transform="matrix(0.018,0,0,0.018,16.776,0)" xlink:href="#bj"/><use transform="matrix(0.018,0,0,0.018,27.018,0)" xlink:href="#aL"/><use transform="matrix(0.018,0,0,0.018,31.338,0)" xlink:href="#aX"/><use transform="matrix(0.018,0,0,0.018,40.194,0)" xlink:href="#aV"/></g><g id="K"><use transform="matrix(0.018,0,0,0.018,0,0)" xlink:href="#aO"/><use transform="matrix(0.018,0,0,0.018,15.893999999999998,0)" xlink:href="#aP"/><use transform="matrix(0.018,0,0,0.018,25.74,0)" xlink:href="#aM"/><use transform="matrix(0.018,0,0,0.018,32.525999999999996,0)" xlink:href="#bk"/><use transform="matrix(0.018,0,0,0.018,42.767999999999994,0)" xlink:href="#aP"/><use transform="matrix(0.018,0,0,0.018,52.61399999999999,0)" xlink:href="#aT"/></g><g id="L"><use transform="matrix(0.018,0,0,0.018,0,0)" xlink:href="#bc"/><use transform="matrix(0.018,0,0,0.018,10.241999999999999,0)" xlink:href="#aY"/><use transform="matrix(0.018,0,0,0.018,20.214,0)" xlink:href="#aV"/><use transform="matrix(0.018,0,0,0.018,28.421999999999997,0)" xlink:href="#aP"/><use transform="matrix(0.018,0,0,0.018,38.267999999999994,0)" xlink:href="#aT"/></g><g id="M"><use transform="matrix(0.018,0,0,0.018,0,0)" xlink:href="#aN"/><use transform="matrix(0.018,0,0,0.018,10.241999999999999,0)" xlink:href="#aJ"/></g><path fill="#333" d="M280-218L116 0H35l202-272zM497 0h-92L40-499h91zM247-279l165-220h83L287-218" id="by"/><g id="N"><use transform="matrix(0.018,0,0,0.018,0,0)" xlink:href="#aX"/><use transform="matrix(0.018,0,0,0.018,8.856,0)" xlink:href="#aN"/><use transform="matrix(0.018,0,0,0.018,19.098,0)" xlink:href="#aJ"/><use transform="matrix(0.018,0,0,0.018,29.339999999999996,0)" xlink:href="#aQ"/><use transform="matrix(0.018,0,0,0.018,35.873999999999995,0)" xlink:href="#aP"/><use transform="matrix(0.018,0,0,0.018,45.72,0)" xlink:href="#by"/><use transform="matrix(0.018,0,0,0.018,55.29599999999999,0)" xlink:href="#aQ"/><use transform="matrix(0.018,0,0,0.018,61.83,0)" xlink:href="#aS"/><use transform="matrix(0.018,0,0,0.018,72.234,0)" xlink:href="#aY"/><use transform="matrix(0.018,0,0,0.018,82.20599999999999,0)" xlink:href="#aU"/></g><g id="O"><use transform="matrix(0.018,0,0,0.018,0,0)" xlink:href="#aV"/><use transform="matrix(0.018,0,0,0.018,8.208,0)" xlink:href="#aL"/><use transform="matrix(0.018,0,0,0.018,12.527999999999999,0)" xlink:href="#aO"/><use transform="matrix(0.018,0,0,0.018,28.421999999999997,0)" xlink:href="#aL"/><use transform="matrix(0.018,0,0,0.018,32.742,0)" xlink:href="#aU"/><use transform="matrix(0.018,0,0,0.018,36.918,0)" xlink:href="#aY"/><use transform="matrix(0.018,0,0,0.018,46.89000000000001,0)" xlink:href="#aM"/><use transform="matrix(0.018,0,0,0.018,53.676,0)" xlink:href="#aL"/><use transform="matrix(0.018,0,0,0.018,57.996,0)" xlink:href="#aQ"/><use transform="matrix(0.018,0,0,0.018,64.53,0)" xlink:href="#bb"/></g><path fill="#333" d="M261 0v-306L12-667h87l211 312-23-6 207-306h87L321-289l12-46V0h-72" id="bz"/><g id="P"><use transform="matrix(0.018,0,0,0.018,0,0)" xlink:href="#bz"/><use transform="matrix(0.018,0,0,0.018,8.963999999999999,0)" xlink:href="#aP"/><use transform="matrix(0.018,0,0,0.018,18.81,0)" xlink:href="#aV"/></g><path fill="#333" d="M85 0v-667h82L583-80l-18 28v-615h72V0h-81L124-609l33-31V0H85" id="bA"/><g id="Q"><use transform="matrix(0.018,0,0,0.018,0,0)" xlink:href="#bA"/><use transform="matrix(0.018,0,0,0.018,12.995999999999999,0)" xlink:href="#aN"/></g><g id="R"><use transform="matrix(0.018,0,0,0.018,0,0)" xlink:href="#aM"/><use transform="matrix(0.018,0,0,0.018,6.156,0)" xlink:href="#aP"/><use transform="matrix(0.018,0,0,0.018,16.002,0)" xlink:href="#aU"/><use transform="matrix(0.018,0,0,0.018,20.177999999999997,0)" xlink:href="#aP"/><use transform="matrix(0.018,0,0,0.018,29.394,0)" xlink:href="#aK"/><use transform="matrix(0.018,0,0,0.018,39.221999999999994,0)" xlink:href="#aY"/><use transform="matrix(0.018,0,0,0.018,49.193999999999996,0)" xlink:href="#aJ"/><use transform="matrix(0.018,0,0,0.018,59.43599999999999,0)" xlink:href="#aX"/><use transform="matrix(0.018,0,0,0.018,68.29199999999999,0)" xlink:href="#aP"/></g><g id="S"><use transform="matrix(0.018,0,0,0.018,0,0)" xlink:href="#aQ"/><use transform="matrix(0.018,0,0,0.018,6.534,0)" xlink:href="#aN"/></g><g id="T"><use transform="matrix(0.018,0,0,0.018,0,0)" xlink:href="#aN"/><use transform="matrix(0.018,0,0,0.018,10.241999999999999,0)" xlink:href="#aM"/><use transform="matrix(0.018,0,0,0.018,17.028,0)" xlink:href="#aL"/><use transform="matrix(0.018,0,0,0.018,21.348,0)" xlink:href="#bk"/><use transform="matrix(0.018,0,0,0.018,31.589999999999996,0)" xlink:href="#aL"/><use transform="matrix(0.018,0,0,0.018,35.91,0)" xlink:href="#aJ"/><use transform="matrix(0.018,0,0,0.018,46.151999999999994,0)" xlink:href="#aY"/><use transform="matrix(0.018,0,0,0.018,56.123999999999995,0)" xlink:href="#aU"/></g><g id="U"><use transform="matrix(0.018,0,0,0.018,0,0)" xlink:href="#bi"/><use transform="matrix(0.018,0,0,0.018,8.387999999999998,0)" xlink:href="#aP"/><use transform="matrix(0.018,0,0,0.018,17.604,0)" xlink:href="#bb"/><use transform="matrix(0.018,0,0,0.018,27.323999999999998,0)" xlink:href="#bf"/><use transform="matrix(0.018,0,0,0.018,41.202,0)" xlink:href="#aN"/><use transform="matrix(0.018,0,0,0.018,51.443999999999996,0)" xlink:href="#aM"/><use transform="matrix(0.018,0,0,0.018,57.599999999999994,0)" xlink:href="#aT"/></g><path fill="#fff" d="M69 0v-499h149l1 499H69zm-3-575v-115h154v115H66" id="bB"/><g id="V"><use transform="matrix(0.018,0,0,0.018,0,0)" xlink:href="#bB"/><use transform="matrix(0.018,0,0,0.018,5.148,0)" xlink:href="#br"/></g><path fill="#fff" d="M182-279l186-227h181L268-209zM214 0H66v-697h150zm81-344L562 0H373L189-243" id="bC"/><path fill="#fff" d="M145 68c70-3 81-58 93-125l3 85L24-506h171l115 355h-15l114-355h160L370 8c-41 97-79 176-194 188-33 0-68-8-90-18V57c19 7 35 11 59 11" id="bD"/><path fill="#fff" d="M194 0L24-506h161L298-97l-47 2 107-411h110l105 399h-37l108-399h158L634 0H499L399-327l25 3L329 0H194" id="bE"/><path fill="#fff" d="M543-132C533-19 425 12 308 15 127 19 37-72 37-257c0-196 139-308 338-250 19 7 35 18 50 34l-30 46v-287h148v582zM188-252c0 90 35 143 126 142 38 0 81-7 81-38v-233c-21-12-48-21-78-21-95-1-130 52-129 150" id="bF"/><g id="W"><use transform="matrix(0.018,0,0,0.018,0,0)" xlink:href="#bC"/><use transform="matrix(0.018,0,0,0.018,9.702,0)" xlink:href="#bv"/><use transform="matrix(0.018,0,0,0.018,19.259999999999998,0)" xlink:href="#bD"/><use transform="matrix(0.018,0,0,0.018,29.933999999999997,0)" xlink:href="#bE"/><use transform="matrix(0.018,0,0,0.018,44.244,0)" xlink:href="#bt"/><use transform="matrix(0.018,0,0,0.018,54.864,0)" xlink:href="#bu"/><use transform="matrix(0.018,0,0,0.018,62.262,0)" xlink:href="#bF"/></g><path fill="#fff" d="M563-248C563-57 430 59 235-2c-21-7-38-17-53-32l30-47v262H66v-580c12-106 126-124 241-124 174 0 256 92 256 275zM212-126c20 13 54 20 83 21 91 1 119-54 119-148 0-88-24-146-113-145-48 1-81 3-89 34v238" id="bG"/><path fill="#fff" d="M446-484c2 151-161 135-148 299H180c-7-112 38-168 96-215 24-23 51-41 52-84 2-125-195-83-248-34v-113c39-24 97-44 162-44 127 3 200 66 204 191zM173 0v-114h132V0H173" id="bH"/><g id="X"><use transform="matrix(0.018,0,0,0.018,0,0)" xlink:href="#bG"/><use transform="matrix(0.018,0,0,0.018,10.818,0)" xlink:href="#bu"/><use transform="matrix(0.018,0,0,0.018,18.216,0)" xlink:href="#bv"/><use transform="matrix(0.018,0,0,0.018,28.332,0)" xlink:href="#br"/><use transform="matrix(0.018,0,0,0.018,37.008,0)" xlink:href="#bv"/><use transform="matrix(0.018,0,0,0.018,47.124,0)" xlink:href="#bw"/><use transform="matrix(0.018,0,0,0.018,58.086,0)" xlink:href="#bs"/><use transform="matrix(0.018,0,0,0.018,65.52,0)" xlink:href="#bH"/></g><path fill="#fff" d="M635-58c-74 40-161 71-267 72C149 12 41-106 42-333c-1-226 109-346 326-349 91 0 170 21 238 49v147c-70-34-127-67-218-69-135 0-182 80-180 221-1 137 45 220 173 222 36 0 68-4 92-16v-118H363v-126h272v314" id="bI"/><use transform="matrix(0.018,0,0,0.018,0,0)" xlink:href="#bI" id="Y"/><path fill="#fff" d="M535-193c2 144-90 207-231 208C161 12 66-47 66-193v-313h149v301c0 64 26 95 90 95 65 0 89-31 90-95v-301h140v313" id="bJ"/><path fill="#fff" d="M564-255c1 181-90 270-266 270C183 15 66-3 66-117v-576h146v276l-28-47c30-36 90-54 151-56 157 1 230 101 229 265zm-352 99c1 41 43 45 84 47 86 1 118-54 119-137 0-93-30-152-116-155-31 0-66 8-87 21v224" id="bK"/><path fill="#fff" d="M79-255v-103h305v103H79" id="bL"/><path fill="#fff" d="M358-311c0-134-218-87-274-34v-132c43-25 127-46 203-44 125 4 220 48 219 177l-1 239C496 4 381 15 261 15 132 15 39-27 39-158c0-176 238-190 344-103l6 72c-47-30-204-52-202 34 2 42 36 63 79 65 53-3 92 4 92-35v-186" id="bM"/><g id="Z"><use transform="matrix(0.018,0,0,0.018,0,0)" xlink:href="#br"/><use transform="matrix(0.018,0,0,0.018,8.676,0)" xlink:href="#bJ"/><use transform="matrix(0.018,0,0,0.018,19.494,0)" xlink:href="#bK"/><use transform="matrix(0.018,0,0,0.018,30.311999999999998,0)" xlink:href="#bL"/><use transform="matrix(0.018,0,0,0.018,38.663999999999994,0)" xlink:href="#br"/><use transform="matrix(0.018,0,0,0.018,47.339999999999996,0)" xlink:href="#bs"/><use transform="matrix(0.018,0,0,0.018,54.773999999999994,0)" xlink:href="#bM"/><use transform="matrix(0.018,0,0,0.018,65.07,0)" xlink:href="#bw"/><use transform="matrix(0.018,0,0,0.018,76.032,0)" xlink:href="#bF"/><use transform="matrix(0.018,0,0,0.018,86.994,0)" xlink:href="#bM"/><use transform="matrix(0.018,0,0,0.018,97.28999999999999,0)" xlink:href="#bu"/><use transform="matrix(0.018,0,0,0.018,104.68799999999999,0)" xlink:href="#bF"/><use transform="matrix(0.018,0,0,0.018,115.64999999999999,0)" xlink:href="#br"/></g><path fill="#fff" d="M534-202C528-64 440 13 295 14 198 14 124 0 59-32v-154c50 42 131 73 214 75 56 0 94-18 95-71-3-45-43-57-82-72-109-38-242-63-238-216 8-144 105-209 257-212 82 0 137 17 192 44v156c-54-43-133-87-231-69-46 8-75 76-36 106 103 78 311 55 304 243" id="bN"/><use transform="matrix(0.018,0,0,0.018,0,0)" xlink:href="#bN" id="aa"/><path fill="#fff" d="M71 0v-667h457v125H233v145h256v126H233v146h295V0H71" id="bO"/><use transform="matrix(0.018,0,0,0.018,0,0)" xlink:href="#bO" id="ab"/><use transform="matrix(0.018,0,0,0.018,0,0)" xlink:href="#bM" id="ac"/><g id="ad"><use transform="matrix(0.018,0,0,0.018,0,0)" xlink:href="#bw"/><use transform="matrix(0.018,0,0,0.018,10.962,0)" xlink:href="#bt"/><use transform="matrix(0.018,0,0,0.018,21.582,0)" xlink:href="#bJ"/><use transform="matrix(0.018,0,0,0.018,32.4,0)" xlink:href="#bw"/><use transform="matrix(0.018,0,0,0.018,43.361999999999995,0)" xlink:href="#bH"/></g><path fill="#333" d="M85 0v-667h409v68H157v230h296v70H157V0H85" id="bP"/><g id="ae"><use transform="matrix(0.018,0,0,0.018,0,0)" xlink:href="#bP"/><use transform="matrix(0.018,0,0,0.018,9.702,0)" xlink:href="#aL"/><use transform="matrix(0.018,0,0,0.018,14.021999999999998,0)" xlink:href="#aJ"/><use transform="matrix(0.018,0,0,0.018,24.263999999999996,0)" xlink:href="#aY"/><use transform="matrix(0.018,0,0,0.018,34.236,0)" xlink:href="#aU"/></g><g id="af"><use transform="matrix(0.018,0,0,0.018,0,0)" xlink:href="#aR"/><use transform="matrix(0.018,0,0,0.018,12.366,0)" xlink:href="#aU"/><use transform="matrix(0.018,0,0,0.018,16.541999999999998,0)" xlink:href="#aN"/><use transform="matrix(0.018,0,0,0.018,26.784,0)" xlink:href="#aV"/><use transform="matrix(0.018,0,0,0.018,34.992,0)" xlink:href="#aV"/><use transform="matrix(0.018,0,0,0.018,43.199999999999996,0)" xlink:href="#aY"/><use transform="matrix(0.018,0,0,0.018,53.172,0)" xlink:href="#aM"/><use transform="matrix(0.018,0,0,0.018,59.958,0)" xlink:href="#bb"/></g><g id="ag"><use transform="matrix(0.018,0,0,0.018,0,0)" xlink:href="#ba"/><use transform="matrix(0.018,0,0,0.018,6.119999999999999,0)" xlink:href="#aN"/><use transform="matrix(0.018,0,0,0.018,16.362,0)" xlink:href="#aM"/></g><g id="ah"><use transform="matrix(0.018,0,0,0.018,0,0)" xlink:href="#aQ"/><use transform="matrix(0.018,0,0,0.018,6.534,0)" xlink:href="#bh"/><use transform="matrix(0.018,0,0,0.018,16.884,0)" xlink:href="#aP"/></g><g id="ai"><use transform="matrix(0.018,0,0,0.018,0,0)" xlink:href="#bf"/><use transform="matrix(0.018,0,0,0.018,13.878,0)" xlink:href="#aN"/><use transform="matrix(0.018,0,0,0.018,24.119999999999997,0)" xlink:href="#aM"/><use transform="matrix(0.018,0,0,0.018,30.275999999999996,0)" xlink:href="#aT"/></g><g id="aj"><use transform="matrix(0.018,0,0,0.018,0,0)" xlink:href="#aL"/><use transform="matrix(0.018,0,0,0.018,4.319999999999999,0)" xlink:href="#aJ"/></g><g id="ak"><use transform="matrix(0.018,0,0,0.018,0,0)" xlink:href="#aX"/><use transform="matrix(0.018,0,0,0.018,8.856,0)" xlink:href="#aN"/><use transform="matrix(0.018,0,0,0.018,19.098,0)" xlink:href="#aO"/><use transform="matrix(0.018,0,0,0.018,34.992,0)" xlink:href="#bj"/><use transform="matrix(0.018,0,0,0.018,45.233999999999995,0)" xlink:href="#aY"/><use transform="matrix(0.018,0,0,0.018,55.205999999999996,0)" xlink:href="#aJ"/><use transform="matrix(0.018,0,0,0.018,65.448,0)" xlink:href="#bb"/></g><g id="al"><use transform="matrix(0.018,0,0,0.018,0,0)" xlink:href="#aY"/><use transform="matrix(0.018,0,0,0.018,9.972,0)" xlink:href="#aJ"/><use transform="matrix(0.018,0,0,0.018,20.214,0)" xlink:href="#aJ"/><use transform="matrix(0.018,0,0,0.018,30.455999999999996,0)" xlink:href="#aS"/><use transform="matrix(0.018,0,0,0.018,40.86,0)" xlink:href="#aY"/><use transform="matrix(0.018,0,0,0.018,50.83200000000001,0)" xlink:href="#aU"/></g><g id="am"><use transform="matrix(0.018,0,0,0.018,0,0)" xlink:href="#bM"/><use transform="matrix(0.018,0,0,0.018,10.296,0)" xlink:href="#bG"/><use transform="matrix(0.018,0,0,0.018,21.113999999999997,0)" xlink:href="#bG"/><use transform="matrix(0.018,0,0,0.018,31.931999999999995,0)" xlink:href="#bv"/><use transform="matrix(0.018,0,0,0.018,42.047999999999995,0)" xlink:href="#bw"/><use transform="matrix(0.018,0,0,0.018,53.00999999999999,0)" xlink:href="#bF"/></g><g id="an"><use transform="matrix(0.018,0,0,0.018,0,0)" xlink:href="#bM"/><use transform="matrix(0.018,0,0,0.018,10.296,0)" xlink:href="#br"/></g><g id="ao"><use transform="matrix(0.018,0,0,0.018,0,0)" xlink:href="#bC"/><use transform="matrix(0.018,0,0,0.018,9.702,0)" xlink:href="#bv"/><use transform="matrix(0.018,0,0,0.018,19.259999999999998,0)" xlink:href="#bD"/><use transform="matrix(0.018,0,0,0.018,29.933999999999997,0)" xlink:href="#bE"/><use transform="matrix(0.018,0,0,0.018,44.244,0)" xlink:href="#bt"/><use transform="matrix(0.018,0,0,0.018,54.864,0)" xlink:href="#bu"/><use transform="matrix(0.018,0,0,0.018,62.262,0)" xlink:href="#bF"/></g><path fill="#fff" d="M396-301c13-102-112-114-180-72L214 0H66v-706h150v300l-63-34c47-41 122-80 206-80 122 2 186 59 186 188V0H396v-301" id="bQ"/><g id="ap"><use transform="matrix(0.018,0,0,0.018,0,0)" xlink:href="#bE"/><use transform="matrix(0.018,0,0,0.018,14.886,0)" xlink:href="#bB"/><use transform="matrix(0.018,0,0,0.018,20.034,0)" xlink:href="#bs"/><use transform="matrix(0.018,0,0,0.018,27.467999999999996,0)" xlink:href="#bQ"/></g><g id="aq"><use transform="matrix(0.018,0,0,0.018,0,0)" xlink:href="#br"/><use transform="matrix(0.018,0,0,0.018,8.676,0)" xlink:href="#bs"/><use transform="matrix(0.018,0,0,0.018,16.11,0)" xlink:href="#bM"/><use transform="matrix(0.018,0,0,0.018,26.406,0)" xlink:href="#bw"/><use transform="matrix(0.018,0,0,0.018,37.367999999999995,0)" xlink:href="#bF"/><use transform="matrix(0.018,0,0,0.018,48.33,0)" xlink:href="#bM"/><use transform="matrix(0.018,0,0,0.018,58.626,0)" xlink:href="#bu"/><use transform="matrix(0.018,0,0,0.018,66.024,0)" xlink:href="#bF"/></g><path fill="#fff" d="M227-119v-132H94v-96h133v-133h96v133h132v96H323v132h-96" id="bR"/><use transform="matrix(0.018,0,0,0.018,0,0)" xlink:href="#bR" id="ar"/><g id="as"><use transform="matrix(0.018,0,0,0.018,0,0)" xlink:href="#br"/><use transform="matrix(0.018,0,0,0.018,8.676,0)" xlink:href="#bJ"/><use transform="matrix(0.018,0,0,0.018,19.494,0)" xlink:href="#bK"/><use transform="matrix(0.018,0,0,0.018,30.311999999999998,0)" xlink:href="#bL"/><use transform="matrix(0.018,0,0,0.018,38.663999999999994,0)" xlink:href="#br"/><use transform="matrix(0.018,0,0,0.018,47.339999999999996,0)" xlink:href="#bs"/><use transform="matrix(0.018,0,0,0.018,54.773999999999994,0)" xlink:href="#bM"/><use transform="matrix(0.018,0,0,0.018,65.07,0)" xlink:href="#bw"/><use transform="matrix(0.018,0,0,0.018,76.032,0)" xlink:href="#bF"/><use transform="matrix(0.018,0,0,0.018,86.994,0)" xlink:href="#bM"/><use transform="matrix(0.018,0,0,0.018,97.28999999999999,0)" xlink:href="#bu"/><use transform="matrix(0.018,0,0,0.018,104.68799999999999,0)" xlink:href="#bF"/></g><path fill="#fff" d="M-14 98l367-854h107L92 98H-14" id="bS"/><g id="at"><use transform="matrix(0.018,0,0,0.018,0,0)" xlink:href="#bw"/><use transform="matrix(0.018,0,0,0.018,10.962,0)" xlink:href="#bt"/><use transform="matrix(0.018,0,0,0.018,21.582,0)" xlink:href="#bJ"/><use transform="matrix(0.018,0,0,0.018,32.4,0)" xlink:href="#bw"/><use transform="matrix(0.018,0,0,0.018,43.361999999999995,0)" xlink:href="#bS"/><use transform="matrix(0.018,0,0,0.018,51.37199999999999,0)" xlink:href="#br"/></g><path fill="#fff" d="M314-602c-54-3-64 39-60 96h110v114H253V0H104v-392H29v-114h76C91-673 205-749 364-711v132c-12-14-24-23-50-23" id="bT"/><path fill="#fff" d="M328-520c132 0 208 46 208 180V0H387v-310c-1-60-35-87-98-87-28-1-56 9-74 17V0H66v-463c68-33 164-54 262-57zm275 123c-30 0-58 10-74 23l-146-55c60-51 154-88 259-91 132 0 208 46 208 180V0H701v-310c-1-60-35-87-98-87" id="bU"/><g id="au"><use transform="matrix(0.018,0,0,0.018,0,0)" xlink:href="#bT"/><use transform="matrix(0.018,0,0,0.018,7.092,0)" xlink:href="#bu"/><use transform="matrix(0.018,0,0,0.018,14.489999999999998,0)" xlink:href="#bt"/><use transform="matrix(0.018,0,0,0.018,25.11,0)" xlink:href="#bU"/></g><g id="av"><use transform="matrix(0.018,0,0,0.018,0,0)" xlink:href="#br"/><use transform="matrix(0.018,0,0,0.018,8.676,0)" xlink:href="#bv"/><use transform="matrix(0.018,0,0,0.018,18.792,0)" xlink:href="#bw"/><use transform="matrix(0.018,0,0,0.018,29.754,0)" xlink:href="#bs"/><use transform="matrix(0.018,0,0,0.018,37.188,0)" xlink:href="#bv"/><use transform="matrix(0.018,0,0,0.018,47.304,0)" xlink:href="#bw"/><use transform="matrix(0.018,0,0,0.018,58.266000000000005,0)" xlink:href="#bx"/><use transform="matrix(0.018,0,0,0.018,67.302,0)" xlink:href="#bv"/><use transform="matrix(0.018,0,0,0.018,77.418,0)" xlink:href="#bS"/><use transform="matrix(0.018,0,0,0.018,85.42800000000001,0)" xlink:href="#br"/></g><path fill="#fff" d="M235 0L24-506h162l153 390-36 1 136-391h157L385 0H235" id="bV"/><path fill="#fff" d="M417-61c-32 45-80 76-157 76C113 15 37-79 37-237c-3-197 94-286 288-283 110 3 209 32 209 136V6c-3 154-102 215-258 217-75 1-143-10-187-33V59c78 36 307 88 299-59v-82zM186-246c-2 82 38 148 112 149 37 0 65-8 90-22v-232c0-42-39-50-80-51-93-1-121 65-122 156" id="bW"/><g id="aw"><use transform="matrix(0.018,0,0,0.018,0,0)" xlink:href="#bQ"/><use transform="matrix(0.018,0,0,0.018,10.998,0)" xlink:href="#bM"/><use transform="matrix(0.018,0,0,0.018,20.735999999999997,0)" xlink:href="#bV"/><use transform="matrix(0.018,0,0,0.018,31.913999999999994,0)" xlink:href="#bB"/><use transform="matrix(0.018,0,0,0.018,37.062,0)" xlink:href="#bw"/><use transform="matrix(0.018,0,0,0.018,48.02400000000001,0)" xlink:href="#bW"/></g><g id="ax"><use transform="matrix(0.018,0,0,0.018,0,0)" xlink:href="#bE"/><use transform="matrix(0.018,0,0,0.018,14.309999999999999,0)" xlink:href="#bt"/><use transform="matrix(0.018,0,0,0.018,24.93,0)" xlink:href="#bu"/><use transform="matrix(0.018,0,0,0.018,32.327999999999996,0)" xlink:href="#bF"/></g></defs></g></svg>